<svg width="14" height="19" viewBox="0 0 14 19" fill="none" xmlns="http://www.w3.org/2000/svg">
<path d="M7.8332 17.8C9.63672 15.543 13.75 10.0727 13.75 7C13.75 3.27344 10.7266 0.25 7 0.25C3.27344 0.25 0.25 3.27344 0.25 7C0.25 10.0727 4.36328 15.543 6.1668 17.8C6.59922 18.3379 7.40078 18.3379 7.8332 17.8ZM7 4.75C7.59674 4.75 8.16903 4.98705 8.59099 5.40901C9.01295 5.83097 9.25 6.40326 9.25 7C9.25 7.59674 9.01295 8.16903 8.59099 8.59099C8.16903 9.01295 7.59674 9.25 7 9.25C6.40326 9.25 5.83097 9.01295 5.40901 8.59099C4.98705 8.16903 4.75 7.59674 4.75 7C4.75 6.40326 4.98705 5.83097 5.40901 5.40901C5.83097 4.98705 6.40326 4.75 7 4.75Z" fill="#16A34A"/>
</svg>
