<svg width="14" height="17" viewBox="0 0 14 17" fill="none" xmlns="http://www.w3.org/2000/svg">
<path d="M7.00016 0.5C7.55328 0.5 8.00016 0.946875 8.00016 1.5V2.44062L8.46891 1.97187C8.76266 1.67812 9.23766 1.67812 9.52828 1.97187C9.81891 2.26562 9.82203 2.74062 9.52828 3.03125L7.99703 4.5625V6.75938L9.91578 5.64062L10.4689 3.575C10.5752 3.175 10.9877 2.9375 11.3877 3.04375C11.7877 3.15 12.0252 3.5625 11.9189 3.9625L11.7564 4.56563L12.4939 4.13438C12.972 3.85625 13.5845 4.01875 13.8627 4.49375C14.1408 4.96875 13.9814 5.58438 13.5033 5.8625L12.7127 6.325L13.3908 6.50625C13.7908 6.6125 14.0283 7.025 13.922 7.425C13.8158 7.825 13.4033 8.0625 13.0033 7.95625L10.8877 7.39062L8.98453 8.5L10.8877 9.60938L13.0033 9.04375C13.4033 8.9375 13.8158 9.175 13.922 9.575C14.0283 9.975 13.7908 10.3875 13.3908 10.4937L12.7127 10.675L13.5033 11.1375C13.9814 11.4156 14.1408 12.0281 13.8627 12.5063C13.5845 12.9844 12.972 13.1438 12.4939 12.8656L11.7564 12.4344L11.9189 13.0375C12.0252 13.4375 11.7877 13.85 11.3877 13.9563C10.9877 14.0625 10.5752 13.825 10.4689 13.425L9.91578 11.3594L8.00016 10.2406V12.4375L9.53141 13.9688C9.82516 14.2625 9.82516 14.7375 9.53141 15.0281C9.23766 15.3187 8.76266 15.3219 8.47203 15.0281L8.00328 14.5594V15.5C8.00328 16.0531 7.55641 16.5 7.00328 16.5C6.45016 16.5 6.00328 16.0531 6.00328 15.5V14.5594L5.53453 15.0281C5.24078 15.3219 4.76578 15.3219 4.47516 15.0281C4.18453 14.7344 4.18141 14.2594 4.47516 13.9688L6.00641 12.4375V10.2406L4.08766 11.3594L3.53453 13.425C3.42828 13.825 3.01578 14.0625 2.61578 13.9563C2.21578 13.85 1.97828 13.4375 2.08453 13.0375L2.24703 12.4344L1.50328 12.8625C1.02516 13.1406 0.412659 12.9781 0.134534 12.5031C-0.143591 12.0281 0.0189092 11.4125 0.493909 11.1344L1.28453 10.6719L0.606409 10.4906C0.206409 10.3844 -0.0310908 9.97187 0.0751592 9.57187C0.181409 9.17188 0.593909 8.93437 0.993909 9.04062L3.10953 9.60625L5.01578 8.5L3.11266 7.39062L0.997034 7.95625C0.597034 8.0625 0.184534 7.825 0.0782842 7.425C-0.0279659 7.025 0.209534 6.6125 0.609534 6.50625L1.28766 6.325L0.497034 5.8625C0.0189091 5.58438 -0.140466 4.97188 0.137659 4.49688C0.415784 4.02188 1.02828 3.85938 1.50641 4.1375L2.24391 4.56875L2.08141 3.96563C1.97516 3.56562 2.21266 3.15313 2.61266 3.04688C3.01266 2.94062 3.42516 3.17812 3.53141 3.57812L4.08453 5.64375L6.00016 6.75938V4.55937L4.46891 3.03125C4.17516 2.7375 4.17516 2.2625 4.46891 1.97187C4.76266 1.68125 5.23766 1.67812 5.52828 1.97187L5.99703 2.44062V1.5C5.99703 0.946875 6.44391 0.5 6.99703 0.5H7.00016Z" fill="black"/>
</svg>
