<svg width="14" height="16" viewBox="0 0 14 16" fill="none" xmlns="http://www.w3.org/2000/svg">
<path d="M7.00016 0C7.55328 0 8.00016 0.446875 8.00016 1V1.94062L8.46891 1.47187C8.76266 1.17812 9.23766 1.17812 9.52828 1.47187C9.81891 1.76562 9.82203 2.24062 9.52828 2.53125L7.99703 4.0625V6.25938L9.91578 5.14062L10.4689 3.075C10.5752 2.675 10.9877 2.4375 11.3877 2.54375C11.7877 2.65 12.0252 3.0625 11.9189 3.4625L11.7564 4.06563L12.4939 3.63438C12.972 3.35625 13.5845 3.51875 13.8627 3.99375C14.1408 4.46875 13.9814 5.08438 13.5033 5.3625L12.7127 5.825L13.3908 6.00625C13.7908 6.1125 14.0283 6.525 13.922 6.925C13.8158 7.325 13.4033 7.5625 13.0033 7.45625L10.8877 6.89062L8.98453 8L10.8877 9.10938L13.0033 8.54375C13.4033 8.4375 13.8158 8.675 13.922 9.075C14.0283 9.475 13.7908 9.8875 13.3908 9.99375L12.7127 10.175L13.5033 10.6375C13.9814 10.9156 14.1408 11.5281 13.8627 12.0063C13.5845 12.4844 12.972 12.6438 12.4939 12.3656L11.7564 11.9344L11.9189 12.5375C12.0252 12.9375 11.7877 13.35 11.3877 13.4563C10.9877 13.5625 10.5752 13.325 10.4689 12.925L9.91578 10.8594L8.00016 9.74063V11.9375L9.53141 13.4688C9.82516 13.7625 9.82516 14.2375 9.53141 14.5281C9.23766 14.8187 8.76266 14.8219 8.47203 14.5281L8.00328 14.0594V15C8.00328 15.5531 7.55641 16 7.00328 16C6.45016 16 6.00328 15.5531 6.00328 15V14.0594L5.53453 14.5281C5.24078 14.8219 4.76578 14.8219 4.47516 14.5281C4.18453 14.2344 4.18141 13.7594 4.47516 13.4688L6.00641 11.9375V9.74063L4.08766 10.8594L3.53453 12.925C3.42828 13.325 3.01578 13.5625 2.61578 13.4563C2.21578 13.35 1.97828 12.9375 2.08453 12.5375L2.24703 11.9344L1.50328 12.3625C1.02516 12.6406 0.412659 12.4781 0.134534 12.0031C-0.143591 11.5281 0.0189092 10.9125 0.493909 10.6344L1.28453 10.1719L0.606409 9.99063C0.206409 9.88438 -0.0310908 9.47187 0.0751592 9.07187C0.181409 8.67188 0.593909 8.43437 0.993909 8.54062L3.10953 9.10625L5.01578 8L3.11266 6.89062L0.997034 7.45625C0.597034 7.5625 0.184534 7.325 0.0782842 6.925C-0.0279659 6.525 0.209534 6.1125 0.609534 6.00625L1.28766 5.825L0.497034 5.3625C0.0189091 5.08438 -0.140466 4.47188 0.137659 3.99688C0.415784 3.52188 1.02828 3.35938 1.50641 3.6375L2.24391 4.06875L2.08141 3.46563C1.97516 3.06562 2.21266 2.65313 2.61266 2.54688C3.01266 2.44062 3.42516 2.67812 3.53141 3.07812L4.08453 5.14375L6.00016 6.25938V4.05937L4.46891 2.53125C4.17516 2.2375 4.17516 1.7625 4.46891 1.47187C4.76266 1.18125 5.23766 1.17812 5.52828 1.47187L5.99703 1.94062V1C5.99703 0.446875 6.44391 0 6.99703 0H7.00016Z" fill="#3B82F6"/>
</svg>
