<svg width="13" height="16" viewBox="0 0 13 16" fill="none" xmlns="http://www.w3.org/2000/svg">
<path d="M4.62516 2.75C4.62516 2.45453 4.68335 2.16194 4.79643 1.88896C4.9095 1.61598 5.07523 1.36794 5.28417 1.15901C5.4931 0.950078 5.74114 0.784344 6.01412 0.671271C6.2871 0.558198 6.57968 0.5 6.87516 0.5C7.17063 0.5 7.46321 0.558198 7.73619 0.671271C8.00918 0.784344 8.25721 0.950078 8.46615 1.15901C8.67508 1.36794 8.84081 1.61598 8.95389 1.88896C9.06696 2.16194 9.12516 2.45453 9.12516 2.75C9.12516 3.04547 9.06696 3.33806 8.95389 3.61104C8.84081 3.88402 8.67508 4.13206 8.46615 4.34099C8.25721 4.54992 8.00918 4.71566 7.73619 4.82873C7.46321 4.9418 7.17063 5 6.87516 5C6.57968 5 6.2871 4.9418 6.01412 4.82873C5.74114 4.71566 5.4931 4.54992 5.28417 4.34099C5.07523 4.13206 4.9095 3.88402 4.79643 3.61104C4.68335 3.33806 4.62516 3.04547 4.62516 2.75ZM1.11578 4.51562C1.52203 3.95625 2.30328 3.83437 2.86266 4.24062L3.99391 5.0625C4.83141 5.67188 5.84078 6 6.87516 6C7.90953 6 8.91891 5.67188 9.75641 5.0625L10.8877 4.2375C11.447 3.83125 12.2283 3.95625 12.6345 4.5125C13.0408 5.06875 12.9158 5.85313 12.3595 6.25938L11.2283 7.08437C10.8033 7.39375 10.3502 7.65312 9.87516 7.86562V9H3.87516V7.86562C3.40016 7.65625 2.94703 7.39375 2.52203 7.08437L1.39078 6.25938C0.831406 5.85313 0.709531 5.07187 1.11578 4.5125V4.51562ZM3.92203 10.2906L5.81578 11.9469L5.00328 13.1094L5.76266 13.8687C6.25016 14.3562 6.25016 15.1469 5.76266 15.6375C5.27516 16.1281 4.48453 16.125 3.99391 15.6375L2.49391 14.1375C2.06266 13.7063 2.00328 13.0312 2.35016 12.5344L3.91891 10.2906H3.92203ZM7.93766 11.9469L9.83141 10.2906L11.4002 12.5344C11.747 13.0312 11.6877 13.7062 11.2595 14.1344L9.75953 15.6344C9.27203 16.1219 8.48141 16.1219 7.99078 15.6344C7.50016 15.1469 7.50328 14.3563 7.99078 13.8656L8.75016 13.1062L7.93766 11.9438V11.9469Z" fill="#374151"/>
</svg>
