<svg width="14" height="19" viewBox="0 0 14 19" fill="none" xmlns="http://www.w3.org/2000/svg">
<path d="M4.4688 3.34375C4.4688 3.01134 4.53428 2.68219 4.66148 2.37508C4.78869 2.06798 4.97514 1.78893 5.21019 1.55389C5.44524 1.31884 5.72428 1.13239 6.03139 1.00518C6.33849 0.877973 6.66765 0.8125 7.00005 0.8125C7.33246 0.8125 7.66162 0.877973 7.96872 1.00518C8.27583 1.13239 8.55487 1.31884 8.78992 1.55389C9.02497 1.78893 9.21142 2.06798 9.33862 2.37508C9.46583 2.68219 9.5313 3.01134 9.5313 3.34375C9.5313 3.67616 9.46583 4.00531 9.33862 4.31242C9.21142 4.61952 9.02497 4.89857 8.78992 5.13361C8.55487 5.36866 8.27583 5.55511 7.96872 5.68232C7.66162 5.80953 7.33246 5.875 7.00005 5.875C6.66765 5.875 6.33849 5.80953 6.03139 5.68232C5.72428 5.55511 5.44524 5.36866 5.21019 5.13361C4.97514 4.89857 4.78869 4.61952 4.66148 4.31242C4.53428 4.00531 4.4688 3.67616 4.4688 3.34375ZM0.520757 5.33008C0.977788 4.70078 1.85669 4.56367 2.48599 5.0207L3.75865 5.94531C4.70083 6.63086 5.83638 7 7.00005 7C8.16373 7 9.29927 6.63086 10.2415 5.94531L11.5141 5.01719C12.1434 4.56016 13.0223 4.70078 13.4794 5.32656C13.9364 5.95234 13.7958 6.83477 13.17 7.2918L11.8973 8.21992C11.4192 8.56797 10.9094 8.85977 10.3751 9.09883V10.375H3.62505V9.09883C3.09068 8.86328 2.58091 8.56797 2.10279 8.21992L0.830132 7.2918C0.200835 6.83477 0.0637256 5.95586 0.520757 5.32656V5.33008ZM3.67779 11.827L5.80826 13.6902L4.89419 14.998L5.74849 15.8523C6.29693 16.4008 6.29693 17.2902 5.74849 17.8422C5.20005 18.3941 4.3106 18.3906 3.75865 17.8422L2.07115 16.1547C1.58599 15.6695 1.51919 14.9102 1.90943 14.3512L3.67427 11.827H3.67779ZM8.19537 13.6902L10.3258 11.827L12.0907 14.3512C12.4809 14.9102 12.4141 15.6695 11.9325 16.1512L10.245 17.8387C9.69654 18.3871 8.80709 18.3871 8.25513 17.8387C7.70318 17.2902 7.7067 16.4008 8.25513 15.8488L9.10943 14.9945L8.19537 13.6867V13.6902Z" fill="#9333EA"/>
</svg>
