<svg width="18" height="21" viewBox="0 0 18 21" fill="none" xmlns="http://www.w3.org/2000/svg">
<path d="M9.25001 0.5C8.55861 0.5 8.00001 1.05859 8.00001 1.75V2.44922C5.16798 2.89844 3.00001 5.35156 3.00001 8.3125V9.61719C3.00001 11.3906 2.39454 13.1133 1.28907 14.4961L0.707043 15.2266C0.48048 15.5078 0.437512 15.8945 0.593762 16.2188C0.750012 16.543 1.07814 16.75 1.43751 16.75H17.0625C17.4219 16.75 17.75 16.543 17.9063 16.2188C18.0625 15.8945 18.0195 15.5078 17.793 15.2266L17.2109 14.5C16.1055 13.1133 15.5 11.3906 15.5 9.61719V8.3125C15.5 5.35156 13.332 2.89844 10.5 2.44922V1.75C10.5 1.05859 9.94142 0.5 9.25001 0.5ZM9.25001 4.25H9.56251C11.8047 4.25 13.625 6.07031 13.625 8.3125V9.61719C13.625 11.4883 14.168 13.3125 15.1758 14.875H3.32423C4.33204 13.3125 4.87501 11.4883 4.87501 9.61719V8.3125C4.87501 6.07031 6.69532 4.25 8.93751 4.25H9.25001ZM11.75 18H9.25001H6.75001C6.75001 18.6641 7.01173 19.3008 7.48048 19.7695C7.94923 20.2383 8.58595 20.5 9.25001 20.5C9.91407 20.5 10.5508 20.2383 11.0195 19.7695C11.4883 19.3008 11.75 18.6641 11.75 18Z" fill="white"/>
</svg>
