<svg width="12" height="19" viewBox="0 0 12 19" fill="none" xmlns="http://www.w3.org/2000/svg">
<path d="M3.74992 2.5C3.74992 1.90326 3.98697 1.33097 4.40893 0.90901C4.83089 0.487053 5.40318 0.25 5.99992 0.25C6.59666 0.25 7.16895 0.487053 7.59091 0.90901C8.01287 1.33097 8.24992 1.90326 8.24992 2.5C8.24992 3.09674 8.01287 3.66903 7.59091 4.09099C7.16895 4.51295 6.59666 4.75 5.99992 4.75C5.40318 4.75 4.83089 4.51295 4.40893 4.09099C3.98697 3.66903 3.74992 3.09674 3.74992 2.5ZM5.43742 13.75V17.125C5.43742 17.7473 4.93468 18.25 4.31242 18.25C3.69015 18.25 3.18742 17.7473 3.18742 17.125V10.368L2.45265 11.5352C2.12218 12.0625 1.42609 12.2172 0.902263 11.8867C0.378435 11.5562 0.216716 10.8637 0.547185 10.3398L1.94992 8.11445C2.82531 6.71875 4.35461 5.875 5.99992 5.875C7.64523 5.875 9.17453 6.71875 10.0499 8.11094L11.4527 10.3398C11.7831 10.8672 11.6249 11.5598 11.1011 11.8902C10.5773 12.2207 9.88117 12.0625 9.5507 11.5387L8.81242 10.368V17.125C8.81242 17.7473 8.30968 18.25 7.68742 18.25C7.06515 18.25 6.56242 17.7473 6.56242 17.125V13.75H5.43742Z" fill="#DB2777"/>
</svg>
