<svg width="16" height="21" viewBox="0 0 16 21" fill="none" xmlns="http://www.w3.org/2000/svg">
<path d="M3 0.5C1.62109 0.5 0.5 1.62109 0.5 3V18C0.5 19.3789 1.62109 20.5 3 20.5H13C14.3789 20.5 15.5 19.3789 15.5 18V3C15.5 1.62109 14.3789 0.5 13 0.5H3ZM4.25 3H11.75C12.4414 3 13 3.55859 13 4.25V5.5C13 6.19141 12.4414 6.75 11.75 6.75H4.25C3.55859 6.75 3 6.19141 3 5.5V4.25C3 3.55859 3.55859 3 4.25 3ZM5.5 9.25C5.5 9.58152 5.3683 9.89946 5.13388 10.1339C4.89946 10.3683 4.58152 10.5 4.25 10.5C3.91848 10.5 3.60054 10.3683 3.36612 10.1339C3.1317 9.89946 3 9.58152 3 9.25C3 8.91848 3.1317 8.60054 3.36612 8.36612C3.60054 8.1317 3.91848 8 4.25 8C4.58152 8 4.89946 8.1317 5.13388 8.36612C5.3683 8.60054 5.5 8.91848 5.5 9.25ZM4.25 14.25C3.91848 14.25 3.60054 14.1183 3.36612 13.8839C3.1317 13.6495 3 13.3315 3 13C3 12.6685 3.1317 12.3505 3.36612 12.1161C3.60054 11.8817 3.91848 11.75 4.25 11.75C4.58152 11.75 4.89946 11.8817 5.13388 12.1161C5.3683 12.3505 5.5 12.6685 5.5 13C5.5 13.3315 5.3683 13.6495 5.13388 13.8839C4.89946 14.1183 4.58152 14.25 4.25 14.25ZM3 16.75C3 16.0586 3.55859 15.5 4.25 15.5H8C8.69141 15.5 9.25 16.0586 9.25 16.75C9.25 17.4414 8.69141 18 8 18H4.25C3.55859 18 3 17.4414 3 16.75ZM8 10.5C7.66848 10.5 7.35054 10.3683 7.11612 10.1339C6.8817 9.89946 6.75 9.58152 6.75 9.25C6.75 8.91848 6.8817 8.60054 7.11612 8.36612C7.35054 8.1317 7.66848 8 8 8C8.33152 8 8.64946 8.1317 8.88388 8.36612C9.1183 8.60054 9.25 8.91848 9.25 9.25C9.25 9.58152 9.1183 9.89946 8.88388 10.1339C8.64946 10.3683 8.33152 10.5 8 10.5ZM9.25 13C9.25 13.3315 9.1183 13.6495 8.88388 13.8839C8.64946 14.1183 8.33152 14.25 8 14.25C7.66848 14.25 7.35054 14.1183 7.11612 13.8839C6.8817 13.6495 6.75 13.3315 6.75 13C6.75 12.6685 6.8817 12.3505 7.11612 12.1161C7.35054 11.8817 7.66848 11.75 8 11.75C8.33152 11.75 8.64946 11.8817 8.88388 12.1161C9.1183 12.3505 9.25 12.6685 9.25 13ZM11.75 10.5C11.4185 10.5 11.1005 10.3683 10.8661 10.1339C10.6317 9.89946 10.5 9.58152 10.5 9.25C10.5 8.91848 10.6317 8.60054 10.8661 8.36612C11.1005 8.1317 11.4185 8 11.75 8C12.0815 8 12.3995 8.1317 12.6339 8.36612C12.8683 8.60054 13 8.91848 13 9.25C13 9.58152 12.8683 9.89946 12.6339 10.1339C12.3995 10.3683 12.0815 10.5 11.75 10.5ZM13 13C13 13.3315 12.8683 13.6495 12.6339 13.8839C12.3995 14.1183 12.0815 14.25 11.75 14.25C11.4185 14.25 11.1005 14.1183 10.8661 13.8839C10.6317 13.6495 10.5 13.3315 10.5 13C10.5 12.6685 10.6317 12.3505 10.8661 12.1161C11.1005 11.8817 11.4185 11.75 11.75 11.75C12.0815 11.75 12.3995 11.8817 12.6339 12.1161C12.8683 12.3505 13 12.6685 13 13ZM11.75 18C11.4185 18 11.1005 17.8683 10.8661 17.6339C10.6317 17.3995 10.5 17.0815 10.5 16.75C10.5 16.4185 10.6317 16.1005 10.8661 15.8661C11.1005 15.6317 11.4185 15.5 11.75 15.5C12.0815 15.5 12.3995 15.6317 12.6339 15.8661C12.8683 16.1005 13 16.4185 13 16.75C13 17.0815 12.8683 17.3995 12.6339 17.6339C12.3995 17.8683 12.0815 18 11.75 18Z" fill="#3B82F6"/>
</svg>
