<svg width="18" height="21" viewBox="0 0 18 21" fill="none" xmlns="http://www.w3.org/2000/svg">
<path d="M9.93739 2.375V10.5H11.8124V2.79297C12.746 3.33203 13.3749 4.34375 13.3749 5.5V10.5H15.2499V5.5C15.2499 2.73828 13.0116 0.5 10.2499 0.5H7.74989C4.98817 0.5 2.74989 2.73828 2.74989 5.5V10.5H4.62489V5.5C4.62489 4.34375 5.2538 3.33203 6.18739 2.79297V10.5H8.06239V2.375H9.93739ZM2.12489 11.75C1.65223 11.75 1.21864 12.0156 1.0077 12.4414L0.382702 13.6914C0.18739 14.0781 0.210827 14.5391 0.43739 14.9062C0.663952 15.2734 1.0663 15.5 1.49989 15.5V19.25C1.49989 19.9414 2.05848 20.5 2.74989 20.5C3.4413 20.5 3.99989 19.9414 3.99989 19.25V15.5H13.9999V19.25C13.9999 19.9414 14.5585 20.5 15.2499 20.5C15.9413 20.5 16.4999 19.9414 16.4999 19.25V15.5C16.9335 15.5 17.3358 15.2773 17.5624 14.9062C17.789 14.5352 17.8124 14.0781 17.6171 13.6914L16.9921 12.4414C16.7811 12.0156 16.3475 11.75 15.8749 11.75H2.12489Z" fill="#22C55E"/>
</svg>
