<svg width="19" height="16" viewBox="0 0 19 16" fill="none" xmlns="http://www.w3.org/2000/svg">
<path d="M3.65625 0C2.55313 0 1.65625 0.896875 1.65625 2V14C1.10312 14 0.65625 14.4469 0.65625 15C0.65625 15.5531 1.10312 16 1.65625 16H10.6562C11.2094 16 11.6562 15.5531 11.6562 15C11.6562 14.4469 11.2094 14 10.6562 14V9.5H11.1562C11.8469 9.5 12.4062 10.0594 12.4062 10.75V11.75C12.4062 12.9937 13.4125 14 14.6562 14C15.9 14 16.9062 12.9937 16.9062 11.75V7.88438C17.9219 7.56563 18.6562 6.61875 18.6562 5.5V4.5C18.6562 4.225 18.4312 4 18.1562 4H17.6562V2.5C17.6562 2.225 17.4312 2 17.1562 2C16.8813 2 16.6562 2.225 16.6562 2.5V4H15.6562V2.5C15.6562 2.225 15.4312 2 15.1562 2C14.8813 2 14.6562 2.225 14.6562 2.5V4H14.1562C13.8813 4 13.6562 4.225 13.6562 4.5V5.5C13.6562 6.61875 14.3906 7.56563 15.4062 7.88438V11.75C15.4062 12.1656 15.0719 12.5 14.6562 12.5C14.2406 12.5 13.9062 12.1656 13.9062 11.75V10.75C13.9062 9.23125 12.675 8 11.1562 8H10.6562V2C10.6562 0.896875 9.75937 0 8.65625 0H3.65625ZM7.43437 2.58437C7.62187 2.70937 7.7 2.94375 7.63125 3.15625L6.85 5.49687H8.65625C8.86563 5.49687 9.05313 5.62813 9.125 5.82188C9.19687 6.01562 9.14062 6.2375 8.98125 6.375L5.48125 9.375C5.30937 9.52188 5.0625 9.53438 4.87813 9.40938C4.69375 9.28438 4.6125 9.05 4.68125 8.8375L5.4625 6.49687H3.65625C3.44688 6.49687 3.25938 6.36562 3.1875 6.17188C3.11562 5.97813 3.17188 5.75625 3.33125 5.61875L6.83125 2.61875C7.00313 2.47188 7.25 2.45937 7.43437 2.58437Z" fill="#EAB308"/>
</svg>
