<svg width="21" height="17" viewBox="0 0 21 17" fill="none" xmlns="http://www.w3.org/2000/svg">
<path d="M2.92188 0.375C1.68086 0.375 0.671875 1.38398 0.671875 2.625V3.75H20.9219V2.625C20.9219 1.38398 19.9129 0.375 18.6719 0.375H2.92188ZM20.9219 7.125H0.671875V13.875C0.671875 15.116 1.68086 16.125 2.92188 16.125H18.6719C19.9129 16.125 20.9219 15.116 20.9219 13.875V7.125ZM4.60938 11.625H6.85938C7.16875 11.625 7.42188 11.8781 7.42188 12.1875C7.42188 12.4969 7.16875 12.75 6.85938 12.75H4.60938C4.3 12.75 4.04688 12.4969 4.04688 12.1875C4.04688 11.8781 4.3 11.625 4.60938 11.625ZM8.54688 12.1875C8.54688 11.8781 8.8 11.625 9.10938 11.625H13.6094C13.9187 11.625 14.1719 11.8781 14.1719 12.1875C14.1719 12.4969 13.9187 12.75 13.6094 12.75H9.10938C8.8 12.75 8.54688 12.4969 8.54688 12.1875Z" fill="#9CA3AF"/>
</svg>
