<svg width="20" height="21" viewBox="0 0 20 21" fill="none" xmlns="http://www.w3.org/2000/svg">
<path d="M10 20.5C12.6522 20.5 15.1957 19.4464 17.0711 17.5711C18.9464 15.6957 20 13.1522 20 10.5C20 7.84784 18.9464 5.3043 17.0711 3.42893C15.1957 1.55357 12.6522 0.5 10 0.5C7.34784 0.5 4.8043 1.55357 2.92893 3.42893C1.05357 5.3043 0 7.84784 0 10.5C0 13.1522 1.05357 15.6957 2.92893 17.5711C4.8043 19.4464 7.34784 20.5 10 20.5ZM6.83594 7.33594C7.20312 6.96875 7.79687 6.96875 8.16016 7.33594L9.99609 9.17188L11.832 7.33594C12.1992 6.96875 12.793 6.96875 13.1562 7.33594C13.5195 7.70312 13.5234 8.29687 13.1562 8.66016L11.3203 10.4961L13.1562 12.332C13.5234 12.6992 13.5234 13.293 13.1562 13.6562C12.7891 14.0195 12.1953 14.0234 11.832 13.6562L9.99609 11.8203L8.16016 13.6562C7.79297 14.0234 7.19922 14.0234 6.83594 13.6562C6.47266 13.2891 6.46875 12.6953 6.83594 12.332L8.67188 10.4961L6.83594 8.66016C6.46875 8.29297 6.46875 7.69922 6.83594 7.33594Z" fill="#EF4444"/>
</svg>
