<svg width="18" height="16" viewBox="0 0 18 16" fill="none" xmlns="http://www.w3.org/2000/svg">
<path d="M3 0C1.89688 0 1 0.896875 1 2V14C0.446875 14 0 14.4469 0 15C0 15.5531 0.446875 16 1 16H10C10.5531 16 11 15.5531 11 15C11 14.4469 10.5531 14 10 14V9.5H10.5C11.1906 9.5 11.75 10.0594 11.75 10.75V11.75C11.75 12.9937 12.7563 14 14 14C15.2437 14 16.25 12.9937 16.25 11.75V7.88438C17.2656 7.56563 18 6.61875 18 5.5V4.5C18 4.225 17.775 4 17.5 4H17V2.5C17 2.225 16.775 2 16.5 2C16.225 2 16 2.225 16 2.5V4H15V2.5C15 2.225 14.775 2 14.5 2C14.225 2 14 2.225 14 2.5V4H13.5C13.225 4 13 4.225 13 4.5V5.5C13 6.61875 13.7344 7.56563 14.75 7.88438V11.75C14.75 12.1656 14.4156 12.5 14 12.5C13.5844 12.5 13.25 12.1656 13.25 11.75V10.75C13.25 9.23125 12.0188 8 10.5 8H10V2C10 0.896875 9.10312 0 8 0H3ZM6.77812 2.58437C6.96562 2.70937 7.04375 2.94375 6.975 3.15625L6.19375 5.49687H8C8.20938 5.49687 8.39688 5.62813 8.46875 5.82188C8.54062 6.01562 8.48438 6.2375 8.325 6.375L4.825 9.375C4.65312 9.52188 4.40625 9.53438 4.22188 9.40938C4.0375 9.28438 3.95625 9.05 4.025 8.8375L4.80625 6.49687H3C2.79063 6.49687 2.60313 6.36562 2.53125 6.17188C2.45937 5.97813 2.51562 5.75625 2.675 5.61875L6.175 2.61875C6.34688 2.47188 6.59375 2.45937 6.77812 2.58437Z" fill="#3B82F6"/>
</svg>
