<svg width="21" height="19" viewBox="0 0 21 19" fill="none" xmlns="http://www.w3.org/2000/svg">
<path d="M5.60938 4.08594L4.58984 7H16.0664L15.0469 4.08594C14.8711 3.58594 14.3984 3.25 13.8672 3.25H6.78906C6.25781 3.25 5.78516 3.58594 5.60938 4.08594ZM1.875 7.1875L3.25 3.26172C3.77734 1.75781 5.19531 0.75 6.78906 0.75H13.8672C15.4609 0.75 16.8789 1.75781 17.4062 3.26172L18.7812 7.1875C19.6875 7.5625 20.3281 8.45703 20.3281 9.5V15.125V17C20.3281 17.6914 19.7695 18.25 19.0781 18.25H17.8281C17.1367 18.25 16.5781 17.6914 16.5781 17V15.125H4.07812V17C4.07812 17.6914 3.51953 18.25 2.82812 18.25H1.57812C0.886719 18.25 0.328125 17.6914 0.328125 17V15.125V9.5C0.328125 8.45703 0.96875 7.5625 1.875 7.1875ZM5.32812 10.75C5.32812 10.4185 5.19643 10.1005 4.96201 9.86612C4.72759 9.6317 4.40965 9.5 4.07812 9.5C3.7466 9.5 3.42866 9.6317 3.19424 9.86612C2.95982 10.1005 2.82812 10.4185 2.82812 10.75C2.82812 11.0815 2.95982 11.3995 3.19424 11.6339C3.42866 11.8683 3.7466 12 4.07812 12C4.40965 12 4.72759 11.8683 4.96201 11.6339C5.19643 11.3995 5.32812 11.0815 5.32812 10.75ZM16.5781 12C16.9096 12 17.2276 11.8683 17.462 11.6339C17.6964 11.3995 17.8281 11.0815 17.8281 10.75C17.8281 10.4185 17.6964 10.1005 17.462 9.86612C17.2276 9.6317 16.9096 9.5 16.5781 9.5C16.2466 9.5 15.9287 9.6317 15.6942 9.86612C15.4598 10.1005 15.3281 10.4185 15.3281 10.75C15.3281 11.0815 15.4598 11.3995 15.6942 11.6339C15.9287 11.8683 16.2466 12 16.5781 12Z" fill="#2563EB"/>
</svg>
