<svg width="18" height="19" viewBox="0 0 18 19" fill="none" xmlns="http://www.w3.org/2000/svg">
<path d="M9 0.25C11.3869 0.25 13.6761 1.19821 15.364 2.88604C17.0518 4.57387 18 6.86305 18 9.25C18 11.6369 17.0518 13.9261 15.364 15.614C13.6761 17.3018 11.3869 18.25 9 18.25C6.61305 18.25 4.32387 17.3018 2.63604 15.614C0.948212 13.9261 0 11.6369 0 9.25C0 6.86305 0.948212 4.57387 2.63604 2.88604C4.32387 1.19821 6.61305 0.25 9 0.25ZM8.15625 4.46875V9.25C8.15625 9.53125 8.29688 9.79492 8.53242 9.95312L11.9074 12.2031C12.2941 12.4633 12.818 12.3578 13.0781 11.9676C13.3383 11.5773 13.2328 11.057 12.8426 10.7969L9.84375 8.8V4.46875C9.84375 4.00117 9.46758 3.625 9 3.625C8.53242 3.625 8.15625 4.00117 8.15625 4.46875Z" fill="#2563EB"/>
</svg>
