<svg width="17" height="16" viewBox="0 0 17 16" fill="none" xmlns="http://www.w3.org/2000/svg">
<path d="M9.09375 1C9.09375 0.446875 8.64688 0 8.09375 0C7.54063 0 7.09375 0.446875 7.09375 1V8.58438L4.8 6.29063C4.40938 5.9 3.775 5.9 3.38438 6.29063C2.99375 6.68125 2.99375 7.31563 3.38438 7.70625L7.38438 11.7063C7.775 12.0969 8.40938 12.0969 8.8 11.7063L12.8 7.70625C13.1906 7.31563 13.1906 6.68125 12.8 6.29063C12.4094 5.9 11.775 5.9 11.3844 6.29063L9.09375 8.58438V1ZM2.09375 11C0.990625 11 0.09375 11.8969 0.09375 13V14C0.09375 15.1031 0.990625 16 2.09375 16H14.0938C15.1969 16 16.0938 15.1031 16.0938 14V13C16.0938 11.8969 15.1969 11 14.0938 11H10.9219L9.50625 12.4156C8.725 13.1969 7.45937 13.1969 6.67812 12.4156L5.26562 11H2.09375ZM13.5938 12.75C13.7927 12.75 13.9834 12.829 14.1241 12.9697C14.2647 13.1103 14.3438 13.3011 14.3438 13.5C14.3438 13.6989 14.2647 13.8897 14.1241 14.0303C13.9834 14.171 13.7927 14.25 13.5938 14.25C13.3948 14.25 13.2041 14.171 13.0634 14.0303C12.9228 13.8897 12.8438 13.6989 12.8438 13.5C12.8438 13.3011 12.9228 13.1103 13.0634 12.9697C13.2041 12.829 13.3948 12.75 13.5938 12.75Z" fill="#2563EB"/>
</svg>
