<svg width="12" height="13" viewBox="0 0 12 13" fill="none" xmlns="http://www.w3.org/2000/svg">
<path d="M3.84062 0.914844L3.67188 1.25H1.42188C1.00703 1.25 0.671875 1.58516 0.671875 2C0.671875 2.41484 1.00703 2.75 1.42188 2.75H10.4219C10.8367 2.75 11.1719 2.41484 11.1719 2C11.1719 1.58516 10.8367 1.25 10.4219 1.25H8.17188L8.00312 0.914844C7.87656 0.659375 7.61641 0.5 7.33281 0.5H4.51094C4.22734 0.5 3.96719 0.659375 3.84062 0.914844ZM10.4219 3.5H1.42188L1.91875 11.4453C1.95625 12.0383 2.44844 12.5 3.04141 12.5H8.80234C9.39531 12.5 9.8875 12.0383 9.925 11.4453L10.4219 3.5Z" fill="#F87171"/>
</svg>
