<svg width="17" height="17" viewBox="0 0 17 17" fill="none" xmlns="http://www.w3.org/2000/svg">
<g clip-path="url(#clip0_18_885)">
<path d="M7.30937 3.80938L11.1469 7.64687C11.3719 7.87187 11.5 8.18125 11.5 8.5C11.5 8.81875 11.3719 9.12812 11.1469 9.35312L7.30937 13.1906C7.10938 13.3906 6.84062 13.5 6.55937 13.5C5.975 13.5 5.5 13.025 5.5 12.4406V10.5H1.5C0.946875 10.5 0.5 10.0531 0.5 9.5V7.5C0.5 6.94688 0.946875 6.5 1.5 6.5H5.5V4.55937C5.5 3.975 5.975 3.5 6.55937 3.5C6.84062 3.5 7.10938 3.6125 7.30937 3.80938ZM11.5 13.5H13.5C14.0531 13.5 14.5 13.0531 14.5 12.5V4.5C14.5 3.94688 14.0531 3.5 13.5 3.5H11.5C10.9469 3.5 10.5 3.05313 10.5 2.5C10.5 1.94687 10.9469 1.5 11.5 1.5H13.5C15.1562 1.5 16.5 2.84375 16.5 4.5V12.5C16.5 14.1562 15.1562 15.5 13.5 15.5H11.5C10.9469 15.5 10.5 15.0531 10.5 14.5C10.5 13.9469 10.9469 13.5 11.5 13.5Z" fill="white"/>
</g>
<defs>
<clipPath id="clip0_18_885">
<path d="M0.5 0.5H16.5V16.5H0.5V0.5Z" fill="white"/>
</clipPath>
</defs>
</svg>
