<svg width="21" height="21" viewBox="0 0 21 21" fill="none" xmlns="http://www.w3.org/2000/svg">
<g clip-path="url(#clip0_100_3798)">
<path d="M7.46875 2.6875V4.25H13.7188V2.6875C13.7188 2.51562 13.5781 2.375 13.4062 2.375H7.78125C7.60938 2.375 7.46875 2.51562 7.46875 2.6875ZM5.59375 4.25V2.6875C5.59375 1.48047 6.57422 0.5 7.78125 0.5H13.4062C14.6133 0.5 15.5938 1.48047 15.5938 2.6875V4.25V5.5V19.25H5.59375V5.5V4.25ZM3.09375 4.25H4.34375V19.25H3.09375C1.71484 19.25 0.59375 18.1289 0.59375 16.75V6.75C0.59375 5.37109 1.71484 4.25 3.09375 4.25ZM18.0938 19.25H16.8438V4.25H18.0938C19.4727 4.25 20.5938 5.37109 20.5938 6.75V16.75C20.5938 18.1289 19.4727 19.25 18.0938 19.25Z" fill="white"/>
</g>
<defs>
<clipPath id="clip0_100_3798">
<path d="M0.59375 0.5H20.5938V20.5H0.59375V0.5Z" fill="white"/>
</clipPath>
</defs>
</svg>
