<svg width="15" height="13" viewBox="0 0 15 13" fill="none" xmlns="http://www.w3.org/2000/svg">
<path d="M2.6875 0.625C1.72227 0.625 0.9375 1.40977 0.9375 2.375V11.125C0.9375 12.0902 1.72227 12.875 2.6875 12.875H13.1875C14.1527 12.875 14.9375 12.0902 14.9375 11.125V5C14.9375 4.03477 14.1527 3.25 13.1875 3.25H3.125C2.88437 3.25 2.6875 3.05312 2.6875 2.8125C2.6875 2.57187 2.88437 2.375 3.125 2.375H13.1875C13.6715 2.375 14.0625 1.98398 14.0625 1.5C14.0625 1.01602 13.6715 0.625 13.1875 0.625H2.6875ZM12.3125 7.1875C12.5446 7.1875 12.7671 7.27969 12.9312 7.44378C13.0953 7.60788 13.1875 7.83044 13.1875 8.0625C13.1875 8.29456 13.0953 8.51712 12.9312 8.68122C12.7671 8.84531 12.5446 8.9375 12.3125 8.9375C12.0804 8.9375 11.8579 8.84531 11.6938 8.68122C11.5297 8.51712 11.4375 8.29456 11.4375 8.0625C11.4375 7.83044 11.5297 7.60788 11.6938 7.44378C11.8579 7.27969 12.0804 7.1875 12.3125 7.1875Z" fill="#6B7280"/>
</svg>
