<svg width="21" height="17" viewBox="0 0 21 17" fill="none" xmlns="http://www.w3.org/2000/svg">
<path d="M10.2188 0.375C7.37822 0.375 5.10361 1.66875 3.44775 3.20859C1.80244 4.73438 0.702051 6.5625 0.181738 7.81758C0.0657227 8.09531 0.0657227 8.40469 0.181738 8.68242C0.702051 9.9375 1.80244 11.7656 3.44775 13.2914C5.10361 14.8313 7.37822 16.125 10.2188 16.125C13.0595 16.125 15.3341 14.8313 16.9899 13.2914C18.6353 11.7621 19.7356 9.9375 20.2595 8.68242C20.3755 8.40469 20.3755 8.09531 20.2595 7.81758C19.7356 6.5625 18.6353 4.73438 16.9899 3.20859C15.3341 1.66875 13.0595 0.375 10.2188 0.375ZM5.15635 8.25C5.15635 6.90734 5.68972 5.61967 6.63912 4.67027C7.58852 3.72087 8.87619 3.1875 10.2188 3.1875C11.5615 3.1875 12.8492 3.72087 13.7986 4.67027C14.748 5.61967 15.2813 6.90734 15.2813 8.25C15.2813 9.59266 14.748 10.8803 13.7986 11.8297C12.8492 12.7791 11.5615 13.3125 10.2188 13.3125C8.87619 13.3125 7.58852 12.7791 6.63912 11.8297C5.68972 10.8803 5.15635 9.59266 5.15635 8.25ZM10.2188 6C10.2188 7.24102 9.20986 8.25 7.96885 8.25C7.71924 8.25 7.48018 8.20781 7.25518 8.13398C7.06182 8.0707 6.83682 8.19023 6.84385 8.39414C6.85439 8.63672 6.88955 8.8793 6.95635 9.12187C7.43799 10.9219 9.29072 11.9906 11.0907 11.509C12.8907 11.0273 13.9595 9.17461 13.4778 7.37461C13.0876 5.91563 11.7974 4.93477 10.363 4.875C10.1591 4.86797 10.0396 5.08945 10.1028 5.28633C10.1767 5.51133 10.2188 5.75039 10.2188 6Z" fill="#9CA3AF"/>
</svg>
