<svg width="25" height="22" viewBox="0 0 25 22" fill="none" xmlns="http://www.w3.org/2000/svg">
<path d="M3.5 0.5C1.84531 0.5 0.5 1.84531 0.5 3.5V18.5C0.5 20.1547 1.84531 21.5 3.5 21.5H21.5C23.1547 21.5 24.5 20.1547 24.5 18.5V8C24.5 6.34531 23.1547 5 21.5 5H4.25C3.8375 5 3.5 4.6625 3.5 4.25C3.5 3.8375 3.8375 3.5 4.25 3.5H21.5C22.3297 3.5 23 2.82969 23 2C23 1.17031 22.3297 0.5 21.5 0.5H3.5ZM20 11.75C20.3978 11.75 20.7794 11.908 21.0607 12.1893C21.342 12.4706 21.5 12.8522 21.5 13.25C21.5 13.6478 21.342 14.0294 21.0607 14.3107C20.7794 14.592 20.3978 14.75 20 14.75C19.6022 14.75 19.2206 14.592 18.9393 14.3107C18.658 14.0294 18.5 13.6478 18.5 13.25C18.5 12.8522 18.658 12.4706 18.9393 12.1893C19.2206 11.908 19.6022 11.75 20 11.75Z" fill="#9333EA"/>
</svg>
