<svg width="14" height="13" viewBox="0 0 14 13" fill="none" xmlns="http://www.w3.org/2000/svg">
<path d="M1.75 0.625C0.784766 0.625 0 1.40977 0 2.375V11.125C0 12.0902 0.784766 12.875 1.75 12.875H12.25C13.2152 12.875 14 12.0902 14 11.125V5C14 4.03477 13.2152 3.25 12.25 3.25H2.1875C1.94687 3.25 1.75 3.05312 1.75 2.8125C1.75 2.57187 1.94687 2.375 2.1875 2.375H12.25C12.734 2.375 13.125 1.98398 13.125 1.5C13.125 1.01602 12.734 0.625 12.25 0.625H1.75ZM11.375 7.1875C11.6071 7.1875 11.8296 7.27969 11.9937 7.44378C12.1578 7.60788 12.25 7.83044 12.25 8.0625C12.25 8.29456 12.1578 8.51712 11.9937 8.68122C11.8296 8.84531 11.6071 8.9375 11.375 8.9375C11.1429 8.9375 10.9204 8.84531 10.7563 8.68122C10.5922 8.51712 10.5 8.29456 10.5 8.0625C10.5 7.83044 10.5922 7.60788 10.7563 7.44378C10.9204 7.27969 11.1429 7.1875 11.375 7.1875Z" fill="white"/>
</svg>
