<svg width="21" height="14" viewBox="0 0 21 14" fill="none" xmlns="http://www.w3.org/2000/svg">
<path d="M2.34981 5.34062C4.50606 3.27187 7.43106 2 10.6561 2C13.8811 2 16.8061 3.27187 18.9623 5.34062C19.3623 5.72187 19.9936 5.70937 20.3748 5.3125C20.7561 4.91563 20.7436 4.28125 20.3467 3.9C17.8342 1.48438 14.4186 0 10.6561 0C6.89356 0 3.47793 1.48438 0.962308 3.89687C0.565433 4.28125 0.552933 4.9125 0.934183 5.3125C1.31543 5.7125 1.94981 5.725 2.34668 5.34062H2.34981ZM10.6561 7C12.4311 7 14.0498 7.65938 15.2873 8.75C15.7029 9.11563 16.3342 9.075 16.6998 8.6625C17.0654 8.25 17.0248 7.61562 16.6123 7.25C15.0248 5.85 12.9373 5 10.6561 5C8.37481 5 6.28731 5.85 4.70293 7.25C4.28731 7.61562 4.24981 8.24688 4.61543 8.6625C4.98106 9.07812 5.61231 9.11563 6.02793 8.75C7.26231 7.65938 8.88106 7 10.6592 7H10.6561ZM12.6561 12C12.6561 11.4696 12.4453 10.9609 12.0703 10.5858C11.6952 10.2107 11.1865 10 10.6561 10C10.1256 10 9.61692 10.2107 9.24185 10.5858C8.86677 10.9609 8.65606 11.4696 8.65606 12C8.65606 12.5304 8.86677 13.0391 9.24185 13.4142C9.61692 13.7893 10.1256 14 10.6561 14C11.1865 14 11.6952 13.7893 12.0703 13.4142C12.4453 13.0391 12.6561 12.5304 12.6561 12Z" fill="#22C55E"/>
</svg>
