<svg width="17" height="16" viewBox="0 0 17 16" fill="none" xmlns="http://www.w3.org/2000/svg">
<path d="M8.65625 16C10.778 16 12.8128 15.1571 14.3131 13.6569C15.8134 12.1566 16.6562 10.1217 16.6562 8C16.6562 5.87827 15.8134 3.84344 14.3131 2.34315C12.8128 0.842855 10.778 0 8.65625 0C6.53452 0 4.49969 0.842855 2.9994 2.34315C1.4991 3.84344 0.65625 5.87827 0.65625 8C0.65625 10.1217 1.4991 12.1566 2.9994 13.6569C4.49969 15.1571 6.53452 16 8.65625 16ZM5.9625 5.16563C6.20937 4.46875 6.87188 4 7.6125 4H9.43437C10.525 4 11.4062 4.88438 11.4062 5.97188C11.4062 6.67813 11.0281 7.33125 10.4156 7.68437L9.40625 8.2625C9.4 8.66875 9.06563 9 8.65625 9C8.24062 9 7.90625 8.66562 7.90625 8.25V7.82812C7.90625 7.55937 8.05 7.3125 8.28438 7.17812L9.66875 6.38438C9.81563 6.3 9.90625 6.14375 9.90625 5.975C9.90625 5.7125 9.69375 5.50313 9.43437 5.50313H7.6125C7.50625 5.50313 7.4125 5.56875 7.37813 5.66875L7.36562 5.70625C7.22813 6.09688 6.79688 6.3 6.40938 6.1625C6.02188 6.025 5.81563 5.59375 5.95312 5.20625L5.96562 5.16875L5.9625 5.16563ZM7.65625 11C7.65625 10.7348 7.76161 10.4804 7.94914 10.2929C8.13668 10.1054 8.39103 10 8.65625 10C8.92147 10 9.17582 10.1054 9.36336 10.2929C9.55089 10.4804 9.65625 10.7348 9.65625 11C9.65625 11.2652 9.55089 11.5196 9.36336 11.7071C9.17582 11.8946 8.92147 12 8.65625 12C8.39103 12 8.13668 11.8946 7.94914 11.7071C7.76161 11.5196 7.65625 11.2652 7.65625 11Z" fill="#9CA3AF"/>
</svg>
