<svg width="31" height="22" viewBox="0 0 31 22" fill="none" xmlns="http://www.w3.org/2000/svg">
<path d="M3.5252 8.51094C6.75958 5.40781 11.1471 3.5 15.9846 3.5C20.8221 3.5 25.2096 5.40781 28.4439 8.51094C29.0439 9.08281 29.9908 9.06406 30.5627 8.46875C31.1346 7.87344 31.1158 6.92188 30.5205 6.35C26.7518 2.72656 21.6283 0.5 15.9846 0.5C10.3408 0.5 5.21739 2.72656 1.44395 6.34531C0.848638 6.92188 0.829888 7.86875 1.40176 8.46875C1.97364 9.06875 2.9252 9.0875 3.52051 8.51094H3.5252ZM15.9846 11C18.6471 11 21.0752 11.9891 22.9315 13.625C23.5549 14.1734 24.5018 14.1125 25.0502 13.4938C25.5986 12.875 25.5377 11.9234 24.919 11.375C22.5377 9.275 19.4065 8 15.9846 8C12.5627 8 9.43145 9.275 7.05489 11.375C6.43145 11.9234 6.3752 12.8703 6.92364 13.4938C7.47208 14.1172 8.41895 14.1734 9.04239 13.625C10.894 11.9891 13.3221 11 15.9893 11H15.9846ZM18.9846 18.5C18.9846 17.7044 18.6685 16.9413 18.1059 16.3787C17.5433 15.8161 16.7802 15.5 15.9846 15.5C15.1889 15.5 14.4259 15.8161 13.8633 16.3787C13.3006 16.9413 12.9846 17.7044 12.9846 18.5C12.9846 19.2956 13.3006 20.0587 13.8633 20.6213C14.4259 21.1839 15.1889 21.5 15.9846 21.5C16.7802 21.5 17.5433 21.1839 18.1059 20.6213C18.6685 20.0587 18.9846 19.2956 18.9846 18.5Z" fill="url(#paint0_linear_261_2307)"/>
<defs>
<linearGradient id="paint0_linear_261_2307" x1="14.8158" y1="0.5" x2="16.7196" y2="24.2402" gradientUnits="userSpaceOnUse">
<stop stop-color="#6B46C1"/>
<stop offset="1" stop-color="#3B82F6"/>
</linearGradient>
</defs>
</svg>
