<svg width="31" height="22" viewBox="0 0 31 22" fill="none" xmlns="http://www.w3.org/2000/svg">
<path d="M5.15625 2C5.15625 1.17031 5.82656 0.5 6.65625 0.5H21.6562H24.6562C27.9703 0.5 30.6562 3.18594 30.6562 6.5C30.6562 9.81406 27.9703 12.5 24.6562 12.5H23.1562C23.1562 14.9844 21.1406 17 18.6562 17H9.65625C7.17188 17 5.15625 14.9844 5.15625 12.5V2ZM23.1562 9.5H24.6562C26.3109 9.5 27.6562 8.15469 27.6562 6.5C27.6562 4.84531 26.3109 3.5 24.6562 3.5H23.1562V9.5ZM2.15625 18.5H26.1562C26.9859 18.5 27.6562 19.1703 27.6562 20C27.6562 20.8297 26.9859 21.5 26.1562 21.5H2.15625C1.32656 21.5 0.65625 20.8297 0.65625 20C0.65625 19.1703 1.32656 18.5 2.15625 18.5Z" fill="url(#paint0_linear_261_2310)"/>
<defs>
<linearGradient id="paint0_linear_261_2310" x1="14.4896" y1="0.5" x2="16.3931" y2="24.2402" gradientUnits="userSpaceOnUse">
<stop stop-color="#6B46C1"/>
<stop offset="1" stop-color="#3B82F6"/>
</linearGradient>
</defs>
</svg>
