<svg width="25" height="24" viewBox="0 0 25 24" fill="none" xmlns="http://www.w3.org/2000/svg">
<path d="M3.5625 3.51562L1.96875 1.92188C1.26094 1.21406 0.046875 1.71563 0.046875 2.71406V7.875C0.046875 8.49844 0.548437 9 1.17188 9H6.33281C7.33594 9 7.8375 7.78594 7.12969 7.07812L5.68594 5.63437C7.3125 4.00781 9.5625 3 12.0469 3C17.0156 3 21.0469 7.03125 21.0469 12C21.0469 16.9688 17.0156 21 12.0469 21C10.1344 21 8.3625 20.4047 6.90469 19.3875C6.225 18.9141 5.29219 19.0781 4.81406 19.7578C4.33594 20.4375 4.50469 21.3703 5.18437 21.8484C7.13437 23.2031 9.50156 24 12.0469 24C18.675 24 24.0469 18.6281 24.0469 12C24.0469 5.37188 18.675 0 12.0469 0C8.73281 0 5.73281 1.34531 3.5625 3.51562ZM12.0469 6C11.4234 6 10.9219 6.50156 10.9219 7.125V12C10.9219 12.3 11.0391 12.5859 11.25 12.7969L14.625 16.1719C15.0656 16.6125 15.7781 16.6125 16.2141 16.1719C16.65 15.7312 16.6547 15.0188 16.2141 14.5828L13.1672 11.5359V7.125C13.1672 6.50156 12.6656 6 12.0422 6H12.0469Z" fill="white"/>
</svg>
