<svg width="40" height="40" viewBox="0 0 40 40" fill="none" xmlns="http://www.w3.org/2000/svg">
<g clip-path="url(#clip0_106_6157)">
<path d="M8.83336 13H0V40H8.83336V13Z" fill="#E8EAEA"/>
<path d="M40.0004 13H31.167V40H40.0004V13Z" fill="#E8EAEA"/>
<path d="M0 13.4999H40C40 12.4999 39.1666 11.6665 38.1666 11.6665H1.83336C0.833359 11.6665 0 12.4999 0 13.4999Z" fill="#FFA679"/>
<path d="M31.1664 8.5H8.83301V40H31.1664V8.5Z" fill="#F2F2F2"/>
<path d="M32.4169 6.6665H7.58363C7.08363 6.6665 6.66699 7.08314 6.66699 7.58314C6.66699 8.08314 7.08363 8.49986 7.58363 8.49986H32.417C32.917 8.49986 33.3336 8.08322 33.3336 7.58322C33.3336 7.08322 32.9169 6.6665 32.4169 6.6665Z" fill="#FFA679"/>
<path d="M6.33336 15.5H2.5V19.75H6.33336V15.5Z" fill="#42A8C3"/>
<path d="M6.33336 21.417H2.5V25.667H6.33336V21.417Z" fill="#42A8C3"/>
<path d="M6.33336 27.3335H2.5V31.5835H6.33336V27.3335Z" fill="#42A8C3"/>
<path d="M6.33336 33.25H2.5V37.5H6.33336V33.25Z" fill="#42A8C3"/>
<path d="M37.5004 15.5H33.667V19.75H37.5004V15.5Z" fill="#42A8C3"/>
<path d="M37.5004 21.417H33.667V25.667H37.5004V21.417Z" fill="#42A8C3"/>
<path d="M37.5004 27.3335H33.667V31.5835H37.5004V27.3335Z" fill="#42A8C3"/>
<path d="M37.5004 33.25H33.667V37.5H37.5004V33.25Z" fill="#42A8C3"/>
<path d="M15.4997 22.9165H11.333V27.1665H15.4997V22.9165Z" fill="#8ECBDB"/>
<path d="M24.4166 29.5835H15.5V40.0001H24.4166V29.5835Z" fill="#056D8A"/>
<path d="M40 38.25H0V40H40V38.25Z" fill="#ACB3BA"/>
<path d="M15.4997 11.0835H11.333V15.3335H15.4997V11.0835Z" fill="#8ECBDB"/>
<path d="M15.4997 17.0005H11.333V21.2505H15.4997V17.0005Z" fill="#8ECBDB"/>
<path d="M22.0826 11.0835H17.916V15.3335H22.0826V11.0835Z" fill="#8ECBDB"/>
<path d="M22.0826 17.0005H17.916V21.2505H22.0826V17.0005Z" fill="#8ECBDB"/>
<path d="M22.0826 22.917H17.916V27.167H22.0826V22.917Z" fill="#8ECBDB"/>
<path d="M28.6666 11.0835H24.5V15.3335H28.6666V11.0835Z" fill="#8ECBDB"/>
<path d="M28.6666 17.0005H24.5V21.2505H28.6666V17.0005Z" fill="#8ECBDB"/>
<path d="M28.6666 22.917H24.5V27.167H28.6666V22.917Z" fill="#8ECBDB"/>
</g>
<defs>
<clipPath id="clip0_106_6157">
<rect width="40" height="40" fill="white"/>
</clipPath>
</defs>
</svg>
