<svg width="26" height="21" viewBox="0 0 26 21" fill="none" xmlns="http://www.w3.org/2000/svg">
<g clip-path="url(#clip0_100_3818)">
<path d="M2.14062 1.75C2.83203 1.75 3.39062 2.30859 3.39062 3V13H12.1406V6.75C12.1406 6.05859 12.6992 5.5 13.3906 5.5H22.1406C24.2109 5.5 25.8906 7.17969 25.8906 9.25V18C25.8906 18.6914 25.332 19.25 24.6406 19.25C23.9492 19.25 23.3906 18.6914 23.3906 18V16.75H14.6406H13.3906H3.39062V18C3.39062 18.6914 2.83203 19.25 2.14062 19.25C1.44922 19.25 0.890625 18.6914 0.890625 18V3C0.890625 2.30859 1.44922 1.75 2.14062 1.75ZM7.76562 5.5C8.59443 5.5 9.38928 5.82924 9.97533 6.41529C10.5614 7.00134 10.8906 7.7962 10.8906 8.625C10.8906 9.4538 10.5614 10.2487 9.97533 10.8347C9.38928 11.4208 8.59443 11.75 7.76562 11.75C6.93682 11.75 6.14197 11.4208 5.55592 10.8347C4.96987 10.2487 4.64062 9.4538 4.64062 8.625C4.64062 7.7962 4.96987 7.00134 5.55592 6.41529C6.14197 5.82924 6.93682 5.5 7.76562 5.5Z" fill="white"/>
</g>
<defs>
<clipPath id="clip0_100_3818">
<path d="M0.890625 0.5H25.8906V20.5H0.890625V0.5Z" fill="white"/>
</clipPath>
</defs>
</svg>
