<svg width="16" height="21" viewBox="0 0 16 21" fill="none" xmlns="http://www.w3.org/2000/svg">
<path d="M1.04688 0.586258C1.37891 0.433915 1.76953 0.488602 2.04688 0.726883L3.625 2.07845L5.20312 0.726883C5.55469 0.426102 6.07422 0.426102 6.42188 0.726883L8 2.07845L9.57812 0.726883C9.92969 0.426102 10.4492 0.426102 10.7969 0.726883L12.375 2.07845L13.9531 0.726883C14.2305 0.488602 14.6211 0.433915 14.9531 0.586258C15.2852 0.738602 15.5 1.07063 15.5 1.43782V19.5628C15.5 19.93 15.2852 20.262 14.9531 20.4144C14.6211 20.5667 14.2305 20.512 13.9531 20.2738L12.375 18.9222L10.7969 20.2738C10.4453 20.5745 9.92578 20.5745 9.57812 20.2738L8 18.9222L6.42188 20.2738C6.07031 20.5745 5.55078 20.5745 5.20312 20.2738L3.625 18.9222L2.04688 20.2738C1.76953 20.512 1.37891 20.5667 1.04688 20.4144C0.714844 20.262 0.5 19.93 0.5 19.5628V1.43782C0.5 1.07063 0.714844 0.738602 1.04688 0.586258ZM4.25 6.12532C3.90625 6.12532 3.625 6.40657 3.625 6.75032C3.625 7.09407 3.90625 7.37532 4.25 7.37532H11.75C12.0938 7.37532 12.375 7.09407 12.375 6.75032C12.375 6.40657 12.0938 6.12532 11.75 6.12532H4.25ZM3.625 14.2503C3.625 14.5941 3.90625 14.8753 4.25 14.8753H11.75C12.0938 14.8753 12.375 14.5941 12.375 14.2503C12.375 13.9066 12.0938 13.6253 11.75 13.6253H4.25C3.90625 13.6253 3.625 13.9066 3.625 14.2503ZM4.25 9.87532C3.90625 9.87532 3.625 10.1566 3.625 10.5003C3.625 10.8441 3.90625 11.1253 4.25 11.1253H11.75C12.0938 11.1253 12.375 10.8441 12.375 10.5003C12.375 10.1566 12.0938 9.87532 11.75 9.87532H4.25Z" fill="white"/>
</svg>
