<svg width="26" height="21" viewBox="0 0 26 21" fill="none" xmlns="http://www.w3.org/2000/svg">
<g clip-path="url(#clip0_100_3808)">
<path d="M2.35938 0.5C1.32422 0.5 0.484375 1.33984 0.484375 2.375V14.875C0.484375 15.9102 1.32422 16.75 2.35938 16.75H2.98438C2.98438 18.8203 4.66406 20.5 6.73438 20.5C8.80469 20.5 10.4844 18.8203 10.4844 16.75H15.4844C15.4844 18.8203 17.1641 20.5 19.2344 20.5C21.3047 20.5 22.9844 18.8203 22.9844 16.75H24.2344C24.9258 16.75 25.4844 16.1914 25.4844 15.5C25.4844 14.8086 24.9258 14.25 24.2344 14.25V11.75V10.5V9.76953C24.2344 9.10547 23.9727 8.46875 23.5039 8L20.4844 4.98047C20.0156 4.51172 19.3789 4.25 18.7148 4.25H16.7344V2.375C16.7344 1.33984 15.8945 0.5 14.8594 0.5H2.35938ZM16.7344 6.75H18.7148L21.7344 9.76953V10.5H16.7344V6.75ZM4.85938 16.75C4.85938 16.2527 5.05692 15.7758 5.40855 15.4242C5.76018 15.0725 6.23709 14.875 6.73438 14.875C7.23166 14.875 7.70857 15.0725 8.0602 15.4242C8.41183 15.7758 8.60938 16.2527 8.60938 16.75C8.60938 17.2473 8.41183 17.7242 8.0602 18.0758C7.70857 18.4275 7.23166 18.625 6.73438 18.625C6.23709 18.625 5.76018 18.4275 5.40855 18.0758C5.05692 17.7242 4.85938 17.2473 4.85938 16.75ZM19.2344 14.875C19.7317 14.875 20.2086 15.0725 20.5602 15.4242C20.9118 15.7758 21.1094 16.2527 21.1094 16.75C21.1094 17.2473 20.9118 17.7242 20.5602 18.0758C20.2086 18.4275 19.7317 18.625 19.2344 18.625C18.7371 18.625 18.2602 18.4275 17.9086 18.0758C17.5569 17.7242 17.3594 17.2473 17.3594 16.75C17.3594 16.2527 17.5569 15.7758 17.9086 15.4242C18.2602 15.0725 18.7371 14.875 19.2344 14.875Z" fill="white"/>
</g>
<defs>
<clipPath id="clip0_100_3808">
<path d="M0.484375 0.5H25.4844V20.5H0.484375V0.5Z" fill="white"/>
</clipPath>
</defs>
</svg>
