<svg width="36" height="36" viewBox="0 0 36 36" fill="none" xmlns="http://www.w3.org/2000/svg">
<path d="M15.1875 0H6.1875C5.60531 0 5.13281 0.4725 5.13281 1.05469V6.70289C5.13281 7.28578 5.60531 7.75758 6.1875 7.75758H15.1875C15.7697 7.75758 16.2422 7.28578 16.2422 6.70289V1.05469C16.2422 0.4725 15.7697 0 15.1875 0ZM14.1328 5.6482L10.6588 7.26539L7.24219 5.6482V2.10938H14.1328V5.6482Z" fill="#525C74"/>
<path d="M16.2427 1.05469V6.70289C16.2427 7.28578 15.7702 7.75758 15.188 7.75758H10.6592V7.3357L14.1333 5.6482V2.10938H10.6592V0H15.188C15.7702 0 16.2427 0.4725 16.2427 1.05469Z" fill="#444E66"/>
<path d="M20.3203 9.56268L19.8984 32.4142C19.8984 34.4378 18.6173 34.6642 16.5938 34.6642L10.1672 36.0002H7.19578L6.25781 35.6486L5.08641 36.0002H3.67031C1.64672 36.0002 0 34.3535 0 32.3299V12.2767L0.421875 11.2502L0 10.1674V9.31799C0 7.29439 1.64672 5.64697 3.67031 5.64697H5.13L6.11719 6.3283L7.24219 5.64697H10.1672L13.9922 7.17205L17.5078 6.39861C19.0388 11.054 20.314 7.59906 20.3203 9.56268Z" fill="#68B9CF"/>
<path d="M21.318 9.31757V32.3293C21.318 34.353 19.6711 35.9999 17.6474 35.9999H10.6592V6.27979L11.7886 5.64697H17.6475C19.6712 5.64697 21.318 7.29376 21.318 9.31757Z" fill="#68B9CF"/>
<path d="M21.3173 10.1674H12.2766V5.64697H10.1672V10.1674H7.23291L7.23938 5.64697H5.13L5.12353 10.1674H0V12.2767H5.12051L5.08641 36.0002H7.19578L7.22988 12.2767H10.1672V36.0002H12.2766V12.2767H21.3173V10.1674Z" fill="#4AB7D3"/>
<path d="M21.318 10.1646H11.7886V5.64697H10.6592V35.9999H11.7886V12.2822H21.318V10.1646Z" fill="#42A8C3"/>
<path d="M26.1652 14.6826H19.9985C18.0009 14.6826 16.376 16.3075 16.376 18.3052V20.2591C16.376 20.8435 16.8503 21.3179 17.4348 21.3179H28.7289C29.3134 21.3179 29.7877 20.8436 29.7877 20.2591V18.3052C29.7877 16.3075 28.1628 14.6826 26.1652 14.6826ZM27.6701 19.2003L23.0818 20.2549L18.4936 19.2003V18.3052C18.4936 17.4751 19.1684 16.8002 19.9985 16.8002H26.1652C26.9953 16.8002 27.6701 17.475 27.6701 18.3052V19.2003H27.6701Z" fill="#525C74"/>
<path d="M29.7879 18.3048V20.2587C29.7879 20.8431 29.3136 21.3175 28.7291 21.3175H23.082V20.5358L27.6703 19.1998V18.3048C27.6703 17.4747 26.9954 16.7998 26.1653 16.7998H23.082V14.6821H26.1653C28.163 14.6822 29.7879 16.3071 29.7879 18.3048Z" fill="#444E66"/>
<path d="M36.0003 22.2411V32.9592C36.0003 34.6357 34.6358 36.0002 32.9594 36.0002H13.206C11.5295 36.0002 10.165 34.6357 10.165 32.9592V22.2411C10.165 20.5647 11.5295 19.2002 13.206 19.2002H32.9594C34.6358 19.2002 36.0003 20.5646 36.0003 22.2411Z" fill="#FFCAAF"/>
<path d="M35.9997 22.2411V32.9592C35.9997 34.6357 34.6352 36.0002 32.9588 36.0002H23.082V19.2002H32.9588C34.6352 19.2002 35.9997 20.5646 35.9997 22.2411Z" fill="#FFBFAB"/>
</svg>
