<svg width="25" height="24" viewBox="0 0 25 24" fill="none" xmlns="http://www.w3.org/2000/svg">
<path d="M11.9094 0.121973L1.40943 4.62197C0.75318 4.90322 0.387555 5.60635 0.532867 6.3001C0.67818 6.99385 1.28755 7.5001 2.00005 7.5001V7.8751C2.00005 8.49854 2.50162 9.0001 3.12505 9.0001H21.8751C22.4985 9.0001 23.0001 8.49854 23.0001 7.8751V7.5001C23.7126 7.5001 24.3266 6.99854 24.4672 6.3001C24.6079 5.60166 24.2422 4.89854 23.5907 4.62197L13.0907 0.121973C12.7157 -0.0374023 12.2844 -0.0374023 11.9094 0.121973ZM6.50005 10.5001H3.50005V19.7017C3.47193 19.7157 3.4438 19.7345 3.41568 19.7532L1.16568 21.2532C0.617242 21.6188 0.368805 22.3032 0.560992 22.936C0.75318 23.5688 1.33912 24.0001 2.00005 24.0001H23.0001C23.661 24.0001 24.2422 23.5688 24.4344 22.936C24.6266 22.3032 24.3829 21.6188 23.8297 21.2532L21.5797 19.7532C21.5516 19.7345 21.5235 19.7204 21.4954 19.7017V10.5001H18.5001V19.5001H16.6251V10.5001H13.6251V19.5001H11.3751V10.5001H8.37505V19.5001H6.50005V10.5001ZM12.5001 3.0001C12.8979 3.0001 13.2794 3.15813 13.5607 3.43944C13.842 3.72074 14.0001 4.10227 14.0001 4.5001C14.0001 4.89792 13.842 5.27945 13.5607 5.56076C13.2794 5.84206 12.8979 6.0001 12.5001 6.0001C12.1022 6.0001 11.7207 5.84206 11.4394 5.56076C11.1581 5.27945 11.0001 4.89792 11.0001 4.5001C11.0001 4.10227 11.1581 3.72074 11.4394 3.43944C11.7207 3.15813 12.1022 3.0001 12.5001 3.0001Z" fill="#4B5563"/>
</svg>
