<svg width="98" height="98" viewBox="0 0 98 98" fill="none" xmlns="http://www.w3.org/2000/svg">
<path d="M48.5898 97.3334C75.4249 97.3334 97.1791 84.773 97.1791 69.279C97.1791 53.785 75.4249 41.2246 48.5898 41.2246C21.7547 41.2246 0.000488281 53.785 0.000488281 69.279C0.000488281 84.773 21.7547 97.3334 48.5898 97.3334Z" fill="#F5F5F5"/>
<path d="M67.7129 60.062L84.079 69.5092C84.2852 69.629 84.5194 69.6921 84.7579 69.6921C84.9963 69.6921 85.2305 69.629 85.4367 69.5092L94.5423 64.2482C94.6038 64.2126 94.6548 64.1616 94.6902 64.1001C94.7257 64.0386 94.7444 63.9689 94.7444 63.8979C94.7444 63.8269 94.7257 63.7572 94.6902 63.6957C94.6548 63.6342 94.6038 63.5831 94.5423 63.5476L78.1805 54.1243C77.9747 54.0058 77.7414 53.9434 77.5039 53.9434C77.2663 53.9434 77.033 54.0058 76.8272 54.1243L67.7151 59.3592C67.6535 59.3949 67.6025 59.446 67.5669 59.5076C67.5313 59.5691 67.5124 59.6389 67.5122 59.71C67.512 59.7811 67.5304 59.851 67.5656 59.9128C67.6008 59.9745 67.6516 60.026 67.7129 60.062Z" fill="#E0E0E0"/>
<path d="M54.8343 56.548L15.4681 79.3305C15.1475 79.5165 14.7839 79.6154 14.4132 79.6173C14.0426 79.6192 13.6779 79.5241 13.3554 79.3414L3.12931 73.5538C3.02309 73.4928 2.93484 73.4049 2.87347 73.2989C2.8121 73.1928 2.77979 73.0725 2.77979 72.95C2.77979 72.8275 2.8121 72.7072 2.87347 72.6012C2.93484 72.4952 3.02309 72.4072 3.12931 72.3462L42.4216 49.653C42.7413 49.4692 43.1031 49.3715 43.4718 49.3692C43.8405 49.3669 44.2036 49.4602 44.5255 49.6399L54.8256 55.4122C54.9265 55.4684 55.0107 55.5503 55.0696 55.6496C55.1285 55.7489 55.16 55.8621 55.1609 55.9776C55.1618 56.093 55.132 56.2067 55.0746 56.3069C55.0173 56.4071 54.9344 56.4903 54.8343 56.548Z" fill="#E0E0E0"/>
<path d="M61.1352 79.4134C67.1014 79.4134 71.9379 76.6205 71.9379 73.1754C71.9379 69.7303 67.1014 66.9375 61.1352 66.9375C55.1691 66.9375 50.3325 69.7303 50.3325 73.1754C50.3325 76.6205 55.1691 79.4134 61.1352 79.4134Z" fill="#E0E0E0"/>
<path d="M84.5011 76.7627C86.5812 76.7627 88.2674 75.7885 88.2674 74.5869C88.2674 73.3853 86.5812 72.4111 84.5011 72.4111C82.4211 72.4111 80.7349 73.3853 80.7349 74.5869C80.7349 75.7885 82.4211 76.7627 84.5011 76.7627Z" fill="#E0E0E0"/>
<path d="M84.6226 40.3058L84.6269 69.0195L93.9262 63.6453V34.96L84.6226 40.3058Z" fill="#E6E6E6"/>
<path d="M68.8286 59.8985L84.6269 69.0193V40.3318L68.833 31.2393L68.8286 59.8985Z" fill="#EBEBEB"/>
<path d="M68.8286 31.2111L84.6269 40.3319L93.9261 34.96L78.1344 25.8652L68.8286 31.2111Z" fill="#F5F5F5"/>
<path d="M70.6803 41.7117L82.684 48.6437C82.7364 48.6737 82.7958 48.6895 82.8563 48.6894C82.9167 48.6893 82.9761 48.6734 83.0285 48.6433C83.0808 48.6131 83.1244 48.5698 83.1548 48.5175C83.1852 48.4653 83.2014 48.406 83.2018 48.3456V42.2556C83.201 42.1052 83.1603 41.9576 83.0838 41.8281C83.0074 41.6985 82.8979 41.5915 82.7667 41.518L70.7825 34.6121C70.7299 34.582 70.6703 34.5662 70.6097 34.5664C70.5491 34.5666 70.4895 34.5827 70.4371 34.6131C70.3847 34.6435 70.3411 34.6871 70.3109 34.7397C70.2806 34.7922 70.2647 34.8518 70.2647 34.9124V40.9741C70.2633 41.1226 70.301 41.269 70.3739 41.3984C70.4468 41.5278 70.5525 41.6359 70.6803 41.7117Z" fill="#FAFAFA"/>
<path d="M77.7864 40.186C77.745 40.1857 77.7045 40.1744 77.6689 40.1534L75.5497 38.935C75.501 38.9006 75.4668 38.8493 75.4539 38.7911C75.441 38.7329 75.4503 38.672 75.48 38.6202C75.5096 38.5685 75.5575 38.5297 75.6143 38.5115C75.6711 38.4932 75.7326 38.4968 75.7868 38.5216L77.906 39.7422C77.948 39.7697 77.9801 39.8098 77.9978 39.8567C78.0154 39.9036 78.0178 39.9549 78.0045 40.0033C77.9912 40.0516 77.963 40.0945 77.9238 40.1258C77.8846 40.157 77.8365 40.1751 77.7864 40.1773V40.186Z" fill="#E0E0E0"/>
<path d="M70.6802 50.2145L82.684 57.1443C82.7364 57.1743 82.7958 57.1901 82.8562 57.19C82.9167 57.1899 82.976 57.174 83.0284 57.1439C83.0808 57.1137 83.1244 57.0704 83.1548 57.0182C83.1852 56.9659 83.2014 56.9066 83.2018 56.8462V50.7541C83.2007 50.6037 83.1599 50.4562 83.0835 50.3267C83.0071 50.1972 82.8977 50.0901 82.7666 50.0165L70.7825 43.1258C70.73 43.0958 70.6706 43.08 70.6102 43.0801C70.5498 43.0801 70.4904 43.0961 70.438 43.1262C70.3856 43.1564 70.3421 43.1997 70.3116 43.2519C70.2812 43.3042 70.265 43.3634 70.2646 43.4239V49.4856C70.265 49.6326 70.3035 49.7771 70.3763 49.9048C70.4492 50.0326 70.5539 50.1392 70.6802 50.2145Z" fill="#FAFAFA"/>
<path d="M77.7864 48.687C77.7453 48.6865 77.705 48.676 77.6689 48.6565L75.5497 47.4359C75.501 47.4016 75.4668 47.3503 75.4539 47.2921C75.441 47.2339 75.4503 47.1729 75.48 47.1212C75.5096 47.0695 75.5575 47.0307 75.6143 47.0125C75.6711 46.9942 75.7326 46.9978 75.7868 47.0225L77.906 48.2431C77.948 48.2707 77.9801 48.3108 77.9978 48.3577C78.0154 48.4046 78.0178 48.4559 78.0045 48.5043C77.9912 48.5526 77.963 48.5955 77.9238 48.6268C77.8846 48.658 77.8365 48.6761 77.7864 48.6783V48.687Z" fill="#E0E0E0"/>
<path d="M70.6803 58.715L82.684 65.6449C82.7365 65.6749 82.7959 65.6907 82.8563 65.6906C82.9168 65.6905 82.9761 65.6746 83.0285 65.6445C83.0809 65.6143 83.1244 65.571 83.1549 65.5188C83.1853 65.4665 83.2015 65.4072 83.2018 65.3468V59.2546C83.2008 59.1042 83.16 58.9568 83.0836 58.8273C83.0071 58.6977 82.8978 58.5907 82.7667 58.5171L70.7826 51.6112C70.7301 51.5811 70.6707 51.5654 70.6103 51.5654C70.5498 51.5655 70.4905 51.5814 70.4381 51.6116C70.3857 51.6417 70.3421 51.6851 70.3117 51.7373C70.2813 51.7895 70.2651 51.8488 70.2647 51.9092V57.9731C70.2628 58.1224 70.3002 58.2695 70.3731 58.3997C70.4461 58.53 70.552 58.6387 70.6803 58.715Z" fill="#FAFAFA"/>
<path d="M77.7862 57.1874C77.745 57.188 77.7044 57.1774 77.6687 57.157L75.5495 55.9364C75.5225 55.9208 75.4988 55.9001 75.4798 55.8754C75.4608 55.8506 75.4469 55.8224 75.4388 55.7923C75.4307 55.7622 75.4286 55.7308 75.4327 55.6999C75.4368 55.669 75.4469 55.6392 75.4625 55.6122C75.478 55.5851 75.4988 55.5614 75.5235 55.5425C75.5483 55.5235 75.5766 55.5097 75.6068 55.5018C75.637 55.4939 75.6684 55.4921 75.6993 55.4965C75.7302 55.5009 75.7599 55.5113 75.7867 55.5273L77.9059 56.7458C77.9329 56.7613 77.9566 56.782 77.9756 56.8068C77.9946 56.8315 78.0085 56.8597 78.0166 56.8898C78.0247 56.9199 78.0268 56.9513 78.0227 56.9822C78.0186 57.0131 78.0085 57.0429 77.9929 57.0699C77.9722 57.1063 77.9421 57.1364 77.9057 57.1571C77.8693 57.1777 77.828 57.1882 77.7862 57.1874Z" fill="#E0E0E0"/>
<path d="M78.7046 11.3926V19.0665L85.3516 22.9024V15.2285L78.7046 11.3926Z" fill="#FAFAFA"/>
<path d="M79.4249 11.8059L85.3604 15.2284V22.0711L79.4336 18.6508V11.8059M79.0724 11.1836L78.7134 11.4012V19.0751L85.3604 22.9023L85.7194 22.6847V15.0217L79.0637 11.1836H79.0724Z" fill="#E0E0E0"/>
<path d="M79.0636 12.0129L84.9904 15.4354V22.2782L79.0636 18.8557V12.0129ZM78.7046 11.3906V19.0646L85.3603 22.9026V15.2287L78.7046 11.3928V11.3906Z" fill="#EBEBEB"/>
<path d="M79.6792 17.3103L84.7074 20.2128L83.2214 16.3486L82.1944 17.5692L81.1413 16.0723L79.6792 17.3103Z" fill="#E0E0E0"/>
<path d="M81.4243 14.9002C81.4329 15.0594 81.4789 15.2143 81.5587 15.3523C81.6385 15.4903 81.7497 15.6075 81.8834 15.6944C82.1358 15.8402 82.3425 15.7205 82.3425 15.4289C82.3336 15.2698 82.2874 15.1151 82.2077 14.9771C82.1279 14.8392 82.0168 14.7219 81.8834 14.6348C81.6288 14.489 81.4243 14.6065 81.4243 14.9002Z" fill="#E0E0E0"/>
<path d="M87.3423 20.6807V26.7946L92.6359 29.8515V23.7376L87.3423 20.6807Z" fill="#FAFAFA"/>
<path d="M87.9145 21.0135L92.6359 23.7376V29.2009L87.9145 26.4747V21.0353M87.6273 20.537L87.3423 20.7024V26.8163L92.6359 29.8537L92.9231 29.6883V23.5744L87.6273 20.5283V20.537Z" fill="#E0E0E0"/>
<path d="M87.6273 21.1789L92.3487 23.903V29.3555L87.6273 26.6292V21.1789ZM87.3423 20.6807V26.7946L92.6359 29.8537V23.7398L87.3423 20.6937V20.6807Z" fill="#EBEBEB"/>
<path d="M88.1191 25.3958L92.1226 27.7086L90.9411 24.6299L90.1209 25.6047L89.2832 24.4102L88.1191 25.3958Z" fill="#E0E0E0"/>
<path d="M89.5073 23.4766C89.5143 23.6034 89.551 23.7268 89.6145 23.8368C89.678 23.9468 89.7665 24.0403 89.8729 24.1097C90.0752 24.2251 90.2384 24.1315 90.2384 23.8922C90.2318 23.7653 90.1952 23.6417 90.1316 23.5317C90.0681 23.4217 89.9794 23.3282 89.8729 23.259C89.6705 23.1481 89.5073 23.2438 89.5073 23.4766Z" fill="#E0E0E0"/>
<path d="M84.7228 69.0436C84.7228 69.0436 82.4078 66.7829 83.7263 62.9971C84.4639 60.8757 86.9095 59.3179 88.2954 59.1699C87.8342 59.718 87.4667 60.3385 87.2075 61.0063L85.4539 62.1725L87.0661 61.6677L86.7223 63.0471C86.7223 63.0471 85.2232 63.9544 85.0013 64.1524L86.6179 63.7303C86.6179 63.7303 86.5004 67.638 84.7228 69.0436Z" fill="#ED5530"/>
<path opacity="0.4" d="M84.7228 69.0436C84.7228 69.0436 82.4078 66.7829 83.7263 62.9971C84.4639 60.8757 86.9095 59.3179 88.2954 59.1699C87.8342 59.718 87.4667 60.3385 87.2075 61.0063L85.4539 62.1725L87.0661 61.6677L86.7223 63.0471C86.7223 63.0471 85.2232 63.9544 85.0013 64.1524L86.6179 63.7303C86.6179 63.7303 86.5004 67.638 84.7228 69.0436Z" fill="black"/>
<path d="M84.7223 69.0437C84.7223 69.0437 83.5235 64.3136 85.2967 61.5547C85.2967 61.5547 83.2189 63.9894 84.7223 69.0437Z" fill="white"/>
<path d="M87.3705 69.6833L84.542 69.6484H84.5137L81.6852 69.6833C81.6852 69.6833 81.6525 73.1645 82.7274 74.5918C83.0254 74.9704 83.7195 75.2445 84.5311 75.2445C85.3426 75.2445 86.0411 74.9769 86.337 74.5918C87.4031 73.1688 87.3705 69.6833 87.3705 69.6833Z" fill="#37474F"/>
<path d="M87.3705 69.6832C87.3705 70.5274 86.0977 71.2062 84.5246 71.2062C82.9515 71.2062 81.6787 70.5209 81.6787 69.6832C81.6787 68.8455 82.9537 68.1602 84.5246 68.1602C86.0955 68.1602 87.3705 68.839 87.3705 69.6832Z" fill="#455A64"/>
<path d="M84.5245 69.2789C85.5036 69.2789 86.3326 69.5922 86.6263 70.0274C86.6978 69.9268 86.7373 69.807 86.7394 69.6836C86.7394 69.0809 85.7473 68.5957 84.5245 68.5957C83.3017 68.5957 82.3096 69.0853 82.3096 69.6836C82.3115 69.8073 82.3518 69.9275 82.4249 70.0274C82.7164 69.5922 83.5454 69.2789 84.5245 69.2789Z" fill="#263238"/>
<path d="M84.5244 69.2783C83.5453 69.2783 82.7164 69.5916 82.4248 70.0268C82.7164 70.4619 83.5453 70.7774 84.5244 70.7774C85.5035 70.7774 86.3325 70.4619 86.6262 70.0268C86.3325 69.5916 85.5035 69.2783 84.5244 69.2783Z" fill="#E0E0E0"/>
<path d="M84.5594 70.2161C84.5594 70.2161 83.4715 70.1748 82.5229 68.717C82.1334 68.1165 81.9463 67.801 81.9463 67.801L83.4693 67.6857L81.757 67.2506L80.9476 66.0125L82.3684 65.9059C81.7826 65.7017 81.1725 65.5751 80.5538 65.5295C80.5538 65.5295 79.2483 63.2145 78.8589 62.8838C79.8538 62.9444 80.8263 63.2042 81.7189 63.6478C82.6114 64.0915 83.4057 64.7099 84.0546 65.4664C86.2021 68.0143 84.8792 70.2814 84.5594 70.2161Z" fill="#ED5530"/>
<path d="M84.5592 70.2164C84.5592 70.2164 85.2467 66.0824 80.8604 63.5977C80.8669 63.5977 85.4121 65.7821 84.5592 70.2164Z" fill="white"/>
<path d="M84.5592 70.2161C84.5592 70.2161 85.5535 70.2813 86.5391 69.0564C86.946 68.5494 87.144 68.2818 87.144 68.2818L85.7754 68.0359L87.3615 67.8184L88.2079 66.7762L86.9351 66.5477C87.483 66.4182 88.0456 66.3619 88.6083 66.3802C88.6083 66.3802 90.0095 64.422 90.3859 64.1522C89.4867 64.1121 88.5886 64.2524 87.7444 64.5648C86.9003 64.8772 86.1273 65.3553 85.4708 65.9711C83.2863 68.0751 84.2719 70.2444 84.5592 70.2161Z" fill="#ED5530"/>
<path opacity="0.2" d="M84.5592 70.2161C84.5592 70.2161 85.5535 70.2813 86.5391 69.0564C86.946 68.5494 87.144 68.2818 87.144 68.2818L85.7754 68.0359L87.3615 67.8184L88.2079 66.7762L86.9351 66.5477C87.483 66.4182 88.0456 66.3619 88.6083 66.3802C88.6083 66.3802 90.0095 64.422 90.3859 64.1522C89.4867 64.1121 88.5886 64.2524 87.7444 64.5648C86.9003 64.8772 86.1273 65.3553 85.4708 65.9711C83.2863 68.0751 84.2719 70.2444 84.5592 70.2161Z" fill="black"/>
<path d="M84.5593 70.2162C84.5593 70.2162 84.3287 66.4238 88.5149 64.5918C88.5149 64.5918 84.209 66.1344 84.5593 70.2162Z" fill="white"/>
<path d="M41.3639 17.4191L40.374 17.0166L40.2739 16.9753H40.263C40.0855 16.9112 39.8962 16.8867 39.7082 16.9036C39.5203 16.9206 39.3383 16.9784 39.1751 17.0732L5.20264 36.6812C4.4887 37.0926 3.89579 37.685 3.48364 38.3985C3.07149 39.112 2.85466 39.9215 2.85498 40.7456V70.323C2.85515 70.6373 2.93807 70.9461 3.09541 71.2182C3.25274 71.4904 3.47895 71.7163 3.75128 71.8733C4.02361 72.0303 4.33248 72.1129 4.64683 72.1127C4.96118 72.1124 5.26993 72.0295 5.54206 71.8721L39.5472 52.2402C40.0324 51.9598 40.4352 51.5566 40.7152 51.0712C40.9951 50.5857 41.1423 50.0351 41.142 49.4747V18.2133C41.1427 17.9894 41.0857 17.7691 40.9767 17.5736L41.3639 17.4191Z" fill="#ED5530"/>
<path opacity="0.3" d="M41.3639 17.4191L40.374 17.0166L40.2739 16.9753H40.263C40.0855 16.9112 39.8962 16.8867 39.7082 16.9036C39.5203 16.9206 39.3383 16.9784 39.1751 17.0732L5.20264 36.6812C4.4887 37.0926 3.89579 37.685 3.48364 38.3985C3.07149 39.112 2.85466 39.9215 2.85498 40.7456V70.323C2.85515 70.6373 2.93807 70.9461 3.09541 71.2182C3.25274 71.4904 3.47895 71.7163 3.75128 71.8733C4.02361 72.0303 4.33248 72.1129 4.64683 72.1127C4.96118 72.1124 5.26993 72.0295 5.54206 71.8721L39.5472 52.2402C40.0324 51.9598 40.4352 51.5566 40.7152 51.0712C40.9951 50.5857 41.1423 50.0351 41.142 49.4747V18.2133C41.1427 17.9894 41.0857 17.7691 40.9767 17.5736L41.3639 17.4191Z" fill="black"/>
<path d="M42.0426 18.5702V49.8426C42.043 50.403 41.8956 50.9535 41.6152 51.4387C41.3348 51.9238 40.9313 52.3264 40.4456 52.6058L6.44049 72.24C6.1681 72.3967 5.85929 72.4791 5.54501 72.4789C5.23073 72.4787 4.92203 72.3959 4.64986 72.2387C4.37768 72.0816 4.1516 71.8557 3.99426 71.5836C3.83692 71.3116 3.75387 71.0029 3.75342 70.6887V41.0982C3.75361 40.2873 3.96427 39.4904 4.36481 38.7853C4.66818 38.2624 5.10622 37.8304 5.63328 37.5343L40.7568 17.2539C41.0974 17.2645 41.4208 17.4062 41.6595 17.6494C41.8983 17.8926 42.034 18.2186 42.0383 18.5594L42.0426 18.5702Z" fill="#ED5530"/>
<path opacity="0.1" d="M42.0426 18.5702V49.8426C42.043 50.403 41.8956 50.9535 41.6152 51.4387C41.3348 51.9238 40.9313 52.3264 40.4456 52.6058L6.44049 72.24C6.1681 72.3967 5.85929 72.4791 5.54501 72.4789C5.23073 72.4787 4.92203 72.3959 4.64986 72.2387C4.37768 72.0816 4.1516 71.8557 3.99426 71.5836C3.83692 71.3116 3.75387 71.0029 3.75342 70.6887V41.0982C3.75361 40.2873 3.96427 39.4904 4.36481 38.7853C4.66818 38.2624 5.10622 37.8304 5.63328 37.5343L40.7568 17.2539C41.0974 17.2645 41.4208 17.4062 41.6595 17.6494C41.8983 17.8926 42.034 18.2186 42.0383 18.5594L42.0426 18.5702Z" fill="black"/>
<path d="M40.4459 52.6052L6.44081 72.2394C6.1776 72.3934 5.87912 72.4769 5.57421 72.4818C5.26931 72.4868 4.96827 72.413 4.7002 72.2677L25.0045 41.709L42.0429 49.8398C42.043 50.4004 41.8955 50.9512 41.6151 51.4366C41.3348 51.9221 40.9315 52.3251 40.4459 52.6052Z" fill="#ED5530"/>
<path opacity="0.2" d="M40.4459 52.6052L6.44081 72.2394C6.1776 72.3934 5.87912 72.4769 5.57421 72.4818C5.26931 72.4868 4.96827 72.413 4.7002 72.2677L25.0045 41.709L42.0429 49.8398C42.043 50.4004 41.8955 50.9512 41.6151 51.4366C41.3348 51.9221 40.9315 52.3251 40.4459 52.6052Z" fill="black"/>
<path d="M41.4703 17.4867L27.6042 46.4919C27.331 47.0618 26.9432 47.5691 26.465 47.9822C25.9867 48.3953 25.4283 48.7051 24.8248 48.8924C24.2213 49.0797 23.5856 49.1404 22.9575 49.0706C22.3294 49.0009 21.7225 48.8022 21.1747 48.4871L4.36475 38.7919C4.65168 38.2823 5.07024 37.8593 5.57665 37.5669L40.7567 17.2539C41.0122 17.26 41.2604 17.3409 41.4703 17.4867Z" fill="#ED5530"/>
<path d="M7.85498 29.4794L17.8157 23.7267V16.5967L10.5769 20.587C9.7524 21.0409 9.06487 21.7077 8.58609 22.5179C8.1073 23.3281 7.85481 24.252 7.85498 25.1931V29.4794Z" fill="#ED5530"/>
<path opacity="0.5" d="M7.85498 29.4794L17.8157 23.7267V16.5967L10.5769 20.587C9.7524 21.0409 9.06487 21.7077 8.58609 22.5179C8.1073 23.3281 7.85481 24.252 7.85498 25.1931V29.4794Z" fill="white"/>
<path d="M49.0249 1.86673L48.1133 1.35107C46.9554 0.681581 45.6411 0.330348 44.3036 0.333023C42.9662 0.335698 41.6532 0.692186 40.4981 1.3663L12.0107 17.9631C10.7462 18.6995 9.69695 19.7547 8.96774 21.0234C8.23852 22.2921 7.85484 23.7298 7.85498 25.1932C7.85488 24.4414 8.0533 23.703 8.43016 23.0525C8.80702 22.4021 9.34896 21.8627 10.0012 21.4889C10.6534 21.1151 11.3927 20.9202 12.1445 20.9238C12.8962 20.9274 13.6336 21.1295 14.2822 21.5096L15.4745 22.208C16.7159 22.9346 17.7456 23.9734 18.4613 25.2211C19.177 26.4689 19.5537 27.8822 19.5541 29.3206V71.648L17.6111 76.5805L21.2599 74.359L50.5915 57.3402C51.6333 56.7361 52.4979 55.8688 53.0986 54.8251C53.6993 53.7814 54.015 52.598 54.014 51.3938V10.5241C54.0137 8.77048 53.5527 7.04769 52.6771 5.52829C51.8015 4.00889 50.5421 2.74621 49.0249 1.86673Z" fill="#ED5530"/>
<path opacity="0.7" d="M49.0249 1.86673L48.1133 1.35107C46.9554 0.681581 45.6411 0.330348 44.3036 0.333023C42.9662 0.335698 41.6532 0.692186 40.4981 1.3663L12.0107 17.9631C10.7462 18.6995 9.69695 19.7547 8.96774 21.0234C8.23852 22.2921 7.85484 23.7298 7.85498 25.1932C7.85488 24.4414 8.0533 23.703 8.43016 23.0525C8.80702 22.4021 9.34896 21.8627 10.0012 21.4889C10.6534 21.1151 11.3927 20.9202 12.1445 20.9238C12.8962 20.9274 13.6336 21.1295 14.2822 21.5096L15.4745 22.208C16.7159 22.9346 17.7456 23.9734 18.4613 25.2211C19.177 26.4689 19.5537 27.8822 19.5541 29.3206V71.648L17.6111 76.5805L21.2599 74.359L50.5915 57.3402C51.6333 56.7361 52.4979 55.8688 53.0986 54.8251C53.6993 53.7814 54.015 52.598 54.014 51.3938V10.5241C54.0137 8.77048 53.5527 7.04769 52.6771 5.52829C51.8015 4.00889 50.5421 2.74621 49.0249 1.86673Z" fill="white"/>
<path d="M9.03662 72.7342C9.03662 72.7342 11.0797 75.7216 14.3629 76.7115C17.8942 77.7755 19.5543 75.4344 19.5543 72.3295V66.7139L9.03662 72.7342Z" fill="#ED5530"/>
<path opacity="0.5" d="M9.03662 72.7342C9.03662 72.7342 11.0797 75.7216 14.3629 76.7115C17.8942 77.7755 19.5543 75.4344 19.5543 72.3295V66.7139L9.03662 72.7342Z" fill="white"/>
<path d="M25.9009 42.6905C25.8303 42.6895 25.762 42.6654 25.7064 42.622C25.6507 42.5786 25.6107 42.5182 25.5925 42.45C25.5743 42.3819 25.5788 42.3096 25.6054 42.2442C25.632 42.1789 25.6792 42.1239 25.7398 42.0878L47.4976 29.5206C47.5717 29.4779 47.6598 29.4664 47.7424 29.4886C47.825 29.5109 47.8954 29.565 47.9381 29.6392C47.9809 29.7133 47.9923 29.8014 47.9701 29.884C47.9479 29.9666 47.8937 30.0371 47.8196 30.0798L26.0619 42.647C26.0128 42.675 25.9574 42.69 25.9009 42.6905Z" fill="white"/>
<path d="M25.901 47.5099C25.8302 47.5097 25.7614 47.4863 25.7053 47.4431C25.6492 47.4 25.6089 47.3396 25.5906 47.2712C25.5722 47.2029 25.5769 47.1304 25.6039 47.065C25.6309 46.9996 25.6787 46.9449 25.74 46.9093L47.4977 34.3399C47.5718 34.2972 47.6599 34.2857 47.7425 34.308C47.8251 34.3302 47.8955 34.3843 47.9383 34.4585C47.981 34.5327 47.9924 34.6207 47.9702 34.7034C47.948 34.786 47.8938 34.8564 47.8197 34.8991L26.062 47.4772C26.0119 47.5015 25.9565 47.5127 25.901 47.5099Z" fill="white"/>
<path d="M25.901 52.3271C25.8302 52.327 25.7614 52.3035 25.7053 52.2604C25.6492 52.2172 25.6089 52.1568 25.5906 52.0885C25.5722 52.0201 25.5769 51.9476 25.6039 51.8822C25.6309 51.8168 25.6787 51.7621 25.74 51.7266L47.4977 39.1593C47.5712 39.1211 47.6567 39.1127 47.7363 39.1359C47.8159 39.1591 47.8835 39.2121 47.9249 39.2839C47.9664 39.3557 47.9787 39.4407 47.959 39.5212C47.9394 39.6018 47.8895 39.6717 47.8197 39.7163L26.062 52.2836C26.0129 52.3116 25.9575 52.3266 25.901 52.3271Z" fill="white"/>
<path d="M25.901 57.1445C25.8302 57.1443 25.7614 57.1209 25.7053 57.0778C25.6492 57.0346 25.6089 56.9742 25.5906 56.9059C25.5722 56.8375 25.5769 56.765 25.6039 56.6996C25.6309 56.6342 25.6787 56.5795 25.74 56.544L47.4977 43.9767C47.5712 43.9385 47.6567 43.9301 47.7363 43.9533C47.8159 43.9765 47.8835 44.0295 47.9249 44.1013C47.9664 44.173 47.9787 44.2581 47.959 44.3386C47.9394 44.4192 47.8895 44.489 47.8197 44.5337L26.062 57.101C26.0133 57.13 25.9576 57.145 25.901 57.1445Z" fill="white"/>
<path d="M25.901 61.9619C25.8302 61.9617 25.7614 61.9383 25.7053 61.8951C25.6492 61.852 25.6089 61.7916 25.5906 61.7232C25.5722 61.6549 25.5769 61.5824 25.6039 61.517C25.6309 61.4516 25.6787 61.3969 25.74 61.3614L47.4977 48.7941C47.5712 48.7559 47.6567 48.7475 47.7363 48.7707C47.8159 48.7939 47.8835 48.8469 47.9249 48.9187C47.9664 48.9904 47.9787 49.0754 47.959 49.156C47.9394 49.2366 47.8895 49.3064 47.8197 49.3511L26.062 61.9184C26.0133 61.9473 25.9576 61.9624 25.901 61.9619Z" fill="white"/>
<path d="M40.1889 58.5278C40.1323 58.5281 40.0767 58.5134 40.0277 58.4851C39.9788 58.4568 39.9382 58.4159 39.9104 58.3667C39.8691 58.2933 39.8583 58.2065 39.8803 58.1252C39.9022 58.0438 39.9552 57.9743 40.0278 57.9316L47.5016 53.6105C47.5752 53.5723 47.6607 53.5639 47.7402 53.5871C47.8198 53.6103 47.8874 53.6633 47.9289 53.7351C47.9704 53.8068 47.9826 53.8918 47.963 53.9724C47.9434 54.053 47.8935 54.1228 47.8236 54.1675L40.3499 58.4864C40.3006 58.5138 40.2452 58.528 40.1889 58.5278Z" fill="white"/>
<path d="M41.0528 24.5535L34.7822 28.1739V25.0843C34.7822 22.9369 36.0877 20.4413 37.6999 19.51L38.1351 19.2598C39.7452 18.3286 41.0528 19.3164 41.0528 21.4639V24.5535Z" fill="#ED5530"/>
<path d="M42.5127 25.5787L33.3223 30.8854L34.7822 27.5043L41.0528 23.8838L42.5127 25.5787Z" fill="#ED5530"/>
<path d="M37.9282 20.404C37.6563 20.5607 37.4365 20.4345 37.4365 20.1212V18.918C37.446 18.7476 37.4954 18.5817 37.5809 18.4339C37.6663 18.2862 37.7853 18.1605 37.9282 18.0673C38.198 17.9106 38.4178 18.0368 38.4178 18.3501V19.5555C38.4082 19.7254 38.359 19.8906 38.2739 20.038C38.1889 20.1854 38.0705 20.3107 37.9282 20.404Z" fill="#ED5530"/>
<path d="M36.873 29.2882C36.8992 29.9127 37.3561 30.1586 37.9174 29.8344C38.2116 29.642 38.4582 29.3854 38.6387 29.0839C38.8192 28.7824 38.929 28.4438 38.9596 28.0938L36.873 29.2882Z" fill="#ED5530"/>
<path d="M68.8286 19.8798C71.3556 19.8798 73.4042 17.8312 73.4042 15.3042C73.4042 12.7771 71.3556 10.7285 68.8286 10.7285C66.3015 10.7285 64.2529 12.7771 64.2529 15.3042C64.2529 17.8312 66.3015 19.8798 68.8286 19.8798Z" fill="#ED5530"/>
<path d="M68.0128 18.8613C68.0128 18.8613 68.4219 20.3147 66.7661 21.6637C66.7661 21.6637 69.3161 21.407 69.4554 18.9832L68.0128 18.8613Z" fill="#ED5530"/>
<path d="M69.2791 15.7259H68.2957L68.0498 13.3652H69.525L69.2791 15.7259ZM68.7874 17.249C68.6968 17.2552 68.606 17.243 68.5203 17.2133C68.4345 17.1835 68.3557 17.1368 68.2884 17.0758C68.2212 17.0149 68.1669 16.941 68.1289 16.8586C68.0909 16.7762 68.0699 16.687 68.0672 16.5963C68.0867 16.4189 68.171 16.255 68.3039 16.1359C68.4368 16.0169 68.609 15.951 68.7874 15.951C68.9658 15.951 69.138 16.0169 69.2709 16.1359C69.4038 16.255 69.488 16.4189 69.5076 16.5963C69.5043 16.6866 69.4829 16.7753 69.4446 16.8572C69.4063 16.9391 69.352 17.0125 69.2848 17.073C69.2176 17.1335 69.139 17.1798 69.0535 17.2093C68.9681 17.2388 68.8776 17.2508 68.7874 17.2446V17.249Z" fill="white"/>
<path d="M59.7951 32.9918C59.3241 32.9554 58.8514 33.0356 58.4187 33.2253C57.9861 33.4151 57.6069 33.7085 57.3147 34.0797C56.3465 35.3547 54.2969 38.3704 54.2969 38.3704C54.2969 38.3704 53.4397 37.4195 52.8783 36.7516C52.317 36.0836 51.7904 35.5179 51.7904 35.5179C51.7166 35.1584 51.6614 34.7953 51.6251 34.43C51.5772 33.9122 51.5076 33.5597 51.129 33.2051C50.7504 32.8504 50.461 32.5175 50.4306 32.2477C50.4001 31.9779 50.213 31.7081 49.9737 31.9845C49.7343 32.2608 49.7561 33.1093 50.2565 33.675C50.2565 33.675 49.3623 33.2595 48.9511 32.7721C48.5398 32.2847 48.009 31.4362 47.774 31.6712C47.539 31.9061 47.0886 34.4366 47.774 35.0001C48.4593 35.5636 50.1543 36.5231 50.1543 36.5231C50.1543 36.5231 52.3692 41.9451 53.9271 41.9451C55.4849 41.9451 58.061 37.9374 58.061 37.9374L59.7951 32.9918Z" fill="#FFA8A7"/>
<path d="M57.0298 61.2981L57.5106 68.6543C57.5106 68.6543 57.9458 69.4333 58.7835 69.4333L59.545 68.6021C59.5346 67.6182 59.6169 66.6355 59.7908 65.667C60.0737 64.181 60.622 62.0074 60.7808 60.752L57.0298 61.2981Z" fill="#FFA8A7"/>
<path d="M57.4628 44.6801C57.4628 44.6801 57.0798 47.154 56.8905 49.5604C56.7404 51.4794 56.6425 54.1404 56.6077 55.1391C56.5994 55.4003 56.6052 55.6618 56.6251 55.9224L57.0298 61.2987C57.0298 61.2987 59.4079 62.3431 60.7852 60.7526C60.7852 60.7526 60.9527 59.2121 60.7134 58.1416C60.5732 57.4658 60.5903 56.7668 60.7634 56.0986L62.2538 50.1109V44.6279L57.4628 44.6801Z" fill="#37474F"/>
<path d="M58.6182 46.7314C58.7188 47.1711 58.9379 47.5749 59.2516 47.8989C59.5653 48.223 59.9618 48.4551 60.3979 48.57L61.2878 53.9876L62.5933 49.2401V46.7314H58.6182Z" fill="#263238"/>
<path d="M63.2437 62.3945L64.7471 70.6863H66.3724C66.3724 70.6863 66.9882 63.6999 66.9555 61.7939L63.2437 62.3945Z" fill="#FFA8A7"/>
<path d="M58.2219 44.6254C58.2219 44.6254 57.9042 47.826 60.7676 48.1067L62.2536 57.6387L63.2436 62.3928C63.2436 62.3928 65.563 63.9049 66.9554 61.7923C66.9554 61.7923 67.0969 59.3989 66.5203 57.7497C66.3699 57.3213 66.3077 56.8668 66.3375 56.4138C66.4985 54.077 66.9424 47.2211 66.7248 45.7024L65.2932 43.8291L58.2219 44.6254Z" fill="#37474F"/>
<path d="M63.4354 33.3353H64.8888L65.8614 38.1894L65.2217 40.2673C65.0865 40.698 65.1175 41.1638 65.3087 41.5728C65.7439 42.5214 66.5511 44.3752 66.7273 45.7067C66.3204 45.7365 65.913 45.6553 65.5486 45.4718C65.1842 45.2883 64.8764 45.0093 64.6582 44.6645C64.6582 44.6645 63.4376 46.2724 60.4676 46.2724C59.0273 46.2724 57.8567 45.2128 57.4629 44.6819L57.996 42.2755C58.0401 42.0801 58.0562 41.8794 58.0438 41.6794C58.0155 41.1811 57.9611 40.1563 57.9742 39.3774C57.9742 39.3774 56.5948 38.8291 56.9494 37.132C57.3041 35.4349 59.7953 32.998 59.7953 32.998L60.8636 33.0394L63.4354 33.3353Z" fill="#ED5530"/>
<path d="M59.93 23.9793C59.93 23.9793 58.1676 23.3679 57.7368 25.1716C57.306 26.9753 58.6332 28.7268 56.6489 29.3273C56.6489 29.3273 57.8195 30.3021 58.8508 28.481L59.7211 32.1798C59.7211 32.1798 59.7211 32.3821 59.4122 32.5366C59.4122 32.5366 64.4164 33.6506 65.3803 31.1528C65.5131 31.2966 65.6037 31.4742 65.6421 31.6662C65.6805 31.8581 65.6652 32.0569 65.5979 32.2407C65.5979 32.2407 67.0752 31.6424 66.6596 29.7299C66.6596 29.7299 67.828 29.6972 68.1065 28.7464C68.1065 28.7464 66.2375 28.8356 66.2484 26.773C66.2615 24.3905 65.0082 24.7365 65.0082 24.7365C65.0082 24.7365 63.4743 22.4563 59.93 23.9793Z" fill="#455A64"/>
<path d="M60.8636 31.4425V33.033C60.8636 33.033 59.2165 34.865 60.8222 35.0108C62.4279 35.1565 63.4332 33.3354 63.4332 33.3354V29.9717L60.8636 31.4425Z" fill="#FFA8A7"/>
<path d="M63.4071 29.4403V29.5317C62.8348 31.7945 61.3444 32.2863 60.8636 32.4016L60.8462 28.9007L63.3353 28.8877L63.4071 29.4403Z" fill="#F28F8F"/>
<path d="M61.0265 24.415C60.0756 24.4933 58.1 25.1874 58.0718 27.6917C58.0435 30.196 58.4242 32.1063 59.7232 32.1846C61.0221 32.263 63.9224 31.0968 64.0573 27.8331C64.1922 24.5694 61.9512 24.3279 61.0265 24.415Z" fill="#FFA8A7"/>
<path d="M59.8235 28.6855L59.8474 30.1564L58.9814 29.9062L59.8235 28.6855Z" fill="#F28F8F"/>
<path d="M61.1161 28.6463C61.1174 28.7059 61.1009 28.7645 61.0688 28.8147C61.0367 28.8648 60.9904 28.9043 60.9358 28.9281C60.8812 28.9519 60.8207 28.9589 60.7621 28.9483C60.7035 28.9376 60.6494 28.9097 60.6067 28.8682C60.564 28.8267 60.5345 28.7735 60.5222 28.7152C60.5098 28.6569 60.515 28.5963 60.5372 28.541C60.5594 28.4857 60.5975 28.4383 60.6468 28.4048C60.696 28.3712 60.7541 28.3531 60.8136 28.3526C60.8529 28.3517 60.8919 28.3587 60.9284 28.373C60.9649 28.3874 60.9982 28.4088 61.0263 28.4362C61.0545 28.4635 61.0769 28.4962 61.0923 28.5322C61.1077 28.5683 61.1158 28.6071 61.1161 28.6463Z" fill="#263238"/>
<path d="M59.1425 28.4658C59.1433 28.5051 59.1364 28.5442 59.1221 28.5808C59.1078 28.6175 59.0863 28.6509 59.059 28.6792C59.0317 28.7075 58.9991 28.7302 58.963 28.7458C58.9269 28.7615 58.8881 28.7698 58.8487 28.7704C58.7893 28.7717 58.7308 28.7552 58.6807 28.7232C58.6305 28.6912 58.591 28.6451 58.5672 28.5906C58.5433 28.5361 58.5362 28.4758 58.5467 28.4172C58.5572 28.3587 58.5848 28.3046 58.6261 28.2618C58.6674 28.2189 58.7205 28.1894 58.7786 28.1767C58.8367 28.1641 58.8973 28.1691 58.9526 28.1909C59.0079 28.2128 59.0555 28.2506 59.0893 28.2995C59.1231 28.3484 59.1416 28.4063 59.1425 28.4658Z" fill="#263238"/>
<path d="M60.6326 30.6331C60.3065 30.7163 59.9854 30.818 59.6709 30.9377C59.6709 30.9377 59.5817 30.4264 60.006 30.3089C60.1318 30.2823 60.2629 30.3001 60.3772 30.3592C60.4914 30.4183 60.5816 30.515 60.6326 30.6331Z" fill="#F28F8F"/>
<path d="M59.0336 27.3584L58.4526 27.7131C58.4526 27.7131 58.6702 27.9437 58.9009 27.8001C58.9648 27.7483 59.0117 27.6785 59.0354 27.5997C59.0591 27.5209 59.0584 27.4368 59.0336 27.3584Z" fill="#263238"/>
<path d="M62.5538 28.6377C62.5538 28.6377 62.532 29.5646 63.1391 29.5646H64.3292V27.5564C64.3292 25.3023 62.6191 22.9481 58.9812 24.8105C58.9812 24.8105 58.768 27.9458 62.5538 28.6377Z" fill="#455A64"/>
<path d="M58.5441 29.515C57.9784 29.515 57.5171 29.1234 57.5171 28.6447C57.5171 28.1661 57.9784 27.7744 58.5441 27.7744C59.1098 27.7744 59.571 28.1661 59.571 28.6447C59.571 29.1234 59.1098 29.515 58.5441 29.515ZM58.5441 27.9419C58.0763 27.9419 57.6955 28.2553 57.6955 28.6382C57.6955 29.0211 58.0763 29.3366 58.5441 29.3366C59.0118 29.3366 59.3926 29.0233 59.3926 28.6382C59.3926 28.2531 59.0118 27.9419 58.5441 27.9419Z" fill="#ED5530"/>
<path d="M61.0699 29.5212C60.4368 29.5212 59.9189 29.1253 59.9189 28.6379C59.9189 28.1505 60.4368 27.7676 61.0699 27.7676C61.7031 27.7676 62.2209 28.1636 62.2209 28.6379C62.2209 29.1122 61.7052 29.5212 61.0699 29.5212ZM61.0699 27.946C60.5412 27.946 60.1082 28.2571 60.1082 28.6379C60.1082 29.0186 60.5434 29.332 61.0699 29.332C61.5965 29.332 62.0316 29.0208 62.0316 28.6379C62.0316 28.255 61.6008 27.946 61.0699 27.946Z" fill="#ED5530"/>
<path d="M60.015 28.5439H59.4819V28.7332H60.015V28.5439Z" fill="#ED5530"/>
<path d="M63.5025 28.5439H62.1274V28.7332H63.5025V28.5439Z" fill="#ED5530"/>
<path d="M63.1351 29.4432C63.1276 29.2135 63.1723 28.9852 63.2656 28.7752C63.3111 28.6445 63.3938 28.5299 63.5036 28.4457C63.6134 28.3614 63.7455 28.3111 63.8835 28.3009C64.5928 28.29 64.6799 28.9732 64.669 29.2147C64.6364 29.8522 64.1142 30.5354 63.1459 30.5507L63.1351 29.4432Z" fill="#FFA8A7"/>
<path d="M64.8884 33.3353C64.8884 33.3353 63.2304 37.2996 65.861 38.1895L66.4375 36.958C66.4375 36.958 71.2503 32.5499 72.4274 31.5838C73.6045 30.6178 72.0945 29.1905 70.6346 27.8524C69.1747 26.5143 67.7104 25.2197 67.7104 25.2197L66.9793 23.9251C66.8989 23.7838 66.7895 23.661 66.6582 23.565C66.527 23.469 66.3769 23.4019 66.2178 23.3681C65.4519 23.2093 64.0094 22.933 63.2304 22.9787C62.1426 23.0374 63.7853 24.3929 64.0616 24.3929C64.3105 24.4003 64.5535 24.4714 64.7671 24.5994C64.9808 24.7274 65.1581 24.908 65.2822 25.124C65.6129 25.7136 65.6717 26.7754 66.7269 26.7275L69.1725 30.3806L64.8884 33.3353Z" fill="#FFA8A7"/>
<path d="M69.1726 30.3809L70.0211 31.4666L68.6982 30.7094L69.1726 30.3809Z" fill="#F28F8F"/>
<path d="M54.2969 38.3726L55.0519 39.2451L54.6145 37.9092L54.2969 38.3726Z" fill="#F28F8F"/>
<path opacity="0.2" d="M60.8179 39.4562C60.8179 39.4562 62.9936 39.6324 63.6681 37.5654C63.6681 37.5654 63.6942 40.2003 60.8179 39.4562Z" fill="black"/>
<path d="M57.3037 68.972C57.3037 68.972 57.0013 68.0233 57.4691 67.9733C57.9369 67.9232 58.7637 68.1713 58.8463 68.4193C58.8969 68.5833 58.9175 68.755 58.9073 68.9263C59.1354 68.849 59.3515 68.7399 59.5491 68.6021V68.2518C59.5491 68.2518 60.0365 68.2997 60.0735 68.6652C60.1105 69.0307 60.117 69.4767 60.1322 69.8923C60.1605 70.7322 60.2845 71.2935 59.3294 71.5415C58.6483 71.7126 58.0333 72.0822 57.5626 72.6033C57.2361 72.948 56.8295 73.2068 56.379 73.3567C55.9285 73.5067 55.448 73.5431 54.98 73.4628C53.5418 73.2626 53.6245 72.0485 54.1314 71.659C54.6187 71.3003 55.1397 70.9899 55.6871 70.7322L57.3037 68.972Z" fill="#ED5530"/>
<path d="M56.7903 71.6552C56.7687 71.6557 56.7473 71.6501 56.7288 71.6389C56.7103 71.6277 56.6954 71.6115 56.6858 71.5921C56.455 71.2206 56.088 70.9543 55.6632 70.8501C55.6478 70.8468 55.6331 70.8404 55.6201 70.8314C55.6071 70.8223 55.5961 70.8108 55.5876 70.7974C55.5791 70.7841 55.5733 70.7691 55.5706 70.7535C55.5679 70.7379 55.5683 70.722 55.5719 70.7065C55.5752 70.6913 55.5815 70.677 55.5904 70.6642C55.5994 70.6515 55.6108 70.6407 55.6239 70.6324C55.6371 70.6241 55.6517 70.6185 55.6671 70.6159C55.6824 70.6133 55.6981 70.6138 55.7133 70.6173C55.9582 70.6765 56.1889 70.7839 56.3918 70.9333C56.5946 71.0828 56.7656 71.2712 56.8947 71.4876C56.9046 71.5056 56.9096 71.5259 56.9092 71.5464C56.9088 71.567 56.9031 71.5871 56.8925 71.6047C56.8819 71.6223 56.8669 71.6368 56.849 71.6468C56.8311 71.6568 56.8108 71.6619 56.7903 71.6617V71.6552Z" fill="#FAFAFA"/>
<path d="M57.3411 71.0672C57.3195 71.0677 57.2982 71.0621 57.2796 71.0509C57.2611 71.0397 57.2462 71.0235 57.2367 71.0041C57.0058 70.6326 56.6388 70.3663 56.214 70.2621C56.1833 70.2554 56.1564 70.2367 56.1393 70.2102C56.1222 70.1837 56.1162 70.1516 56.1227 70.1207C56.1258 70.1053 56.1319 70.0907 56.1407 70.0777C56.1496 70.0648 56.1609 70.0537 56.1741 70.0452C56.1873 70.0367 56.202 70.0309 56.2175 70.0281C56.2329 70.0254 56.2488 70.0258 56.2641 70.0293C56.5092 70.0881 56.74 70.1954 56.9429 70.3449C57.1458 70.4944 57.3167 70.683 57.4455 70.8996C57.4603 70.9274 57.4635 70.9598 57.4546 70.99C57.4456 71.0201 57.4252 71.0455 57.3977 71.0607C57.3795 71.0668 57.3602 71.0691 57.3411 71.0672Z" fill="#FAFAFA"/>
<path d="M57.8913 70.4802C57.8698 70.4803 57.8486 70.4744 57.8302 70.4633C57.8118 70.4522 57.7968 70.4362 57.7868 70.4171C57.5548 70.0468 57.1883 69.7808 56.7642 69.6752C56.7338 69.6679 56.7075 69.6491 56.6908 69.6226C56.6741 69.5962 56.6685 69.5643 56.675 69.5338C56.6778 69.5185 56.6837 69.5039 56.6924 69.4909C56.701 69.478 56.7121 69.4669 56.7251 69.4584C56.7381 69.4498 56.7527 69.444 56.7681 69.4413C56.7834 69.4385 56.7991 69.4389 56.8143 69.4424C57.0595 69.5014 57.2906 69.6087 57.4938 69.7582C57.6971 69.9076 57.8684 70.0962 57.9979 70.3127C58.0125 70.3407 58.0154 70.3733 58.006 70.4035C57.9967 70.4337 57.9757 70.4589 57.9478 70.4737C57.9297 70.4802 57.9104 70.4824 57.8913 70.4802Z" fill="#FAFAFA"/>
<path d="M64.7473 70.6868C64.7295 70.5939 64.7335 70.4981 64.7588 70.407C64.7842 70.3159 64.8303 70.2319 64.8935 70.1616C64.9567 70.0912 65.0353 70.0364 65.1231 70.0015C65.211 69.9665 65.3058 69.9523 65.4 69.9601C66.1615 69.9601 66.7055 69.9818 66.638 70.5475V70.9522C66.638 70.9522 66.638 72.9691 66.7903 73.6219C66.9426 74.2746 67.3169 76.3416 65.7634 76.644C64.2099 76.9465 63.6442 75.6214 63.927 74.366C64.1024 73.6585 64.2088 72.9357 64.2447 72.2076C64.2795 71.7485 64.1033 70.0688 64.608 69.9601L64.7473 70.6868Z" fill="#ED5530"/>
<path d="M66.17 73.1847C66.1499 73.1843 66.1304 73.1782 66.1135 73.1673C65.7189 72.9781 65.266 72.9508 64.8515 73.0912C64.837 73.0967 64.8214 73.0993 64.8059 73.0988C64.7903 73.0983 64.775 73.0947 64.7608 73.0883C64.7466 73.0818 64.7339 73.0725 64.7233 73.0611C64.7127 73.0496 64.7045 73.0362 64.6992 73.0215C64.6936 73.0068 64.691 72.9912 64.6915 72.9754C64.6919 72.9597 64.6955 72.9442 64.702 72.9299C64.7084 72.9155 64.7177 72.9026 64.7292 72.8918C64.7406 72.881 64.7541 72.8726 64.7688 72.8671C65.0066 72.7853 65.2583 72.7515 65.5093 72.7676C65.7602 72.7836 66.0055 72.8492 66.231 72.9606C66.2583 72.9765 66.2783 73.0026 66.2864 73.0332C66.2946 73.0638 66.2903 73.0964 66.2745 73.1238C66.2642 73.1425 66.2491 73.158 66.2307 73.1687C66.2123 73.1795 66.1913 73.185 66.17 73.1847Z" fill="#FAFAFA"/>
<path d="M66.2527 72.2815C66.2323 72.2805 66.2123 72.2753 66.1939 72.2662C65.8006 72.0757 65.3481 72.0476 64.9342 72.1879C64.9194 72.196 64.9032 72.2008 64.8864 72.202C64.8697 72.2033 64.8528 72.2009 64.8371 72.1951C64.8213 72.1893 64.807 72.1801 64.7951 72.1683C64.7831 72.1565 64.7739 72.1423 64.7679 72.1266C64.762 72.1109 64.7594 72.0941 64.7605 72.0773C64.7616 72.0606 64.7662 72.0442 64.7741 72.0294C64.7821 72.0146 64.7931 72.0017 64.8064 71.9915C64.8198 71.9813 64.8351 71.9741 64.8515 71.9703C65.0887 71.8874 65.3402 71.853 65.5909 71.8691C65.8417 71.8851 66.0867 71.9514 66.3114 72.0639C66.3251 72.0714 66.3371 72.0815 66.3468 72.0937C66.3565 72.1059 66.3637 72.1198 66.368 72.1348C66.3722 72.1498 66.3734 72.1655 66.3716 72.1809C66.3697 72.1964 66.3648 72.2113 66.3571 72.2249C66.3461 72.2426 66.3307 72.2571 66.3124 72.267C66.2941 72.277 66.2735 72.2819 66.2527 72.2815Z" fill="#FAFAFA"/>
<path d="M66.3353 71.392C66.3149 71.391 66.2949 71.3858 66.2766 71.3768C65.8821 71.1877 65.4295 71.1597 65.0146 71.2984C64.9998 71.3068 64.9834 71.3119 64.9664 71.3132C64.9495 71.3146 64.9324 71.3123 64.9164 71.3065C64.9005 71.3006 64.886 71.2914 64.8739 71.2793C64.8619 71.2673 64.8526 71.2529 64.8467 71.2369C64.8408 71.2209 64.8384 71.2039 64.8397 71.1869C64.841 71.17 64.846 71.1535 64.8544 71.1387C64.8627 71.1238 64.8741 71.111 64.8879 71.101C64.9017 71.091 64.9174 71.0842 64.9341 71.0809C65.1713 70.9978 65.4228 70.9634 65.6736 70.9794C65.9244 70.9955 66.1694 71.0618 66.3941 71.1744C66.4077 71.1819 66.4197 71.192 66.4295 71.2042C66.4392 71.2164 66.4463 71.2304 66.4506 71.2454C66.4549 71.2603 66.4561 71.276 66.4542 71.2915C66.4524 71.3069 66.4474 71.3219 66.4398 71.3354C66.4288 71.3531 66.4134 71.3677 66.3951 71.3776C66.3767 71.3875 66.3561 71.3925 66.3353 71.392Z" fill="#FAFAFA"/>
<path d="M55.1432 71.0107C54.7905 71.2034 54.4523 71.4215 54.1314 71.6635C53.6245 72.0529 53.5418 73.267 54.98 73.4672C55.5855 73.5668 56.207 73.4748 56.7576 73.2039C56.6901 72.7336 56.5073 72.2873 56.2257 71.9047C55.944 71.5221 55.5722 71.215 55.1432 71.0107Z" fill="white"/>
<path d="M59.3295 71.3569C58.6484 71.528 58.0335 71.8975 57.5628 72.4187C57.2363 72.7634 56.8297 73.0222 56.3792 73.1721C55.9287 73.322 55.4481 73.3584 54.9801 73.2781C54.1751 73.1671 53.8466 72.7363 53.8031 72.3099C53.7617 72.7886 54.0576 73.3347 54.9801 73.463C55.4481 73.5434 55.9287 73.507 56.3792 73.357C56.8297 73.2071 57.2363 72.9483 57.5628 72.6036C58.0335 72.0825 58.6484 71.7129 59.3295 71.5418C60.0823 71.3482 60.165 70.9565 60.152 70.3887C60.1367 70.8565 59.9975 71.1937 59.3295 71.3569Z" fill="#37474F"/>
<path d="M66.9294 74.4158C66.5367 74.0156 66.0023 73.786 65.4416 73.7767C64.881 73.7673 64.3392 73.9789 63.9334 74.3658C63.6505 75.6212 64.2162 76.9462 65.7697 76.6438C66.8968 76.4153 67.0121 75.2796 66.9294 74.4158Z" fill="#F5F5F5"/>
<path d="M65.7785 76.3981C64.5296 76.6418 63.9204 75.8324 63.8747 74.8533C63.8225 75.9412 64.4252 76.9073 65.7785 76.644C66.7815 76.4482 66.9817 75.5213 66.9578 74.7119C66.9251 75.4539 66.6706 76.2219 65.7785 76.3981Z" fill="#455A64"/>
</svg>
