<svg width="15" height="21" viewBox="0 0 15 21" fill="none" xmlns="http://www.w3.org/2000/svg">
<path d="M8.42578 20.333C10.4297 17.8252 15 11.7471 15 8.33301C15 4.19238 11.6406 0.833008 7.5 0.833008C3.35938 0.833008 0 4.19238 0 8.33301C0 11.7471 4.57031 17.8252 6.57422 20.333C7.05469 20.9307 7.94531 20.9307 8.42578 20.333ZM7.5 5.83301C8.16304 5.83301 8.79893 6.0964 9.26777 6.56524C9.73661 7.03408 10 7.66997 10 8.33301C10 8.99605 9.73661 9.63193 9.26777 10.1008C8.79893 10.5696 8.16304 10.833 7.5 10.833C6.83696 10.833 6.20107 10.5696 5.73223 10.1008C5.26339 9.63193 5 8.99605 5 8.33301C5 7.66997 5.26339 7.03408 5.73223 6.56524C6.20107 6.0964 6.83696 5.83301 7.5 5.83301Z" fill="#EA580C"/>
</svg>
