<svg width="17" height="19" viewBox="0 0 17 19" fill="none" xmlns="http://www.w3.org/2000/svg">
<path d="M5.73438 5.3125V7H11.3594V5.3125C11.3594 3.75859 10.1008 2.5 8.54688 2.5C6.99297 2.5 5.73438 3.75859 5.73438 5.3125ZM3.48438 7V5.3125C3.48438 2.51758 5.75195 0.25 8.54688 0.25C11.3418 0.25 13.6094 2.51758 13.6094 5.3125V7H14.1719C15.4129 7 16.4219 8.00898 16.4219 9.25V16C16.4219 17.241 15.4129 18.25 14.1719 18.25H2.92188C1.68086 18.25 0.671875 17.241 0.671875 16V9.25C0.671875 8.00898 1.68086 7 2.92188 7H3.48438Z" fill="white"/>
</svg>
