<svg width="15" height="15" viewBox="0 0 15 15" fill="none" xmlns="http://www.w3.org/2000/svg">
<path d="M7.28042 0.821191L1.15542 3.44619C0.772607 3.61025 0.559326 4.02041 0.644091 4.4251C0.728857 4.82978 1.08433 5.1251 1.49995 5.1251V5.34385C1.49995 5.70752 1.79253 6.0001 2.1562 6.0001H13.0937C13.4574 6.0001 13.75 5.70752 13.75 5.34385V5.1251C14.1656 5.1251 14.5238 4.83252 14.6058 4.4251C14.6878 4.01768 14.4746 3.60752 14.0945 3.44619L7.96948 0.821191C7.75073 0.728223 7.49917 0.728223 7.28042 0.821191ZM4.12495 6.8751H2.37495V12.2427C2.35854 12.2509 2.34214 12.2618 2.32573 12.2728L1.01323 13.1478C0.69331 13.361 0.548388 13.7603 0.660498 14.1294C0.772607 14.4985 1.1144 14.7501 1.49995 14.7501H13.75C14.1355 14.7501 14.4746 14.4985 14.5867 14.1294C14.6988 13.7603 14.5566 13.361 14.2339 13.1478L12.9214 12.2728C12.905 12.2618 12.8886 12.2536 12.8722 12.2427V6.8751H11.125V12.1251H10.0312V6.8751H8.2812V12.1251H6.9687V6.8751H5.2187V12.1251H4.12495V6.8751ZM7.62495 2.5001C7.85702 2.5001 8.07958 2.59228 8.24367 2.75638C8.40776 2.92047 8.49995 3.14303 8.49995 3.3751C8.49995 3.60716 8.40776 3.82972 8.24367 3.99382C8.07958 4.15791 7.85702 4.2501 7.62495 4.2501C7.39289 4.2501 7.17033 4.15791 7.00623 3.99382C6.84214 3.82972 6.74995 3.60716 6.74995 3.3751C6.74995 3.14303 6.84214 2.92047 7.00623 2.75638C7.17033 2.59228 7.39289 2.5001 7.62495 2.5001Z" fill="#6B7280"/>
</svg>
