<svg width="13" height="16" viewBox="0 0 13 16" fill="none" xmlns="http://www.w3.org/2000/svg">
<path d="M1.82812 0C1 0 0.328125 0.671875 0.328125 1.5V14.5C0.328125 15.3281 1 16 1.82812 16H4.82812V13.5C4.82812 12.6719 5.5 12 6.32812 12C7.15625 12 7.82812 12.6719 7.82812 13.5V16H10.8281C11.6562 16 12.3281 15.3281 12.3281 14.5V1.5C12.3281 0.671875 11.6562 0 10.8281 0H1.82812ZM2.32812 7.5C2.32812 7.225 2.55312 7 2.82812 7H3.82812C4.10313 7 4.32812 7.225 4.32812 7.5V8.5C4.32812 8.775 4.10313 9 3.82812 9H2.82812C2.55312 9 2.32812 8.775 2.32812 8.5V7.5ZM5.82812 7H6.82812C7.10313 7 7.32812 7.225 7.32812 7.5V8.5C7.32812 8.775 7.10313 9 6.82812 9H5.82812C5.55312 9 5.32812 8.775 5.32812 8.5V7.5C5.32812 7.225 5.55312 7 5.82812 7ZM8.32812 7.5C8.32812 7.225 8.55313 7 8.82812 7H9.82812C10.1031 7 10.3281 7.225 10.3281 7.5V8.5C10.3281 8.775 10.1031 9 9.82812 9H8.82812C8.55313 9 8.32812 8.775 8.32812 8.5V7.5ZM2.82812 3H3.82812C4.10313 3 4.32812 3.225 4.32812 3.5V4.5C4.32812 4.775 4.10313 5 3.82812 5H2.82812C2.55312 5 2.32812 4.775 2.32812 4.5V3.5C2.32812 3.225 2.55312 3 2.82812 3ZM5.32812 3.5C5.32812 3.225 5.55312 3 5.82812 3H6.82812C7.10313 3 7.32812 3.225 7.32812 3.5V4.5C7.32812 4.775 7.10313 5 6.82812 5H5.82812C5.55312 5 5.32812 4.775 5.32812 4.5V3.5ZM8.82812 3H9.82812C10.1031 3 10.3281 3.225 10.3281 3.5V4.5C10.3281 4.775 10.1031 5 9.82812 5H8.82812C8.55313 5 8.32812 4.775 8.32812 4.5V3.5C8.32812 3.225 8.55313 3 8.82812 3Z" fill="url(#paint0_linear_261_2238)"/>
<defs>
<linearGradient id="paint0_linear_261_2238" x1="5.86146" y1="-1.0302e-09" x2="8.57835" y2="17.7891" gradientUnits="userSpaceOnUse">
<stop stop-color="#6B46C1"/>
<stop offset="1" stop-color="#3B82F6"/>
</linearGradient>
</defs>
</svg>
