<svg width="18" height="19" viewBox="0 0 18 19" fill="none" xmlns="http://www.w3.org/2000/svg">
<path d="M9 1.9375C4.96055 1.9375 1.6875 5.21055 1.6875 9.25V10.6562C1.6875 11.1238 1.31133 11.5 0.84375 11.5C0.376172 11.5 0 11.1238 0 10.6562V9.25C0 4.27891 4.02891 0.25 9 0.25C13.9711 0.25 18 4.27891 18 9.25V14.316C18 16.0246 16.6148 17.4098 14.9027 17.4098L11.025 17.4062C10.7332 17.909 10.1883 18.25 9.5625 18.25H8.4375C7.50586 18.25 6.75 17.4941 6.75 16.5625C6.75 15.6309 7.50586 14.875 8.4375 14.875H9.5625C10.1883 14.875 10.7332 15.216 11.025 15.7188L14.9062 15.7223C15.6832 15.7223 16.3125 15.093 16.3125 14.316V9.25C16.3125 5.21055 13.0395 1.9375 9 1.9375ZM5.0625 7.5625H5.625C6.24727 7.5625 6.75 8.06523 6.75 8.6875V12.625C6.75 13.2473 6.24727 13.75 5.625 13.75H5.0625C3.82148 13.75 2.8125 12.741 2.8125 11.5V9.8125C2.8125 8.57148 3.82148 7.5625 5.0625 7.5625ZM12.9375 7.5625C14.1785 7.5625 15.1875 8.57148 15.1875 9.8125V11.5C15.1875 12.741 14.1785 13.75 12.9375 13.75H12.375C11.7527 13.75 11.25 13.2473 11.25 12.625V8.6875C11.25 8.06523 11.7527 7.5625 12.375 7.5625H12.9375Z" fill="white"/>
</svg>
