<svg width="15" height="16" viewBox="0 0 15 16" fill="none" xmlns="http://www.w3.org/2000/svg">
<path d="M13.6562 0C13.1562 0 9.65625 1 9.65625 5.5V9C9.65625 10.1031 10.5531 11 11.6562 11H12.6562V15C12.6562 15.5531 13.1031 16 13.6562 16C14.2094 16 14.6562 15.5531 14.6562 15V11V7.5V1C14.6562 0.446875 14.2094 0 13.6562 0ZM2.65625 0.5C2.65625 0.24375 2.46563 0.03125 2.20938 0.003125C1.95312 -0.025 1.725 0.14375 1.66875 0.390625L0.721875 4.65C0.678125 4.84688 0.65625 5.04688 0.65625 5.24687C0.65625 6.68125 1.75312 7.85938 3.15625 7.9875V15C3.15625 15.5531 3.60313 16 4.15625 16C4.70937 16 5.15625 15.5531 5.15625 15V7.9875C6.55937 7.85938 7.65625 6.68125 7.65625 5.24687C7.65625 5.04688 7.63437 4.84688 7.59062 4.65L6.64375 0.390625C6.5875 0.140625 6.35313 -0.025 6.1 0.003125C5.84687 0.03125 5.65625 0.24375 5.65625 0.5V4.69375C5.65625 4.8625 5.51875 5 5.35 5C5.19062 5 5.05937 4.87813 5.04375 4.71875L4.65313 0.45625C4.63125 0.196875 4.41563 0 4.15625 0C3.89687 0 3.68125 0.196875 3.65937 0.45625L3.27187 4.71875C3.25625 4.87813 3.125 5 2.96563 5C2.79688 5 2.65937 4.8625 2.65937 4.69375V0.5H2.65625ZM4.16563 5.25H4.15625H4.14687L4.15625 5.22813L4.16563 5.25Z" fill="#F97316"/>
</svg>
