<svg width="28" height="22" viewBox="0 0 28 22" fill="none" xmlns="http://www.w3.org/2000/svg">
<path d="M23.1359 18.2328C23.1359 18.5516 22.9203 18.7812 22.6109 18.7812C22.2922 18.7812 22.0859 18.5375 22.0859 18.2328C22.0859 17.9281 22.2922 17.6844 22.6109 17.6844C22.9203 17.6844 23.1359 17.9281 23.1359 18.2328ZM8.56719 17.6844C8.23438 17.6844 8.04219 17.9281 8.04219 18.2328C8.04219 18.5375 8.23438 18.7812 8.56719 18.7812C8.87188 18.7812 9.07812 18.5516 9.07812 18.2328C9.07344 17.9281 8.87188 17.6844 8.56719 17.6844ZM14.075 17.6703C13.8219 17.6703 13.6672 17.8344 13.6297 18.0781H14.525C14.4828 17.8109 14.3188 17.6703 14.075 17.6703ZM19.1281 17.6844C18.8094 17.6844 18.6172 17.9281 18.6172 18.2328C18.6172 18.5375 18.8094 18.7812 19.1281 18.7812C19.4469 18.7812 19.6531 18.5516 19.6531 18.2328C19.6531 17.9281 19.4469 17.6844 19.1281 17.6844ZM24.0922 18.9078C24.0922 18.9219 24.1063 18.9312 24.1063 18.9594C24.1063 18.9734 24.0922 18.9828 24.0922 19.0109C24.0781 19.025 24.0781 19.0344 24.0687 19.0484C24.0547 19.0625 24.0453 19.0719 24.0172 19.0719C24.0031 19.0859 23.9937 19.0859 23.9656 19.0859C23.9516 19.0859 23.9422 19.0859 23.9141 19.0719C23.9 19.0719 23.8906 19.0578 23.8766 19.0484C23.8625 19.0344 23.8531 19.025 23.8531 19.0109C23.8391 18.9875 23.8391 18.9734 23.8391 18.9594C23.8391 18.9359 23.8391 18.9219 23.8531 18.9078C23.8531 18.8844 23.8672 18.8703 23.8766 18.8563C23.8906 18.8422 23.9 18.8422 23.9141 18.8328C23.9375 18.8188 23.9516 18.8187 23.9656 18.8187C23.9891 18.8187 24.0031 18.8188 24.0172 18.8328C24.0406 18.8469 24.0547 18.8469 24.0687 18.8563C24.0828 18.8656 24.0781 18.8844 24.0922 18.9078ZM23.9891 18.9734C24.0125 18.9734 24.0125 18.9594 24.0266 18.9594C24.0406 18.9453 24.0406 18.9359 24.0406 18.9219C24.0406 18.9078 24.0406 18.8984 24.0266 18.8844C24.0125 18.8844 24.0031 18.8703 23.975 18.8703H23.9V19.0344H23.9375V18.9688H23.9516L24.0031 19.0344H24.0406L23.9891 18.9734ZM27.5 2.79688V19.2969C27.5 20.5391 26.4922 21.5469 25.25 21.5469H2.75C1.50781 21.5469 0.5 20.5391 0.5 19.2969V2.79688C0.5 1.55469 1.50781 0.546875 2.75 0.546875H25.25C26.4922 0.546875 27.5 1.55469 27.5 2.79688ZM3.5 9.34063C3.5 12.9266 6.41094 15.8328 9.99219 15.8328C11.2672 15.8328 12.5188 15.4484 13.5781 14.75C10.1609 11.9703 10.1844 6.725 13.5781 3.94531C12.5188 3.24219 11.2672 2.8625 9.99219 2.8625C6.41094 2.85781 3.5 5.76875 3.5 9.34063ZM14 14.4406C17.3047 11.8625 17.2906 6.8375 14 4.24531C10.7094 6.8375 10.6953 11.8672 14 14.4406ZM7.32969 18.0172C7.32969 17.6094 7.0625 17.3422 6.64062 17.3281C6.425 17.3281 6.19531 17.3937 6.04062 17.6328C5.92812 17.4406 5.73594 17.3281 5.46875 17.3281C5.29063 17.3281 5.1125 17.3937 4.97188 17.5812V17.375H4.5875V19.0953H4.97188C4.97188 18.2094 4.85469 17.6797 5.39375 17.6797C5.87188 17.6797 5.77812 18.1578 5.77812 19.0953H6.14844C6.14844 18.2375 6.03125 17.6797 6.57031 17.6797C7.04844 17.6797 6.95469 18.1484 6.95469 19.0953H7.33906V18.0172H7.32969ZM9.43438 17.375H9.06406V17.5812C8.9375 17.4266 8.75937 17.3281 8.51562 17.3281C8.03281 17.3281 7.6625 17.7125 7.6625 18.2328C7.6625 18.7578 8.03281 19.1375 8.51562 19.1375C8.75937 19.1375 8.9375 19.0484 9.06406 18.8844V19.1H9.43438V17.375ZM11.3328 18.575C11.3328 17.8719 10.2594 18.1906 10.2594 17.8625C10.2594 17.5953 10.8172 17.6375 11.1266 17.8109L11.2812 17.5062C10.8406 17.2203 9.86563 17.225 9.86563 17.8906C9.86563 18.5609 10.9391 18.2797 10.9391 18.5938C10.9391 18.8891 10.3062 18.8656 9.96875 18.6312L9.80469 18.9266C10.3297 19.2828 11.3328 19.2078 11.3328 18.575ZM12.9922 19.0109L12.8891 18.6922C12.7109 18.7906 12.3172 18.8984 12.3172 18.5V17.7219H12.9313V17.375H12.3172V16.85H11.9328V17.375H11.5766V17.7172H11.9328V18.5C11.9328 19.325 12.7437 19.175 12.9922 19.0109ZM13.6156 18.3828H14.9047C14.9047 17.6234 14.5578 17.3234 14.0891 17.3234C13.5922 17.3234 13.2359 17.6938 13.2359 18.2281C13.2359 19.1891 14.2953 19.3484 14.8203 18.8937L14.6422 18.6125C14.2766 18.9125 13.7234 18.8844 13.6156 18.3828ZM16.3859 17.375C16.1703 17.2812 15.8422 17.2906 15.6734 17.5812V17.375H15.2891V19.0953H15.6734V18.125C15.6734 17.5812 16.1187 17.6516 16.2734 17.7313L16.3859 17.375ZM16.8828 18.2328C16.8828 17.6984 17.4266 17.525 17.8531 17.8391L18.0312 17.5344C17.4875 17.1078 16.4984 17.3422 16.4984 18.2375C16.4984 19.1656 17.5484 19.3531 18.0312 18.9406L17.8531 18.6359C17.4219 18.9406 16.8828 18.7578 16.8828 18.2328ZM20.0094 17.375H19.625V17.5812C19.2359 17.0656 18.2234 17.3562 18.2234 18.2328C18.2234 19.1328 19.2734 19.3906 19.625 18.8844V19.1H20.0094V17.375ZM21.5891 17.375C21.4766 17.3188 21.0734 17.2391 20.8766 17.5812V17.375H20.5062V19.0953H20.8766V18.125C20.8766 17.6094 21.2984 17.6422 21.4766 17.7313L21.5891 17.375ZM23.4781 16.6766H23.1078V17.5812C22.7234 17.0703 21.7062 17.3422 21.7062 18.2328C21.7062 19.1422 22.7609 19.3859 23.1078 18.8844V19.1H23.4781V16.6766ZM23.8344 13.1562V13.3719H23.8719V13.1562H23.9609V13.1188H23.7453V13.1562H23.8344ZM24.1437 18.9594C24.1437 18.9359 24.1438 18.9078 24.1297 18.8844C24.1156 18.8703 24.1062 18.8469 24.0922 18.8328C24.0781 18.8188 24.0547 18.8094 24.0406 18.7953C24.0172 18.7953 23.9891 18.7812 23.9656 18.7812C23.9516 18.7812 23.9281 18.7953 23.9 18.7953C23.8766 18.8094 23.8625 18.8188 23.8484 18.8328C23.825 18.8469 23.8109 18.8703 23.8109 18.8844C23.7969 18.9078 23.7969 18.9359 23.7969 18.9594C23.7969 18.9734 23.7969 18.9969 23.8109 19.025C23.8109 19.0391 23.825 19.0625 23.8484 19.0766C23.8625 19.0906 23.8719 19.1 23.9 19.1141C23.9234 19.1281 23.9516 19.1281 23.9656 19.1281C23.9891 19.1281 24.0172 19.1281 24.0406 19.1141C24.0547 19.1 24.0781 19.0906 24.0922 19.0766C24.1062 19.0625 24.1156 19.0391 24.1297 19.025C24.1438 18.9969 24.1437 18.9734 24.1437 18.9594ZM24.2938 13.1141H24.2281L24.1531 13.2781L24.0781 13.1141H24.0125V13.3672H24.05V13.175L24.125 13.3391H24.1766L24.2422 13.175V13.3672H24.2938V13.1141ZM24.5 9.34063C24.5 5.76875 21.5891 2.85781 18.0078 2.85781C16.7328 2.85781 15.4812 3.24219 14.4219 3.94063C17.8016 6.72031 17.8531 11.9797 14.4219 14.7453C15.4812 15.4484 16.7422 15.8281 18.0078 15.8281C21.5891 15.8328 24.5 12.9266 24.5 9.34063Z" fill="#EF4444"/>
</svg>
