<svg width="18" height="21" viewBox="0 0 18 21" fill="none" xmlns="http://www.w3.org/2000/svg">
<path d="M16.2812 0.5C15.6562 0.5 11.2812 1.75 11.2812 7.375V11.75C11.2812 13.1289 12.4023 14.25 13.7812 14.25H15.0312V19.25C15.0312 19.9414 15.5898 20.5 16.2812 20.5C16.9727 20.5 17.5312 19.9414 17.5312 19.25V14.25V9.875V1.75C17.5312 1.05859 16.9727 0.5 16.2812 0.5ZM2.53125 1.125C2.53125 0.804688 2.29297 0.539062 1.97266 0.503906C1.65234 0.46875 1.36719 0.679688 1.29688 0.988281L0.113281 6.3125C0.0585937 6.55859 0.03125 6.80859 0.03125 7.05859C0.03125 8.85156 1.40234 10.3242 3.15625 10.4844V19.25C3.15625 19.9414 3.71484 20.5 4.40625 20.5C5.09766 20.5 5.65625 19.9414 5.65625 19.25V10.4844C7.41016 10.3242 8.78125 8.85156 8.78125 7.05859C8.78125 6.80859 8.75391 6.55859 8.69922 6.3125L7.51562 0.988281C7.44531 0.675781 7.15234 0.46875 6.83594 0.503906C6.51953 0.539062 6.28125 0.804688 6.28125 1.125V6.36719C6.28125 6.57812 6.10938 6.75 5.89844 6.75C5.69922 6.75 5.53516 6.59766 5.51562 6.39844L5.02734 1.07031C5 0.746094 4.73047 0.5 4.40625 0.5C4.08203 0.5 3.8125 0.746094 3.78516 1.07031L3.30078 6.39844C3.28125 6.59766 3.11719 6.75 2.91797 6.75C2.70703 6.75 2.53516 6.57812 2.53516 6.36719V1.125H2.53125ZM4.41797 7.0625H4.40625H4.39453L4.40625 7.03516L4.41797 7.0625Z" fill="white"/>
</svg>
