<svg width="18" height="16" viewBox="0 0 18 16" fill="none" xmlns="http://www.w3.org/2000/svg">
<path d="M10 0.999534C10 0.690159 9.85938 0.399534 9.61563 0.212034C9.37188 0.024534 9.05625 -0.044216 8.75625 0.030784L3.13438 1.43703C2.46875 1.60266 2 2.20266 2 2.89016V13.9995H1C0.446875 13.9995 0 14.4464 0 14.9995C0 15.5527 0.446875 15.9995 1 15.9995H3H9H10V14.9995V0.999534ZM8 7.99953C8 8.55266 7.66563 8.99953 7.25 8.99953C6.83437 8.99953 6.5 8.55266 6.5 7.99953C6.5 7.44641 6.83437 6.99953 7.25 6.99953C7.66563 6.99953 8 7.44641 8 7.99953ZM11 3.99953H14V14.9995C14 15.5527 14.4469 15.9995 15 15.9995H17C17.5531 15.9995 18 15.5527 18 14.9995C18 14.4464 17.5531 13.9995 17 13.9995H16V3.99953C16 2.89641 15.1031 1.99953 14 1.99953H11V3.99953Z" fill="url(#paint0_linear_261_2235)"/>
<defs>
<linearGradient id="paint0_linear_261_2235" x1="8.3" y1="0.000976561" x2="10.1342" y2="18.0167" gradientUnits="userSpaceOnUse">
<stop stop-color="#6B46C1"/>
<stop offset="1" stop-color="#3B82F6"/>
</linearGradient>
</defs>
</svg>
