<svg width="17" height="19" viewBox="0 0 17 19" fill="none" xmlns="http://www.w3.org/2000/svg">
<path d="M15 0.25C14.4375 0.25 10.5 1.375 10.5 6.4375V10.375C10.5 11.616 11.509 12.625 12.75 12.625H13.875V17.125C13.875 17.7473 14.3777 18.25 15 18.25C15.6223 18.25 16.125 17.7473 16.125 17.125V12.625V8.6875V1.375C16.125 0.752734 15.6223 0.25 15 0.25ZM2.625 0.8125C2.625 0.524219 2.41055 0.285156 2.12227 0.253516C1.83398 0.221875 1.57734 0.411719 1.51406 0.689453L0.448828 5.48125C0.399609 5.70273 0.375 5.92773 0.375 6.15273C0.375 7.76641 1.60898 9.0918 3.1875 9.23594V17.125C3.1875 17.7473 3.69023 18.25 4.3125 18.25C4.93477 18.25 5.4375 17.7473 5.4375 17.125V9.23594C7.01602 9.0918 8.25 7.76641 8.25 6.15273C8.25 5.92773 8.22539 5.70273 8.17617 5.48125L7.11094 0.689453C7.04766 0.408203 6.78398 0.221875 6.49922 0.253516C6.21445 0.285156 6 0.524219 6 0.8125V5.53047C6 5.72031 5.84531 5.875 5.65547 5.875C5.47617 5.875 5.32852 5.73789 5.31094 5.55859L4.87148 0.763281C4.84688 0.471484 4.6043 0.25 4.3125 0.25C4.0207 0.25 3.77813 0.471484 3.75352 0.763281L3.31758 5.55859C3.3 5.73789 3.15234 5.875 2.97305 5.875C2.7832 5.875 2.62852 5.72031 2.62852 5.53047V0.8125H2.625ZM4.32305 6.15625H4.3125H4.30195L4.3125 6.13164L4.32305 6.15625Z" fill="#9CA3AF"/>
</svg>
