<svg width="13" height="13" viewBox="0 0 13 13" fill="none" xmlns="http://www.w3.org/2000/svg">
<path d="M10.2883 5.91426L10.5531 5.64941L9.75857 4.85488L8.3031 3.39941L7.50857 2.60488L7.24373 2.86973L6.71404 3.39941L2.04529 8.06816C1.80154 8.31191 1.62341 8.61426 1.52498 8.94473L0.695289 11.7666C0.636695 11.9635 0.690601 12.1768 0.838257 12.3221C0.985914 12.4674 1.19685 12.5213 1.39373 12.465L4.21326 11.6354C4.54373 11.5369 4.84607 11.3588 5.08982 11.115L9.75857 6.44629L10.2883 5.91426ZM4.42185 9.86113L4.20857 10.3932C4.11482 10.4658 4.00935 10.5197 3.89685 10.5549L2.06404 11.0939L2.6031 9.26348C2.63591 9.14863 2.69216 9.04316 2.76482 8.95176L3.29685 8.73848V9.48848C3.29685 9.69473 3.4656 9.86348 3.67185 9.86348H4.42185V9.86113ZM9.17263 0.938477L8.83513 1.27832L8.30545 1.80801L8.03826 2.07285L8.83279 2.86738L10.2883 4.32285L11.0828 5.11738L11.3476 4.85254L11.8773 4.32285L12.2172 3.98301C12.8031 3.39707 12.8031 2.44785 12.2172 1.86191L11.2961 0.938477C10.7101 0.352539 9.76091 0.352539 9.17498 0.938477H9.17263ZM8.0617 4.87598L4.6867 8.25098C4.54138 8.39629 4.30232 8.39629 4.15701 8.25098C4.01169 8.10566 4.01169 7.8666 4.15701 7.72129L7.53201 4.34629C7.67732 4.20098 7.91638 4.20098 8.0617 4.34629C8.20701 4.4916 8.20701 4.73066 8.0617 4.87598Z" fill="#9CA3AF"/>
</svg>
