<svg width="36" height="37" viewBox="0 0 36 37" fill="none" xmlns="http://www.w3.org/2000/svg">
<path opacity="0.2" d="M18 18.333C24.8345 18.333 30.375 15.3109 30.375 11.583C30.375 7.85509 24.8345 4.83301 18 4.83301C11.1655 4.83301 5.625 7.85509 5.625 11.583C5.625 15.3109 11.1655 18.333 18 18.333Z" fill="#0B63E5"/>
<path d="M18 18.333C24.8345 18.333 30.375 15.3109 30.375 11.583C30.375 7.85509 24.8345 4.83301 18 4.83301C11.1655 4.83301 5.625 7.85509 5.625 11.583C5.625 15.3109 11.1655 18.333 18 18.333Z" stroke="#0B63E5" stroke-width="2.5" stroke-linecap="round" stroke-linejoin="round"/>
<path d="M5.625 11.583V18.333C5.625 22.0609 11.1655 25.083 18 25.083C24.8345 25.083 30.375 22.0609 30.375 18.333V11.583" stroke="#0B63E5" stroke-width="2.5" stroke-linecap="round" stroke-linejoin="round"/>
<path d="M5.625 18.333V25.083C5.625 28.8109 11.1655 31.833 18 31.833C24.8345 31.833 30.375 28.8109 30.375 25.083V18.333" stroke="#0B63E5" stroke-width="2.5" stroke-linecap="round" stroke-linejoin="round"/>
</svg>
