<svg width="17" height="16" viewBox="0 0 17 16" fill="none" xmlns="http://www.w3.org/2000/svg">
<path d="M4.96875 0C3.86562 0 2.96875 0.896875 2.96875 2V5H4.96875V2H12.0531L12.9688 2.91563V5H14.9688V2.91563C14.9688 2.38438 14.7594 1.875 14.3844 1.5L13.4688 0.584375C13.0938 0.209375 12.5844 0 12.0531 0H4.96875ZM12.9688 11V12V14H4.96875V12V11.5V11H12.9688ZM14.9688 12H15.9688C16.5219 12 16.9688 11.5531 16.9688 11V8C16.9688 6.89687 16.0719 6 14.9688 6H2.96875C1.86563 6 0.96875 6.89687 0.96875 8V11C0.96875 11.5531 1.41562 12 1.96875 12H2.96875V14C2.96875 15.1031 3.86562 16 4.96875 16H12.9688C14.0719 16 14.9688 15.1031 14.9688 14V12ZM14.4688 7.75C14.6677 7.75 14.8584 7.82902 14.9991 7.96967C15.1397 8.11032 15.2188 8.30109 15.2188 8.5C15.2188 8.69891 15.1397 8.88968 14.9991 9.03033C14.8584 9.17098 14.6677 9.25 14.4688 9.25C14.2698 9.25 14.0791 9.17098 13.9384 9.03033C13.7978 8.88968 13.7188 8.69891 13.7188 8.5C13.7188 8.30109 13.7978 8.11032 13.9384 7.96967C14.0791 7.82902 14.2698 7.75 14.4688 7.75Z" fill="white"/>
</svg>
