<svg width="16" height="15" viewBox="0 0 16 15" fill="none" xmlns="http://www.w3.org/2000/svg">
<path d="M6.6207 1.91758L5.58984 2.30313C5.50781 2.3332 5.45312 2.4125 5.45312 2.5C5.45312 2.5875 5.50781 2.6668 5.58984 2.69687L6.6207 3.08242L7.00625 4.11328C7.03633 4.19531 7.11562 4.25 7.20312 4.25C7.29063 4.25 7.36992 4.19531 7.4 4.11328L7.78555 3.08242L8.81641 2.69687C8.89844 2.6668 8.95312 2.5875 8.95312 2.5C8.95312 2.4125 8.89844 2.3332 8.81641 2.30313L7.78555 1.91758L7.4 0.886719C7.36992 0.804688 7.29063 0.75 7.20312 0.75C7.11562 0.75 7.03633 0.804688 7.00625 0.886719L6.6207 1.91758ZM1.46367 11.5617C0.952344 12.073 0.952344 12.9043 1.46367 13.4184L2.40977 14.3645C2.92109 14.8758 3.75234 14.8758 4.26641 14.3645L14.6926 3.93555C15.2039 3.42422 15.2039 2.59297 14.6926 2.07891L13.7465 1.13555C13.2352 0.624219 12.4039 0.624219 11.8898 1.13555L1.46367 11.5617ZM13.4539 3.00859L10.5828 5.87969L9.9457 5.24258L12.8168 2.37148L13.4539 3.00859ZM0.408203 3.95469C0.285156 4.00117 0.203125 4.11875 0.203125 4.25C0.203125 4.38125 0.285156 4.49883 0.408203 4.54531L1.95312 5.125L2.53281 6.66992C2.5793 6.79297 2.69688 6.875 2.82812 6.875C2.95937 6.875 3.07695 6.79297 3.12344 6.66992L3.70312 5.125L5.24805 4.54531C5.37109 4.49883 5.45312 4.38125 5.45312 4.25C5.45312 4.11875 5.37109 4.00117 5.24805 3.95469L3.70312 3.375L3.12344 1.83008C3.07695 1.70703 2.95937 1.625 2.82812 1.625C2.69688 1.625 2.5793 1.70703 2.53281 1.83008L1.95312 3.375L0.408203 3.95469ZM10.0332 10.9547C9.91016 11.0012 9.82812 11.1187 9.82812 11.25C9.82812 11.3813 9.91016 11.4988 10.0332 11.5453L11.5781 12.125L12.1578 13.6699C12.2043 13.793 12.3219 13.875 12.4531 13.875C12.5844 13.875 12.702 13.793 12.7484 13.6699L13.3281 12.125L14.873 11.5453C14.9961 11.4988 15.0781 11.3813 15.0781 11.25C15.0781 11.1187 14.9961 11.0012 14.873 10.9547L13.3281 10.375L12.7484 8.83008C12.702 8.70703 12.5844 8.625 12.4531 8.625C12.3219 8.625 12.2043 8.70703 12.1578 8.83008L11.5781 10.375L10.0332 10.9547Z" fill="#374151"/>
</svg>
