<svg width="18" height="17" viewBox="0 0 18 17" fill="none" xmlns="http://www.w3.org/2000/svg">
<path d="M12.1289 0.624609L16.6219 5.17031C18.4641 7.03359 18.4641 10.0289 16.6219 11.8922L12.6844 15.8754C12.3574 16.2059 11.823 16.2094 11.4926 15.8824C11.1621 15.5555 11.1586 15.0211 11.4855 14.6906L15.4195 10.7074C16.6113 9.50156 16.6113 7.56445 15.4195 6.35859L10.9301 1.81289C10.6031 1.48242 10.6066 0.948047 10.9371 0.621094C11.2676 0.294141 11.802 0.297656 12.1289 0.628125V0.624609ZM0 7.31836V2.0625C0 1.13086 0.755859 0.375 1.6875 0.375H6.94336C7.54102 0.375 8.11406 0.610547 8.53594 1.03242L14.4422 6.93867C15.3211 7.81758 15.3211 9.24141 14.4422 10.1203L9.74883 14.8137C8.86992 15.6926 7.44609 15.6926 6.56719 14.8137L0.660937 8.90742C0.235547 8.48555 0 7.91602 0 7.31836ZM5.0625 4.3125C5.0625 4.01413 4.94397 3.72798 4.733 3.517C4.52202 3.30603 4.23587 3.1875 3.9375 3.1875C3.63913 3.1875 3.35298 3.30603 3.142 3.517C2.93103 3.72798 2.8125 4.01413 2.8125 4.3125C2.8125 4.61087 2.93103 4.89702 3.142 5.108C3.35298 5.31897 3.63913 5.4375 3.9375 5.4375C4.23587 5.4375 4.52202 5.31897 4.733 5.108C4.94397 4.89702 5.0625 4.61087 5.0625 4.3125Z" fill="#CA8A04"/>
</svg>
