<svg width="11" height="11" viewBox="0 0 11 11" fill="none" xmlns="http://www.w3.org/2000/svg">
<path d="M6.57812 1.375C6.57812 0.960156 6.24297 0.625 5.82812 0.625C5.41328 0.625 5.07812 0.960156 5.07812 1.375V4.75H1.70312C1.28828 4.75 0.953125 5.08516 0.953125 5.5C0.953125 5.91484 1.28828 6.25 1.70312 6.25H5.07812V9.625C5.07812 10.0398 5.41328 10.375 5.82812 10.375C6.24297 10.375 6.57812 10.0398 6.57812 9.625V6.25H9.95312C10.368 6.25 10.7031 5.91484 10.7031 5.5C10.7031 5.08516 10.368 4.75 9.95312 4.75H6.57812V1.375Z" fill="white"/>
</svg>
