<svg width="18" height="16" viewBox="0 0 18 16" fill="none" xmlns="http://www.w3.org/2000/svg">
<path d="M7.63125 1.33438L6.45312 1.775C6.35938 1.80937 6.29688 1.9 6.29688 2C6.29688 2.1 6.35938 2.19062 6.45312 2.225L7.63125 2.66563L8.07188 3.84375C8.10625 3.9375 8.19688 4 8.29688 4C8.39688 4 8.4875 3.9375 8.52188 3.84375L8.9625 2.66563L10.1406 2.225C10.2344 2.19062 10.2969 2.1 10.2969 2C10.2969 1.9 10.2344 1.80937 10.1406 1.775L8.9625 1.33438L8.52188 0.15625C8.4875 0.0625 8.39688 0 8.29688 0C8.19688 0 8.10625 0.0625 8.07188 0.15625L7.63125 1.33438ZM1.7375 12.3562C1.15312 12.9406 1.15312 13.8906 1.7375 14.4781L2.81875 15.5594C3.40312 16.1437 4.35313 16.1437 4.94063 15.5594L16.8563 3.64062C17.4406 3.05625 17.4406 2.10625 16.8563 1.51875L15.775 0.440625C15.1906 -0.14375 14.2406 -0.14375 13.6531 0.440625L1.7375 12.3562ZM15.4406 2.58125L12.1594 5.8625L11.4312 5.13438L14.7125 1.85312L15.4406 2.58125ZM0.53125 3.6625C0.390625 3.71562 0.296875 3.85 0.296875 4C0.296875 4.15 0.390625 4.28438 0.53125 4.3375L2.29688 5L2.95937 6.76562C3.0125 6.90625 3.14687 7 3.29688 7C3.44688 7 3.58125 6.90625 3.63438 6.76562L4.29688 5L6.0625 4.3375C6.20312 4.28438 6.29688 4.15 6.29688 4C6.29688 3.85 6.20312 3.71562 6.0625 3.6625L4.29688 3L3.63438 1.23438C3.58125 1.09375 3.44688 1 3.29688 1C3.14687 1 3.0125 1.09375 2.95937 1.23438L2.29688 3L0.53125 3.6625ZM11.5312 11.6625C11.3906 11.7156 11.2969 11.85 11.2969 12C11.2969 12.15 11.3906 12.2844 11.5312 12.3375L13.2969 13L13.9594 14.7656C14.0125 14.9062 14.1469 15 14.2969 15C14.4469 15 14.5812 14.9062 14.6344 14.7656L15.2969 13L17.0625 12.3375C17.2031 12.2844 17.2969 12.15 17.2969 12C17.2969 11.85 17.2031 11.7156 17.0625 11.6625L15.2969 11L14.6344 9.23438C14.5812 9.09375 14.4469 9 14.2969 9C14.1469 9 14.0125 9.09375 13.9594 9.23438L13.2969 11L11.5312 11.6625Z" fill="#7E22CE"/>
</svg>
