<svg width="16" height="19" viewBox="0 0 16 19" fill="none" xmlns="http://www.w3.org/2000/svg">
<path d="M8 9.25C9.19347 9.25 10.3381 8.77589 11.182 7.93198C12.0259 7.08807 12.5 5.94347 12.5 4.75C12.5 3.55653 12.0259 2.41193 11.182 1.56802C10.3381 0.724106 9.19347 0.25 8 0.25C6.80653 0.25 5.66193 0.724106 4.81802 1.56802C3.97411 2.41193 3.5 3.55653 3.5 4.75C3.5 5.94347 3.97411 7.08807 4.81802 7.93198C5.66193 8.77589 6.80653 9.25 8 9.25ZM6.39336 10.9375C2.93047 10.9375 0.125 13.743 0.125 17.2059C0.125 17.7824 0.592578 18.25 1.16914 18.25H14.8309C15.4074 18.25 15.875 17.7824 15.875 17.2059C15.875 13.743 13.0695 10.9375 9.60664 10.9375H6.39336Z" fill="#2563EB"/>
</svg>
