<svg width="22" height="22" viewBox="0 0 22 22" fill="none" xmlns="http://www.w3.org/2000/svg">
<path d="M0.28125 2.75C0.28125 1.50781 1.28906 0.5 2.53125 0.5H7.03125C8.27344 0.5 9.28125 1.50781 9.28125 2.75V7.25C9.28125 8.49219 8.27344 9.5 7.03125 9.5H2.53125C1.28906 9.5 0.28125 8.49219 0.28125 7.25V2.75ZM3.28125 3.5V6.5H6.28125V3.5H3.28125ZM0.28125 14.75C0.28125 13.5078 1.28906 12.5 2.53125 12.5H7.03125C8.27344 12.5 9.28125 13.5078 9.28125 14.75V19.25C9.28125 20.4922 8.27344 21.5 7.03125 21.5H2.53125C1.28906 21.5 0.28125 20.4922 0.28125 19.25V14.75ZM3.28125 15.5V18.5H6.28125V15.5H3.28125ZM14.5312 0.5H19.0312C20.2734 0.5 21.2812 1.50781 21.2812 2.75V7.25C21.2812 8.49219 20.2734 9.5 19.0312 9.5H14.5312C13.2891 9.5 12.2812 8.49219 12.2812 7.25V2.75C12.2812 1.50781 13.2891 0.5 14.5312 0.5ZM18.2812 3.5H15.2812V6.5H18.2812V3.5ZM12.2812 13.25C12.2812 12.8375 12.6187 12.5 13.0312 12.5H16.0312C16.4438 12.5 16.7812 12.8375 16.7812 13.25C16.7812 13.6625 17.1187 14 17.5312 14H19.0312C19.4438 14 19.7812 13.6625 19.7812 13.25C19.7812 12.8375 20.1187 12.5 20.5312 12.5C20.9438 12.5 21.2812 12.8375 21.2812 13.25V17.75C21.2812 18.1625 20.9438 18.5 20.5312 18.5H17.5312C17.1187 18.5 16.7812 18.1625 16.7812 17.75C16.7812 17.3375 16.4438 17 16.0312 17C15.6187 17 15.2812 17.3375 15.2812 17.75V20.75C15.2812 21.1625 14.9438 21.5 14.5312 21.5H13.0312C12.6187 21.5 12.2812 21.1625 12.2812 20.75V13.25ZM17.5312 21.5C17.3323 21.5 17.1416 21.421 17.0009 21.2803C16.8603 21.1397 16.7812 20.9489 16.7812 20.75C16.7812 20.5511 16.8603 20.3603 17.0009 20.2197C17.1416 20.079 17.3323 20 17.5312 20C17.7302 20 17.9209 20.079 18.0616 20.2197C18.2022 20.3603 18.2812 20.5511 18.2812 20.75C18.2812 20.9489 18.2022 21.1397 18.0616 21.2803C17.9209 21.421 17.7302 21.5 17.5312 21.5ZM20.5312 21.5C20.3323 21.5 20.1416 21.421 20.0009 21.2803C19.8603 21.1397 19.7812 20.9489 19.7812 20.75C19.7812 20.5511 19.8603 20.3603 20.0009 20.2197C20.1416 20.079 20.3323 20 20.5312 20C20.7302 20 20.9209 20.079 21.0616 20.2197C21.2022 20.3603 21.2812 20.5511 21.2812 20.75C21.2812 20.9489 21.2022 21.1397 21.0616 21.2803C20.9209 21.421 20.7302 21.5 20.5312 21.5Z" fill="white"/>
</svg>
