<svg width="22" height="22" viewBox="0 0 22 22" fill="none" xmlns="http://www.w3.org/2000/svg">
<path d="M0.5 2.75C0.5 1.50781 1.50781 0.5 2.75 0.5H7.25C8.49219 0.5 9.5 1.50781 9.5 2.75V7.25C9.5 8.49219 8.49219 9.5 7.25 9.5H2.75C1.50781 9.5 0.5 8.49219 0.5 7.25V2.75ZM3.5 3.5V6.5H6.5V3.5H3.5ZM0.5 14.75C0.5 13.5078 1.50781 12.5 2.75 12.5H7.25C8.49219 12.5 9.5 13.5078 9.5 14.75V19.25C9.5 20.4922 8.49219 21.5 7.25 21.5H2.75C1.50781 21.5 0.5 20.4922 0.5 19.25V14.75ZM3.5 15.5V18.5H6.5V15.5H3.5ZM14.75 0.5H19.25C20.4922 0.5 21.5 1.50781 21.5 2.75V7.25C21.5 8.49219 20.4922 9.5 19.25 9.5H14.75C13.5078 9.5 12.5 8.49219 12.5 7.25V2.75C12.5 1.50781 13.5078 0.5 14.75 0.5ZM18.5 3.5H15.5V6.5H18.5V3.5ZM12.5 13.25C12.5 12.8375 12.8375 12.5 13.25 12.5H16.25C16.6625 12.5 17 12.8375 17 13.25C17 13.6625 17.3375 14 17.75 14H19.25C19.6625 14 20 13.6625 20 13.25C20 12.8375 20.3375 12.5 20.75 12.5C21.1625 12.5 21.5 12.8375 21.5 13.25V17.75C21.5 18.1625 21.1625 18.5 20.75 18.5H17.75C17.3375 18.5 17 18.1625 17 17.75C17 17.3375 16.6625 17 16.25 17C15.8375 17 15.5 17.3375 15.5 17.75V20.75C15.5 21.1625 15.1625 21.5 14.75 21.5H13.25C12.8375 21.5 12.5 21.1625 12.5 20.75V13.25ZM17.75 21.5C17.5511 21.5 17.3603 21.421 17.2197 21.2803C17.079 21.1397 17 20.9489 17 20.75C17 20.5511 17.079 20.3603 17.2197 20.2197C17.3603 20.079 17.5511 20 17.75 20C17.9489 20 18.1397 20.079 18.2803 20.2197C18.421 20.3603 18.5 20.5511 18.5 20.75C18.5 20.9489 18.421 21.1397 18.2803 21.2803C18.1397 21.421 17.9489 21.5 17.75 21.5ZM20.75 21.5C20.5511 21.5 20.3603 21.421 20.2197 21.2803C20.079 21.1397 20 20.9489 20 20.75C20 20.5511 20.079 20.3603 20.2197 20.2197C20.3603 20.079 20.5511 20 20.75 20C20.9489 20 21.1397 20.079 21.2803 20.2197C21.421 20.3603 21.5 20.5511 21.5 20.75C21.5 20.9489 21.421 21.1397 21.2803 21.2803C21.1397 21.421 20.9489 21.5 20.75 21.5Z" fill="#16A34A"/>
</svg>
