<svg width="18" height="14" viewBox="0 0 18 14" fill="none" xmlns="http://www.w3.org/2000/svg">
<path d="M9.40938 0.0873901C9.76875 0.24989 10 0.60614 10 0.99989V12.9999C10 13.3936 9.76875 13.7499 9.40938 13.9124C9.05 14.0749 8.62813 14.0093 8.33438 13.7468L4.11875 9.99989H2C0.896875 9.99989 0 9.10301 0 7.99989V5.99989C0 4.89677 0.896875 3.99989 2 3.99989H4.11875L8.33438 0.253015C8.62813 -0.00948492 9.05 -0.0719849 9.40938 0.0873901ZM13.2812 4.21864L15 5.93739L16.7188 4.21864C17.0125 3.92489 17.4875 3.92489 17.7781 4.21864C18.0688 4.51239 18.0719 4.98739 17.7781 5.27802L16.0594 6.99677L17.7781 8.71552C18.0719 9.00926 18.0719 9.48427 17.7781 9.77489C17.4844 10.0655 17.0094 10.0686 16.7188 9.77489L15 8.05614L13.2812 9.77489C12.9875 10.0686 12.5125 10.0686 12.2219 9.77489C11.9313 9.48114 11.9281 9.00614 12.2219 8.71552L13.9406 6.99677L12.2219 5.27802C11.9281 4.98427 11.9281 4.50927 12.2219 4.21864C12.5156 3.92802 12.9906 3.92489 13.2812 4.21864Z" fill="#9333EA"/>
</svg>
