<svg width="13" height="13" viewBox="0 0 13 13" fill="none" xmlns="http://www.w3.org/2000/svg">
<path d="M0.5625 1.9375C0.5625 1.21289 1.15039 0.625 1.875 0.625H4.5C5.22461 0.625 5.8125 1.21289 5.8125 1.9375V4.5625C5.8125 5.28711 5.22461 5.875 4.5 5.875H1.875C1.15039 5.875 0.5625 5.28711 0.5625 4.5625V1.9375ZM2.3125 2.375V4.125H4.0625V2.375H2.3125ZM0.5625 8.9375C0.5625 8.21289 1.15039 7.625 1.875 7.625H4.5C5.22461 7.625 5.8125 8.21289 5.8125 8.9375V11.5625C5.8125 12.2871 5.22461 12.875 4.5 12.875H1.875C1.15039 12.875 0.5625 12.2871 0.5625 11.5625V8.9375ZM2.3125 9.375V11.125H4.0625V9.375H2.3125ZM8.875 0.625H11.5C12.2246 0.625 12.8125 1.21289 12.8125 1.9375V4.5625C12.8125 5.28711 12.2246 5.875 11.5 5.875H8.875C8.15039 5.875 7.5625 5.28711 7.5625 4.5625V1.9375C7.5625 1.21289 8.15039 0.625 8.875 0.625ZM11.0625 2.375H9.3125V4.125H11.0625V2.375ZM7.5625 8.0625C7.5625 7.82188 7.75938 7.625 8 7.625H9.75C9.99063 7.625 10.1875 7.82188 10.1875 8.0625C10.1875 8.30312 10.3844 8.5 10.625 8.5H11.5C11.7406 8.5 11.9375 8.30312 11.9375 8.0625C11.9375 7.82188 12.1344 7.625 12.375 7.625C12.6156 7.625 12.8125 7.82188 12.8125 8.0625V10.6875C12.8125 10.9281 12.6156 11.125 12.375 11.125H10.625C10.3844 11.125 10.1875 10.9281 10.1875 10.6875C10.1875 10.4469 9.99063 10.25 9.75 10.25C9.50937 10.25 9.3125 10.4469 9.3125 10.6875V12.4375C9.3125 12.6781 9.11563 12.875 8.875 12.875H8C7.75938 12.875 7.5625 12.6781 7.5625 12.4375V8.0625ZM10.625 12.875C10.509 12.875 10.3977 12.8289 10.3156 12.7469C10.2336 12.6648 10.1875 12.5535 10.1875 12.4375C10.1875 12.3215 10.2336 12.2102 10.3156 12.1281C10.3977 12.0461 10.509 12 10.625 12C10.741 12 10.8523 12.0461 10.9344 12.1281C11.0164 12.2102 11.0625 12.3215 11.0625 12.4375C11.0625 12.5535 11.0164 12.6648 10.9344 12.7469C10.8523 12.8289 10.741 12.875 10.625 12.875ZM12.375 12.875C12.259 12.875 12.1477 12.8289 12.0656 12.7469C11.9836 12.6648 11.9375 12.5535 11.9375 12.4375C11.9375 12.3215 11.9836 12.2102 12.0656 12.1281C12.1477 12.0461 12.259 12 12.375 12C12.491 12 12.6023 12.0461 12.6844 12.1281C12.7664 12.2102 12.8125 12.3215 12.8125 12.4375C12.8125 12.5535 12.7664 12.6648 12.6844 12.7469C12.6023 12.8289 12.491 12.875 12.375 12.875Z" fill="#6B7280"/>
</svg>
