<svg width="18" height="21" viewBox="0 0 18 21" fill="none" xmlns="http://www.w3.org/2000/svg">
<path d="M5.25 0.5C5.94141 0.5 6.5 1.05859 6.5 1.75V3H11.5V1.75C11.5 1.05859 12.0586 0.5 12.75 0.5C13.4414 0.5 14 1.05859 14 1.75V3H15.875C16.9102 3 17.75 3.83984 17.75 4.875V6.75H0.25V4.875C0.25 3.83984 1.08984 3 2.125 3H4V1.75C4 1.05859 4.55859 0.5 5.25 0.5ZM0.25 8H17.75V18.625C17.75 19.6602 16.9102 20.5 15.875 20.5H2.125C1.08984 20.5 0.25 19.6602 0.25 18.625V8ZM2.75 11.125V12.375C2.75 12.7188 3.03125 13 3.375 13H4.625C4.96875 13 5.25 12.7188 5.25 12.375V11.125C5.25 10.7812 4.96875 10.5 4.625 10.5H3.375C3.03125 10.5 2.75 10.7812 2.75 11.125ZM7.75 11.125V12.375C7.75 12.7188 8.03125 13 8.375 13H9.625C9.96875 13 10.25 12.7188 10.25 12.375V11.125C10.25 10.7812 9.96875 10.5 9.625 10.5H8.375C8.03125 10.5 7.75 10.7812 7.75 11.125ZM13.375 10.5C13.0312 10.5 12.75 10.7812 12.75 11.125V12.375C12.75 12.7188 13.0312 13 13.375 13H14.625C14.9688 13 15.25 12.7188 15.25 12.375V11.125C15.25 10.7812 14.9688 10.5 14.625 10.5H13.375ZM2.75 16.125V17.375C2.75 17.7188 3.03125 18 3.375 18H4.625C4.96875 18 5.25 17.7188 5.25 17.375V16.125C5.25 15.7812 4.96875 15.5 4.625 15.5H3.375C3.03125 15.5 2.75 15.7812 2.75 16.125ZM8.375 15.5C8.03125 15.5 7.75 15.7812 7.75 16.125V17.375C7.75 17.7188 8.03125 18 8.375 18H9.625C9.96875 18 10.25 17.7188 10.25 17.375V16.125C10.25 15.7812 9.96875 15.5 9.625 15.5H8.375ZM12.75 16.125V17.375C12.75 17.7188 13.0312 18 13.375 18H14.625C14.9688 18 15.25 17.7188 15.25 17.375V16.125C15.25 15.7812 14.9688 15.5 14.625 15.5H13.375C13.0312 15.5 12.75 15.7812 12.75 16.125Z" fill="#F97316"/>
</svg>
