<svg width="15" height="15" viewBox="0 0 15 15" fill="none" xmlns="http://www.w3.org/2000/svg">
<path d="M2.55078 2.30078L1.62109 1.37109C1.2082 0.958203 0.5 1.25078 0.5 1.8332V4.84375C0.5 5.20742 0.792578 5.5 1.15625 5.5H4.1668C4.75195 5.5 5.04453 4.7918 4.63164 4.37891L3.78945 3.53672C4.73828 2.58789 6.05078 2 7.5 2C10.3984 2 12.75 4.35156 12.75 7.25C12.75 10.1484 10.3984 12.5 7.5 12.5C6.38438 12.5 5.35078 12.1527 4.50039 11.5594C4.10391 11.2832 3.55977 11.3789 3.28086 11.7754C3.00195 12.1719 3.10039 12.716 3.49688 12.9949C4.63438 13.7852 6.01523 14.25 7.5 14.25C11.3664 14.25 14.5 11.1164 14.5 7.25C14.5 3.38359 11.3664 0.25 7.5 0.25C5.5668 0.25 3.8168 1.03477 2.55078 2.30078ZM7.5 3.75C7.13633 3.75 6.84375 4.04258 6.84375 4.40625V7.25C6.84375 7.425 6.91211 7.5918 7.03516 7.71484L9.00391 9.68359C9.26094 9.94063 9.67656 9.94063 9.93086 9.68359C10.1852 9.42656 10.1879 9.01094 9.93086 8.75664L8.15352 6.9793V4.40625C8.15352 4.04258 7.86094 3.75 7.49727 3.75H7.5Z" fill="white"/>
</svg>
