<svg width="39" height="31" viewBox="0 0 39 31" fill="none" xmlns="http://www.w3.org/2000/svg">
<path d="M19.5 0.75C20.5371 0.75 21.375 1.58789 21.375 2.625V6.375H28.4062C30.7383 6.375 32.625 8.26172 32.625 10.5938V26.5312C32.625 28.8633 30.7383 30.75 28.4062 30.75H10.5938C8.26172 30.75 6.375 28.8633 6.375 26.5312V10.5938C6.375 8.26172 8.26172 6.375 10.5938 6.375H17.625V2.625C17.625 1.58789 18.4629 0.75 19.5 0.75ZM12.9375 23.25C12.4219 23.25 12 23.6719 12 24.1875C12 24.7031 12.4219 25.125 12.9375 25.125H14.8125C15.3281 25.125 15.75 24.7031 15.75 24.1875C15.75 23.6719 15.3281 23.25 14.8125 23.25H12.9375ZM18.5625 23.25C18.0469 23.25 17.625 23.6719 17.625 24.1875C17.625 24.7031 18.0469 25.125 18.5625 25.125H20.4375C20.9531 25.125 21.375 24.7031 21.375 24.1875C21.375 23.6719 20.9531 23.25 20.4375 23.25H18.5625ZM24.1875 23.25C23.6719 23.25 23.25 23.6719 23.25 24.1875C23.25 24.7031 23.6719 25.125 24.1875 25.125H26.0625C26.5781 25.125 27 24.7031 27 24.1875C27 23.6719 26.5781 23.25 26.0625 23.25H24.1875ZM16.2188 15.75C16.2188 15.1284 15.9718 14.5323 15.5323 14.0927C15.0927 13.6532 14.4966 13.4062 13.875 13.4062C13.2534 13.4062 12.6573 13.6532 12.2177 14.0927C11.7782 14.5323 11.5312 15.1284 11.5312 15.75C11.5312 16.3716 11.7782 16.9677 12.2177 17.4073C12.6573 17.8468 13.2534 18.0938 13.875 18.0938C14.4966 18.0938 15.0927 17.8468 15.5323 17.4073C15.9718 16.9677 16.2188 16.3716 16.2188 15.75ZM25.125 18.0938C25.7466 18.0938 26.3427 17.8468 26.7823 17.4073C27.2218 16.9677 27.4688 16.3716 27.4688 15.75C27.4688 15.1284 27.2218 14.5323 26.7823 14.0927C26.3427 13.6532 25.7466 13.4062 25.125 13.4062C24.5034 13.4062 23.9073 13.6532 23.4677 14.0927C23.0282 14.5323 22.7812 15.1284 22.7812 15.75C22.7812 16.3716 23.0282 16.9677 23.4677 17.4073C23.9073 17.8468 24.5034 18.0938 25.125 18.0938ZM3.5625 13.875H4.5V25.125H3.5625C2.00977 25.125 0.75 23.8652 0.75 22.3125V16.6875C0.75 15.1348 2.00977 13.875 3.5625 13.875ZM35.4375 13.875C36.9902 13.875 38.25 15.1348 38.25 16.6875V22.3125C38.25 23.8652 36.9902 25.125 35.4375 25.125H34.5V13.875H35.4375Z" fill="white"/>
</svg>
