<svg width="31" height="22" viewBox="0 0 31 22" fill="none" xmlns="http://www.w3.org/2000/svg">
<path d="M3.32812 6.5C3.32812 3.18594 6.01406 0.5 9.32812 0.5H21.3281C24.6422 0.5 27.3281 3.18594 27.3281 6.5V8.075C25.6172 8.42188 24.3281 9.93594 24.3281 11.75V14H6.32812V11.75C6.32812 9.93594 5.03906 8.42188 3.32812 8.075V6.5ZM25.8281 11.75C25.8281 10.7703 26.4562 9.93594 27.3281 9.62656C27.5625 9.54219 27.8156 9.5 28.0781 9.5C29.3203 9.5 30.3281 10.5078 30.3281 11.75V20C30.3281 20.8297 29.6578 21.5 28.8281 21.5H27.3281C26.4984 21.5 25.8281 20.8297 25.8281 20H4.82812C4.82812 20.8297 4.15781 21.5 3.32812 21.5H1.82812C0.998437 21.5 0.328125 20.8297 0.328125 20V11.75C0.328125 10.5078 1.33594 9.5 2.57812 9.5C2.84063 9.5 3.09375 9.54688 3.32812 9.62656C4.2 9.93594 4.82812 10.7703 4.82812 11.75V14V15.5H6.32812H24.3281H25.8281V14V11.75Z" fill="url(#paint0_linear_261_2304)"/>
<defs>
<linearGradient id="paint0_linear_261_2304" x1="14.1615" y1="0.5" x2="16.065" y2="24.2402" gradientUnits="userSpaceOnUse">
<stop stop-color="#6B46C1"/>
<stop offset="1" stop-color="#3B82F6"/>
</linearGradient>
</defs>
</svg>
