<svg width="15" height="16" viewBox="0 0 15 16" fill="none" xmlns="http://www.w3.org/2000/svg">
<path d="M13.9563 4.70615C14.3469 4.31553 14.3469 3.68115 13.9563 3.29053L10.9563 0.290527C10.5656 -0.100098 9.93125 -0.100098 9.54062 0.290527C9.15 0.681152 9.15 1.31553 9.54062 1.70615L10.8344 2.9999H1.25C0.696875 2.9999 0.25 3.44678 0.25 3.9999C0.25 4.55303 0.696875 4.9999 1.25 4.9999H10.8344L9.54062 6.29365C9.15 6.68428 9.15 7.31865 9.54062 7.70928C9.93125 8.0999 10.5656 8.0999 10.9563 7.70928L13.9563 4.70928V4.70615ZM3.54063 15.7062C3.93125 16.0968 4.56563 16.0968 4.95625 15.7062C5.34688 15.3155 5.34688 14.6812 4.95625 14.2905L3.66563 12.9999H13.25C13.8031 12.9999 14.25 12.553 14.25 11.9999C14.25 11.4468 13.8031 10.9999 13.25 10.9999H3.66563L4.95937 9.70615C5.35 9.31553 5.35 8.68115 4.95937 8.29053C4.56875 7.8999 3.93438 7.8999 3.54375 8.29053L0.54375 11.2905C0.153125 11.6812 0.153125 12.3155 0.54375 12.7062L3.54375 15.7062H3.54063Z" fill="#9333EA"/>
</svg>
