<svg width="20" height="16" viewBox="0 0 20 16" fill="none" xmlns="http://www.w3.org/2000/svg">
<path d="M17.5 5C18.163 5 18.7989 4.73661 19.2678 4.26777C19.7366 3.79893 20 3.16304 20 2.5C20 1.83696 19.7366 1.20107 19.2678 0.732233C18.7989 0.263392 18.163 0 17.5 0C16.837 0 16.2011 0.263392 15.7322 0.732233C15.2634 1.20107 15 1.83696 15 2.5C15 3.16304 15.2634 3.79893 15.7322 4.26777C16.2011 4.73661 16.837 5 17.5 5ZM1.74688 16H11.9094H14.2531H18.0906C19.1469 16 20 15.1438 20 14.0906C20 13.7406 19.9031 13.3969 19.7219 13.0969L15.5969 6.3375C15.4688 6.12813 15.2437 6 15 6C14.7563 6 14.5312 6.12812 14.4031 6.33437L12.8969 8.80313L8.9625 2.53125C8.75625 2.2 8.39062 2 8 2C7.60938 2 7.24687 2.2 7.0375 2.53125L0.26875 13.325C0.09375 13.6031 0 13.925 0 14.2531C0 15.2188 0.78125 16 1.74688 16Z" fill="#EA580C"/>
</svg>
