<svg width="17" height="16" viewBox="0 0 17 16" fill="none" xmlns="http://www.w3.org/2000/svg">
<path d="M8.65336 0C8.94086 0 9.20336 0.1625 9.32836 0.421875L11.4721 4.8375L16.2596 5.54375C16.5409 5.58437 16.7752 5.78125 16.8627 6.05312C16.9502 6.325 16.8784 6.61875 16.6784 6.81875L13.2065 10.2625L14.0252 15.125C14.0721 15.4062 13.9565 15.6906 13.7252 15.8594C13.494 16.0281 13.1846 16.0469 12.9346 15.9125L8.65336 13.625L4.37523 15.9094C4.12211 16.0438 3.81586 16.025 3.58461 15.8562C3.35336 15.6875 3.23461 15.4031 3.28148 15.1219L4.10023 10.2594L0.628358 6.81875C0.425233 6.61875 0.356483 6.32188 0.443983 6.05312C0.531483 5.78437 0.765858 5.5875 1.04711 5.54375L5.83461 4.8375L7.97836 0.421875C8.10648 0.1625 8.36586 0 8.65336 0ZM8.65336 2.46875L7.01273 5.85C6.90336 6.07188 6.69398 6.22813 6.44711 6.26562L2.75023 6.80937L5.43461 9.46875C5.60648 9.64062 5.68773 9.88437 5.64711 10.125L5.01273 13.8656L8.30023 12.1094C8.52211 11.9906 8.78773 11.9906 9.00648 12.1094L12.294 13.8656L11.6627 10.1281C11.6221 9.8875 11.7002 9.64375 11.8752 9.47188L14.5596 6.8125L10.8627 6.26562C10.619 6.22813 10.4065 6.075 10.2971 5.85L8.65336 2.46875Z" fill="#D1D5DB"/>
</svg>
