<svg width="16" height="16" viewBox="0 0 16 16" fill="none" xmlns="http://www.w3.org/2000/svg">
<path d="M8.32814 0C8.47189 0 8.61564 0.03125 8.74689 0.090625L14.6313 2.5875C15.3188 2.87813 15.8313 3.55625 15.8281 4.375C15.8125 7.475 14.5375 13.1469 9.15314 15.725C8.63126 15.975 8.02501 15.975 7.50314 15.725C2.11876 13.1469 0.843764 7.475 0.828139 4.375C0.825014 3.55625 1.33751 2.87813 2.02501 2.5875L7.91251 0.090625C8.04064 0.03125 8.18439 0 8.32814 0ZM8.32814 2.0875V13.9C12.6406 11.8125 13.8 7.19062 13.8281 4.41875L8.32814 2.0875Z" fill="#15803D"/>
</svg>
