<svg width="36" height="37" viewBox="0 0 36 37" fill="none" xmlns="http://www.w3.org/2000/svg">
<path opacity="0.2" d="M4.65579 10.8262C4.55376 10.9992 4.49996 11.1965 4.5 11.3974V25.269C4.5 25.4686 4.55311 25.6646 4.65389 25.8369C4.75467 26.0092 4.89947 26.1516 5.07346 26.2495L17.4485 33.2104C17.6168 33.3052 17.8068 33.3549 18 33.3549L18.0015 33.3549L18.1335 18.3332L4.65581 10.8262L4.65579 10.8262Z" fill="#0B63E5"/>
<path d="M31.5 25.2691V11.3975C31.5 11.1978 31.4469 11.0018 31.3461 10.8295C31.2453 10.6572 31.1005 10.5148 30.9265 10.4169L18.5515 3.456C18.3832 3.36128 18.1932 3.31152 18 3.31152C17.8068 3.31152 17.6168 3.36128 17.4485 3.456L5.07346 10.4169C4.89947 10.5148 4.75467 10.6572 4.65389 10.8295C4.55311 11.0018 4.5 11.1978 4.5 11.3975V25.2691C4.5 25.4687 4.55311 25.6647 4.65389 25.837C4.75467 26.0093 4.89947 26.1517 5.07346 26.2496L17.4485 33.2105C17.6168 33.3052 17.8068 33.355 18 33.355C18.1932 33.355 18.3832 33.3052 18.5515 33.2105L30.9265 26.2496C31.1005 26.1517 31.2453 26.0093 31.3461 25.837C31.4469 25.6647 31.5 25.4687 31.5 25.2691Z" stroke="#0B63E5" stroke-width="2.5" stroke-linecap="round" stroke-linejoin="round"/>
<path d="M24.8937 21.7799V14.4674L11.25 6.94238" stroke="#0B63E5" stroke-width="2.5" stroke-linecap="round" stroke-linejoin="round"/>
<path d="M31.3448 10.8276L18.1334 18.3332L4.65576 10.8262" stroke="#0B63E5" stroke-width="2.5" stroke-linecap="round" stroke-linejoin="round"/>
<path d="M18.1335 18.333L18.0015 33.3548" stroke="#0B63E5" stroke-width="2.5" stroke-linecap="round" stroke-linejoin="round"/>
</svg>
