<svg width="20" height="21" viewBox="0 0 20 21" fill="none" xmlns="http://www.w3.org/2000/svg">
<path d="M1.25 4.25022H13.75V1.75022C13.75 1.24632 14.0547 0.789284 14.5234 0.593971C14.9922 0.398659 15.5273 0.508034 15.8867 0.863503L19.6367 4.6135C19.8711 4.84788 20.0039 5.16428 20.0039 5.49632C20.0039 5.82835 19.8711 6.14475 19.6367 6.37913L15.8867 10.1291C15.5273 10.4885 14.9922 10.594 14.5234 10.3987C14.0547 10.2033 13.75 9.75022 13.75 9.24241V6.75022H1.25C0.558594 6.75022 0 6.19163 0 5.50022C0 4.80882 0.558594 4.25022 1.25 4.25022ZM18.75 14.2502C19.4414 14.2502 20 14.8088 20 15.5002C20 16.1916 19.4414 16.7502 18.75 16.7502H6.25V19.2502C6.25 19.7541 5.94531 20.2112 5.47656 20.4065C5.00781 20.6018 4.47266 20.4924 4.11328 20.1369L0.363281 16.3869C0.128906 16.1526 -0.00390625 15.8362 -0.00390625 15.5041C-0.00390625 15.1721 0.128906 14.8557 0.363281 14.6213L4.11328 10.8713C4.47266 10.5119 5.00781 10.4065 5.47656 10.6018C5.94531 10.7971 6.25 11.2502 6.25 11.758V14.258H18.75V14.2502Z" fill="#2563EB"/>
</svg>
