<svg width="19" height="19" viewBox="0 0 19 19" fill="none" xmlns="http://www.w3.org/2000/svg">
<path d="M9.39062 18.25C11.7776 18.25 14.0668 17.3018 15.7546 15.614C17.4424 13.9261 18.3906 11.6369 18.3906 9.25C18.3906 6.86305 17.4424 4.57387 15.7546 2.88604C14.0668 1.19821 11.7776 0.25 9.39062 0.25C7.00368 0.25 4.71449 1.19821 3.02666 2.88604C1.33884 4.57387 0.390625 6.86305 0.390625 9.25C0.390625 11.6369 1.33884 13.9261 3.02666 15.614C4.71449 17.3018 7.00368 18.25 9.39062 18.25ZM13.3633 7.59766L8.86328 12.0977C8.53281 12.4281 7.99844 12.4281 7.67148 12.0977L5.42148 9.84766C5.09102 9.51719 5.09102 8.98281 5.42148 8.65586C5.75195 8.32891 6.28633 8.32539 6.61328 8.65586L8.26562 10.3082L12.168 6.40234C12.4984 6.07188 13.0328 6.07188 13.3598 6.40234C13.6867 6.73281 13.6902 7.26719 13.3598 7.59414L13.3633 7.59766Z" fill="white"/>
</svg>
