<svg width="21" height="24" viewBox="0 0 21 24" fill="none" xmlns="http://www.w3.org/2000/svg">
<g clip-path="url(#clip0_75_4414)">
<path d="M4.5 0C2.01562 0 0 2.01562 0 4.5V16.5C0 18.75 1.65 20.6109 3.80156 20.9484L1.64531 23.1047C1.31719 23.4328 1.55156 24 2.01562 24H3.87656C4.275 24 4.65469 23.8406 4.93594 23.5594L7.5 21H13.5L16.0594 23.5594C16.3406 23.8406 16.7203 24 17.1188 24H18.9844C19.4531 24 19.6875 23.4328 19.3547 23.1047L17.1984 20.9484C19.3547 20.6156 21 18.75 21 16.5V4.5C21 2.01562 18.9844 0 16.5 0H4.5ZM3 4.5C3 3.67031 3.67031 3 4.5 3H16.5C17.3297 3 18 3.67031 18 4.5V9C18 9.82969 17.3297 10.5 16.5 10.5H4.5C3.67031 10.5 3 9.82969 3 9V4.5ZM10.5 13.5C11.0967 13.5 11.669 13.7371 12.091 14.159C12.5129 14.581 12.75 15.1533 12.75 15.75C12.75 16.3467 12.5129 16.919 12.091 17.341C11.669 17.7629 11.0967 18 10.5 18C9.90326 18 9.33097 17.7629 8.90901 17.341C8.48705 16.919 8.25 16.3467 8.25 15.75C8.25 15.1533 8.48705 14.581 8.90901 14.159C9.33097 13.7371 9.90326 13.5 10.5 13.5Z" fill="white"/>
</g>
<defs>
<clipPath id="clip0_75_4414">
<path d="M0 0H21V24H0V0Z" fill="white"/>
</clipPath>
</defs>
</svg>
