<svg width="21" height="16" viewBox="0 0 21 16" fill="none" xmlns="http://www.w3.org/2000/svg">
<path d="M3.15606 1.5C3.15606 1.10218 3.3141 0.720644 3.5954 0.43934C3.87671 0.158035 4.25824 0 4.65606 0C5.05389 0 5.43542 0.158035 5.71672 0.43934C5.99803 0.720644 6.15606 1.10218 6.15606 1.5C6.15606 1.89782 5.99803 2.27936 5.71672 2.56066C5.43542 2.84196 5.05389 3 4.65606 3C4.25824 3 3.87671 2.84196 3.5954 2.56066C3.3141 2.27936 3.15606 1.89782 3.15606 1.5ZM4.40606 11V15C4.40606 15.5531 3.95919 16 3.40606 16C2.85294 16 2.40606 15.5531 2.40606 15V10.1625C2.15294 10.45 1.74669 10.575 1.35919 10.4563C0.831064 10.2906 0.537314 9.73125 0.702939 9.20312L1.66856 6.10625C2.05919 4.85312 3.21856 4 4.53106 4H4.78106C6.09356 4 7.25294 4.85312 7.64356 6.10625L8.60919 9.20312C8.77481 9.73125 8.48106 10.2906 7.95294 10.4563C7.56544 10.5781 7.15919 10.45 6.90606 10.1625V15C6.90606 15.5531 6.45919 16 5.90606 16C5.35294 16 4.90606 15.5531 4.90606 15V11H4.40606ZM10.6561 0C11.0717 0 11.4061 0.334375 11.4061 0.75V15.25C11.4061 15.6656 11.0717 16 10.6561 16C10.2404 16 9.90606 15.6656 9.90606 15.25V0.75C9.90606 0.334375 10.2404 0 10.6561 0ZM15.1561 1.5C15.1561 1.10218 15.3141 0.720644 15.5954 0.43934C15.8767 0.158035 16.2582 0 16.6561 0C17.0539 0 17.4354 0.158035 17.7167 0.43934C17.998 0.720644 18.1561 1.10218 18.1561 1.5C18.1561 1.89782 17.998 2.27936 17.7167 2.56066C17.4354 2.84196 17.0539 3 16.6561 3C16.2582 3 15.8767 2.84196 15.5954 2.56066C15.3141 2.27936 15.1561 1.89782 15.1561 1.5ZM14.4061 15V12H13.8498C13.5092 12 13.2686 11.6656 13.3748 11.3406L13.6561 10.5C13.5561 10.5 13.4561 10.4844 13.3592 10.4531C12.8311 10.2875 12.5373 9.72812 12.7029 9.2L13.6311 6.225C14.0436 4.90312 15.2686 4 16.6561 4C18.0436 4 19.2686 4.90312 19.6811 6.225L20.6092 9.2C20.7748 9.72812 20.4811 10.2875 19.9529 10.4531C19.8529 10.4844 19.7529 10.5 19.6561 10.5L19.9373 11.3406C20.0467 11.6656 19.8029 12 19.4623 12H18.9061V15C18.9061 15.5531 18.4592 16 17.9061 16C17.3529 16 16.9061 15.5531 16.9061 15V12H16.4061V15C16.4061 15.5531 15.9592 16 15.4061 16C14.8529 16 14.4061 15.5531 14.4061 15Z" fill="#A855F7"/>
</svg>
