<svg width="24" height="15" viewBox="0 0 24 15" fill="none" xmlns="http://www.w3.org/2000/svg">
<path d="M3.4375 0C2.05859 0 0.9375 1.12109 0.9375 2.5V5C0.9375 5.34375 1.22656 5.61328 1.55078 5.72656C2.28516 5.98047 2.8125 6.67969 2.8125 7.5C2.8125 8.32031 2.28516 9.01953 1.55078 9.27344C1.22656 9.38672 0.9375 9.65625 0.9375 10V12.5C0.9375 13.8789 2.05859 15 3.4375 15H20.9375C22.3164 15 23.4375 13.8789 23.4375 12.5V10C23.4375 9.65625 23.1484 9.38672 22.8242 9.27344C22.0898 9.01953 21.5625 8.32031 21.5625 7.5C21.5625 6.67969 22.0898 5.98047 22.8242 5.72656C23.1484 5.61328 23.4375 5.34375 23.4375 5V2.5C23.4375 1.12109 22.3164 0 20.9375 0H3.4375ZM5.9375 4.375V10.625C5.9375 10.9688 6.21875 11.25 6.5625 11.25H17.8125C18.1562 11.25 18.4375 10.9688 18.4375 10.625V4.375C18.4375 4.03125 18.1562 3.75 17.8125 3.75H6.5625C6.21875 3.75 5.9375 4.03125 5.9375 4.375ZM4.6875 3.75C4.6875 3.05859 5.24609 2.5 5.9375 2.5H18.4375C19.1289 2.5 19.6875 3.05859 19.6875 3.75V11.25C19.6875 11.9414 19.1289 12.5 18.4375 12.5H5.9375C5.24609 12.5 4.6875 11.9414 4.6875 11.25V3.75Z" fill="white"/>
</svg>
