<svg width="14" height="17" viewBox="0 0 14 17" fill="none" xmlns="http://www.w3.org/2000/svg">
<path d="M3 0.5C1.34375 0.5 0 1.84375 0 3.5V11.5C0 13 1.1 14.2406 2.53437 14.4656L1.09687 15.9031C0.878125 16.1219 1.03437 16.5 1.34375 16.5H2.58437C2.85 16.5 3.10313 16.3938 3.29063 16.2063L5 14.5H9L10.7063 16.2063C10.8938 16.3938 11.1469 16.5 11.4125 16.5H12.6562C12.9688 16.5 13.125 16.1219 12.9031 15.9031L11.4656 14.4656C12.9031 14.2437 14 13 14 11.5V3.5C14 1.84375 12.6562 0.5 11 0.5H3ZM2 3.5C2 2.94688 2.44688 2.5 3 2.5H11C11.5531 2.5 12 2.94688 12 3.5V6.5C12 7.05312 11.5531 7.5 11 7.5H3C2.44688 7.5 2 7.05312 2 6.5V3.5ZM7 9.5C7.39782 9.5 7.77936 9.65804 8.06066 9.93934C8.34196 10.2206 8.5 10.6022 8.5 11C8.5 11.3978 8.34196 11.7794 8.06066 12.0607C7.77936 12.342 7.39782 12.5 7 12.5C6.60218 12.5 6.22064 12.342 5.93934 12.0607C5.65804 11.7794 5.5 11.3978 5.5 11C5.5 10.6022 5.65804 10.2206 5.93934 9.93934C6.22064 9.65804 6.60218 9.5 7 9.5Z" fill="url(#paint0_linear_127_2122)"/>
<defs>
<linearGradient id="paint0_linear_127_2122" x1="6.45556" y1="0.5" x2="8.79849" y2="18.3974" gradientUnits="userSpaceOnUse">
<stop stop-color="#6B46C1"/>
<stop offset="1" stop-color="#3B82F6"/>
</linearGradient>
</defs>
</svg>
