<svg width="13" height="15" viewBox="0 0 13 15" fill="none" xmlns="http://www.w3.org/2000/svg">
<path d="M2.625 0.75C1.17578 0.75 0 1.92578 0 3.375V10.375C0 11.6875 0.9625 12.773 2.21758 12.9699L0.959766 14.2277C0.768359 14.4191 0.905078 14.75 1.17578 14.75H2.26133C2.49375 14.75 2.71523 14.657 2.8793 14.493L4.375 13H7.875L9.36797 14.493C9.53203 14.657 9.75352 14.75 9.98594 14.75H11.0742C11.3477 14.75 11.4844 14.4191 11.2902 14.2277L10.0324 12.9699C11.2902 12.7758 12.25 11.6875 12.25 10.375V3.375C12.25 1.92578 11.0742 0.75 9.625 0.75H2.625ZM1.75 3.375C1.75 2.89102 2.14102 2.5 2.625 2.5H9.625C10.109 2.5 10.5 2.89102 10.5 3.375V6C10.5 6.48398 10.109 6.875 9.625 6.875H2.625C2.14102 6.875 1.75 6.48398 1.75 6V3.375ZM6.125 8.625C6.4731 8.625 6.80694 8.76328 7.05308 9.00942C7.29922 9.25556 7.4375 9.5894 7.4375 9.9375C7.4375 10.2856 7.29922 10.6194 7.05308 10.8656C6.80694 11.1117 6.4731 11.25 6.125 11.25C5.7769 11.25 5.44306 11.1117 5.19692 10.8656C4.95078 10.6194 4.8125 10.2856 4.8125 9.9375C4.8125 9.5894 4.95078 9.25556 5.19692 9.00942C5.44306 8.76328 5.7769 8.625 6.125 8.625Z" fill="#6C5CE7"/>
</svg>
