<svg width="18" height="21" viewBox="0 0 18 21" fill="none" xmlns="http://www.w3.org/2000/svg">
<path d="M3.75 0.5C1.67969 0.5 0 2.17969 0 4.25V14.25C0 16.125 1.375 17.6758 3.16797 17.957L1.37109 19.7539C1.09766 20.0273 1.29297 20.5 1.67969 20.5H3.23047C3.5625 20.5 3.87891 20.3672 4.11328 20.1328L6.25 18H11.25L13.3828 20.1328C13.6172 20.3672 13.9336 20.5 14.2656 20.5H15.8203C16.2109 20.5 16.4062 20.0273 16.1289 19.7539L14.332 17.957C16.1289 17.6797 17.5 16.125 17.5 14.25V4.25C17.5 2.17969 15.8203 0.5 13.75 0.5H3.75ZM2.5 4.25C2.5 3.55859 3.05859 3 3.75 3H13.75C14.4414 3 15 3.55859 15 4.25V8C15 8.69141 14.4414 9.25 13.75 9.25H3.75C3.05859 9.25 2.5 8.69141 2.5 8V4.25ZM8.75 11.75C9.24728 11.75 9.72419 11.9475 10.0758 12.2992C10.4275 12.6508 10.625 13.1277 10.625 13.625C10.625 14.1223 10.4275 14.5992 10.0758 14.9508C9.72419 15.3025 9.24728 15.5 8.75 15.5C8.25272 15.5 7.77581 15.3025 7.42417 14.9508C7.07254 14.5992 6.875 14.1223 6.875 13.625C6.875 13.1277 7.07254 12.6508 7.42417 12.2992C7.77581 11.9475 8.25272 11.75 8.75 11.75Z" fill="#2563EB"/>
</svg>
