<svg width="17" height="16" viewBox="0 0 17 16" fill="none" xmlns="http://www.w3.org/2000/svg">
<path d="M8.32812 16C10.4499 16 12.4847 15.1571 13.985 13.6569C15.4853 12.1566 16.3281 10.1217 16.3281 8C16.3281 5.87827 15.4853 3.84344 13.985 2.34315C12.4847 0.842855 10.4499 0 8.32812 0C6.20639 0 4.17156 0.842855 2.67127 2.34315C1.17098 3.84344 0.328125 5.87827 0.328125 8C0.328125 10.1217 1.17098 12.1566 2.67127 13.6569C4.17156 15.1571 6.20639 16 8.32812 16ZM11.8594 6.53125L7.85938 10.5312C7.56563 10.825 7.09063 10.825 6.8 10.5312L4.8 8.53125C4.50625 8.2375 4.50625 7.7625 4.8 7.47188C5.09375 7.18125 5.56875 7.17813 5.85938 7.47188L7.32812 8.94063L10.7969 5.46875C11.0906 5.175 11.5656 5.175 11.8562 5.46875C12.1469 5.7625 12.15 6.2375 11.8562 6.52812L11.8594 6.53125Z" fill="#22C55E"/>
</svg>
