<svg width="21" height="16" viewBox="0 0 21 16" fill="none" xmlns="http://www.w3.org/2000/svg">
<path d="M2.65625 2V11H18.6562V2H2.65625ZM0.65625 2C0.65625 0.896875 1.55313 0 2.65625 0H18.6562C19.7594 0 20.6562 0.896875 20.6562 2V11C20.6562 12.1031 19.7594 13 18.6562 13H2.65625C1.55313 13 0.65625 12.1031 0.65625 11V2ZM4.65625 14H16.6562C17.2094 14 17.6562 14.4469 17.6562 15C17.6562 15.5531 17.2094 16 16.6562 16H4.65625C4.10313 16 3.65625 15.5531 3.65625 15C3.65625 14.4469 4.10313 14 4.65625 14Z" fill="#4B5563"/>
</svg>
