<svg width="16" height="19" viewBox="0 0 16 19" fill="none" xmlns="http://www.w3.org/2000/svg">
<path d="M3.5 0.25C1.63672 0.25 0.125 1.76172 0.125 3.625V12.625C0.125 14.3125 1.3625 15.7082 2.97617 15.9613L1.35898 17.5785C1.11289 17.8246 1.28867 18.25 1.63672 18.25H3.03242C3.33125 18.25 3.61602 18.1305 3.82695 17.9195L5.75 16H10.25L12.1695 17.9195C12.3805 18.1305 12.6652 18.25 12.9641 18.25H14.3633C14.7148 18.25 14.8906 17.8246 14.641 17.5785L13.0238 15.9613C14.641 15.7117 15.875 14.3125 15.875 12.625V3.625C15.875 1.76172 14.3633 0.25 12.5 0.25H3.5ZM2.375 3.625C2.375 3.00273 2.87773 2.5 3.5 2.5H12.5C13.1223 2.5 13.625 3.00273 13.625 3.625V7C13.625 7.62227 13.1223 8.125 12.5 8.125H3.5C2.87773 8.125 2.375 7.62227 2.375 7V3.625ZM8 10.375C8.44755 10.375 8.87678 10.5528 9.19324 10.8693C9.50971 11.1857 9.6875 11.6149 9.6875 12.0625C9.6875 12.5101 9.50971 12.9393 9.19324 13.2557C8.87678 13.5722 8.44755 13.75 8 13.75C7.55245 13.75 7.12322 13.5722 6.80676 13.2557C6.49029 12.9393 6.3125 12.5101 6.3125 12.0625C6.3125 11.6149 6.49029 11.1857 6.80676 10.8693C7.12322 10.5528 7.55245 10.375 8 10.375Z" fill="#9333EA"/>
</svg>
