<svg width="20" height="16" viewBox="0 0 20 16" fill="none" xmlns="http://www.w3.org/2000/svg">
<path d="M2.49981 1.5C2.49981 1.10218 2.65785 0.720644 2.93915 0.43934C3.22046 0.158035 3.60199 0 3.99981 0C4.39764 0 4.77917 0.158035 5.06047 0.43934C5.34178 0.720644 5.49981 1.10218 5.49981 1.5C5.49981 1.89782 5.34178 2.27936 5.06047 2.56066C4.77917 2.84196 4.39764 3 3.99981 3C3.60199 3 3.22046 2.84196 2.93915 2.56066C2.65785 2.27936 2.49981 1.89782 2.49981 1.5ZM3.74981 11V15C3.74981 15.5531 3.30294 16 2.74981 16C2.19669 16 1.74981 15.5531 1.74981 15V10.1625C1.49669 10.45 1.09044 10.575 0.702939 10.4563C0.174814 10.2906 -0.118936 9.73125 0.0466887 9.20312L1.01231 6.10625C1.40294 4.85312 2.56231 4 3.87481 4H4.12481C5.43731 4 6.59669 4.85312 6.98731 6.10625L7.95294 9.20312C8.11856 9.73125 7.82481 10.2906 7.29669 10.4563C6.90919 10.5781 6.50294 10.45 6.24981 10.1625V15C6.24981 15.5531 5.80294 16 5.24981 16C4.69669 16 4.24981 15.5531 4.24981 15V11H3.74981ZM9.99981 0C10.4154 0 10.7498 0.334375 10.7498 0.75V15.25C10.7498 15.6656 10.4154 16 9.99981 16C9.58419 16 9.24981 15.6656 9.24981 15.25V0.75C9.24981 0.334375 9.58419 0 9.99981 0ZM14.4998 1.5C14.4998 1.10218 14.6578 0.720644 14.9392 0.43934C15.2205 0.158035 15.602 0 15.9998 0C16.3976 0 16.7792 0.158035 17.0605 0.43934C17.3418 0.720644 17.4998 1.10218 17.4998 1.5C17.4998 1.89782 17.3418 2.27936 17.0605 2.56066C16.7792 2.84196 16.3976 3 15.9998 3C15.602 3 15.2205 2.84196 14.9392 2.56066C14.6578 2.27936 14.4998 1.89782 14.4998 1.5ZM13.7498 15V12H13.1936C12.8529 12 12.6123 11.6656 12.7186 11.3406L12.9998 10.5C12.8998 10.5 12.7998 10.4844 12.7029 10.4531C12.1748 10.2875 11.8811 9.72812 12.0467 9.2L12.9748 6.225C13.3873 4.90312 14.6123 4 15.9998 4C17.3873 4 18.6123 4.90312 19.0248 6.225L19.9529 9.2C20.1186 9.72812 19.8248 10.2875 19.2967 10.4531C19.1967 10.4844 19.0967 10.5 18.9998 10.5L19.2811 11.3406C19.3904 11.6656 19.1467 12 18.8061 12H18.2498V15C18.2498 15.5531 17.8029 16 17.2498 16C16.6967 16 16.2498 15.5531 16.2498 15V12H15.7498V15C15.7498 15.5531 15.3029 16 14.7498 16C14.1967 16 13.7498 15.5531 13.7498 15Z" fill="#3B82F6"/>
</svg>
