<svg width="90" height="68" viewBox="0 0 90 68" fill="none" xmlns="http://www.w3.org/2000/svg">
<path d="M47.8701 67.0193V47.9658H60.5724L44.6945 28.9123L28.8166 47.9658H41.5189V67.0193H25.641V66.8605C25.1075 66.8923 24.5994 67.0193 24.0532 67.0193C17.7366 67.0193 11.6787 64.5101 7.21213 60.0435C2.7456 55.577 0.236328 49.5191 0.236328 43.2024C0.236328 30.9828 9.47728 21.0241 21.3349 19.6586C22.3746 14.2239 25.2755 9.32132 29.5388 5.79408C33.8021 2.26684 39.1613 0.335423 44.6945 0.332031C50.2286 0.33509 55.5886 2.26625 59.853 5.79342C64.1174 9.3206 67.0196 14.2234 68.0605 19.6586C79.9181 21.0241 89.1464 30.9828 89.1464 43.2024C89.1464 49.5191 86.6371 55.577 82.1706 60.0435C77.704 64.5101 71.6461 67.0193 65.3295 67.0193C64.796 67.0193 64.2815 66.8923 63.7417 66.8605V67.0193H47.8701Z" fill="#AFAFAF"/>
</svg>
