<svg width="28" height="22" viewBox="0 0 28 22" fill="none" xmlns="http://www.w3.org/2000/svg">
<path d="M22.5359 9.84219C22.5359 9.84219 22.8922 11.5859 22.9719 11.9516H21.4062C21.5609 11.5344 22.1562 9.9125 22.1562 9.9125C22.1469 9.92656 22.3109 9.48594 22.4047 9.21406L22.5359 9.84219ZM27.5 2.75V19.25C27.5 20.4922 26.4922 21.5 25.25 21.5H2.75C1.50781 21.5 0.5 20.4922 0.5 19.25V2.75C0.5 1.50781 1.50781 0.5 2.75 0.5H25.25C26.4922 0.5 27.5 1.50781 27.5 2.75ZM7.64844 14.525L10.6109 7.25H8.61875L6.77656 12.2188L6.575 11.2109L5.91875 7.86406C5.81094 7.4 5.47813 7.26875 5.06563 7.25H2.03281L2 7.39531C2.74062 7.58281 3.40156 7.85469 3.97812 8.19687L5.65625 14.525H7.64844ZM12.0734 14.5344L13.2547 7.25H11.3703L10.1938 14.5344H12.0734ZM18.6312 12.1531C18.6406 11.3234 18.1344 10.6906 17.0516 10.1703C16.3906 9.8375 15.9875 9.6125 15.9875 9.27031C15.9969 8.96094 16.3297 8.64219 17.0703 8.64219C17.6844 8.62813 18.1344 8.77344 18.4719 8.91875L18.6406 8.99844L18.8984 7.42344C18.5281 7.27812 17.9375 7.11406 17.2109 7.11406C15.35 7.11406 14.0422 8.10781 14.0328 9.52344C14.0188 10.5688 14.9703 11.15 15.6828 11.5016C16.4094 11.8578 16.6578 12.0922 16.6578 12.4062C16.6484 12.8938 16.0672 13.1188 15.5281 13.1188C14.7781 13.1188 14.375 13.0016 13.7609 12.7297L13.5125 12.6125L13.25 14.2484C13.6906 14.45 14.5062 14.6281 15.35 14.6375C17.3281 14.6422 18.6172 13.6625 18.6312 12.1531ZM25.25 14.5344L23.7313 7.25H22.2734C21.8234 7.25 21.4813 7.38125 21.2891 7.85469L18.4906 14.5344H20.4688C20.4688 14.5344 20.7922 13.6344 20.8625 13.4422H23.2812C23.3375 13.7 23.5062 14.5344 23.5062 14.5344H25.25Z" fill="#2563EB"/>
</svg>
