<svg width="20" height="15" viewBox="0 0 20 15" fill="none" xmlns="http://www.w3.org/2000/svg">
<path d="M1.69356 5.84062C3.84981 3.77187 6.77481 2.5 9.99981 2.5C13.2248 2.5 16.1498 3.77187 18.3061 5.84062C18.7061 6.22187 19.3373 6.20937 19.7186 5.8125C20.0998 5.41563 20.0873 4.78125 19.6904 4.4C17.1779 1.98438 13.7623 0.5 9.99981 0.5C6.23731 0.5 2.82168 1.98438 0.306058 4.39687C-0.0908168 4.78125 -0.103317 5.4125 0.277933 5.8125C0.659183 6.2125 1.29356 6.225 1.69043 5.84062H1.69356ZM9.99981 7.5C11.7748 7.5 13.3936 8.15938 14.6311 9.25C15.0467 9.61563 15.6779 9.575 16.0436 9.1625C16.4092 8.75 16.3686 8.11562 15.9561 7.75C14.3686 6.35 12.2811 5.5 9.99981 5.5C7.71856 5.5 5.63106 6.35 4.04668 7.75C3.63106 8.11562 3.59356 8.74688 3.95918 9.1625C4.32481 9.57812 4.95606 9.61563 5.37168 9.25C6.60606 8.15938 8.22481 7.5 10.0029 7.5H9.99981ZM11.9998 12.5C11.9998 11.9696 11.7891 11.4609 11.414 11.0858C11.0389 10.7107 10.5302 10.5 9.99981 10.5C9.46938 10.5 8.96067 10.7107 8.5856 11.0858C8.21052 11.4609 7.99981 11.9696 7.99981 12.5C7.99981 13.0304 8.21052 13.5391 8.5856 13.9142C8.96067 14.2893 9.46938 14.5 9.99981 14.5C10.5302 14.5 11.0389 14.2893 11.414 13.9142C11.7891 13.5391 11.9998 13.0304 11.9998 12.5Z" fill="black"/>
</svg>
