<svg width="19" height="19" viewBox="0 0 19 19" fill="none" xmlns="http://www.w3.org/2000/svg">
<path d="M15.8398 3.29297C14.2031 1.65234 12.0234 0.75 9.70703 0.75C4.92578 0.75 1.03516 4.64062 1.03516 9.42188C1.03516 10.9492 1.43359 12.4414 2.19141 13.7578L0.960938 18.25L5.55859 17.043C6.82422 17.7344 8.25 18.0977 9.70312 18.0977H9.70703C14.4844 18.0977 18.4609 14.207 18.4609 9.42578C18.4609 7.10938 17.4766 4.93359 15.8398 3.29297ZM9.70703 16.6367C8.41016 16.6367 7.14062 16.2891 6.03516 15.6328L5.77344 15.4766L3.04688 16.1914L3.77344 13.5312L3.60156 13.2578C2.87891 12.1094 2.5 10.7852 2.5 9.42188C2.5 5.44922 5.73438 2.21484 9.71094 2.21484C11.6367 2.21484 13.4453 2.96484 14.8047 4.32812C16.1641 5.69141 17 7.5 16.9961 9.42578C16.9961 13.4023 13.6797 16.6367 9.70703 16.6367ZM13.6602 11.2383C13.4453 11.1289 12.3789 10.6055 12.1797 10.5352C11.9805 10.4609 11.8359 10.4258 11.6914 10.6445C11.5469 10.8633 11.1328 11.3477 11.0039 11.4961C10.8789 11.6406 10.75 11.6602 10.5352 11.5508C9.26172 10.9141 8.42578 10.4141 7.58594 8.97266C7.36328 8.58984 7.80859 8.61719 8.22266 7.78906C8.29297 7.64453 8.25781 7.51953 8.20312 7.41016C8.14844 7.30078 7.71484 6.23438 7.53516 5.80078C7.35938 5.37891 7.17969 5.4375 7.04688 5.42969C6.92188 5.42188 6.77734 5.42188 6.63281 5.42188C6.48828 5.42188 6.25391 5.47656 6.05469 5.69141C5.85547 5.91016 5.29688 6.43359 5.29688 7.5C5.29688 8.56641 6.07422 9.59766 6.17969 9.74219C6.28906 9.88672 7.70703 12.0742 9.88281 13.0156C11.2578 13.6094 11.7969 13.6602 12.4844 13.5586C12.9023 13.4961 13.7656 13.0352 13.9453 12.5273C14.125 12.0195 14.125 11.5859 14.0703 11.4961C14.0195 11.3984 13.875 11.3438 13.6602 11.2383Z" fill="white"/>
</svg>
