<svg width="350" height="272" viewBox="0 0 350 272" fill="none" xmlns="http://www.w3.org/2000/svg">
<g opacity="0.1">
<path d="M239.291 -165.742C166.172 -146.149 123.496 -68.0919 144.061 8.6587C164.626 85.4093 240.614 131.671 313.733 112.079C386.851 92.4868 429.529 14.4291 408.963 -62.3217C388.398 -139.072 312.41 -185.334 239.291 -165.742Z" stroke="white" stroke-width="1.5"/>
<path d="M231.171 -227.101C123.629 -198.285 60.429 -85.2901 90.0644 25.3116C119.7 135.914 230.93 202.171 338.473 173.355C446.016 144.539 509.215 31.5433 479.58 -79.0587C449.944 -189.66 338.714 -255.917 231.171 -227.101Z" stroke="white" stroke-width="1.5"/>
<path d="M230.44 -261.6C103.868 -227.685 29.454 -94.8417 64.2832 35.1432C99.1125 165.128 229.979 242.967 356.551 209.052C483.123 175.137 557.536 42.2938 522.706 -87.691C487.877 -217.676 357.012 -295.514 230.44 -261.6Z" stroke="white" stroke-width="1.5"/>
</g>
</svg>
